%TF.GenerationSoftware,KiCad,Pcbnew,5.1.10*%
%TF.CreationDate,2021-08-07T13:12:26+02:00*%
%TF.ProjectId,ATAPIMega,41544150-494d-4656-9761-2e6b69636164,rev?*%
%TF.SameCoordinates,Original*%
%TF.FileFunction,Legend,Top*%
%TF.FilePolarity,Positive*%
%FSLAX46Y46*%
G04 Gerber Fmt 4.6, Leading zero omitted, Abs format (unit mm)*
G04 Created by KiCad (PCBNEW 5.1.10) date 2021-08-07 13:12:26*
%MOMM*%
%LPD*%
G01*
G04 APERTURE LIST*
%ADD10C,0.200000*%
%ADD11C,0.300000*%
%ADD12C,0.250000*%
%ADD13C,0.150000*%
%ADD14C,0.100000*%
%ADD15C,0.600000*%
%ADD16C,0.120000*%
G04 APERTURE END LIST*
D10*
X54492008Y-93414256D02*
X54015818Y-93747590D01*
X54492008Y-93985685D02*
X53492008Y-93985685D01*
X53492008Y-93604733D01*
X53539628Y-93509495D01*
X53587247Y-93461876D01*
X53682485Y-93414256D01*
X53825342Y-93414256D01*
X53920580Y-93461876D01*
X53968199Y-93509495D01*
X54015818Y-93604733D01*
X54015818Y-93985685D01*
X54444389Y-92604733D02*
X54492008Y-92699971D01*
X54492008Y-92890447D01*
X54444389Y-92985685D01*
X54349151Y-93033304D01*
X53968199Y-93033304D01*
X53872961Y-92985685D01*
X53825342Y-92890447D01*
X53825342Y-92699971D01*
X53872961Y-92604733D01*
X53968199Y-92557114D01*
X54063437Y-92557114D01*
X54158675Y-93033304D01*
X53825342Y-92223780D02*
X54492008Y-91985685D01*
X53825342Y-91747590D01*
X54396770Y-91366637D02*
X54444389Y-91319018D01*
X54492008Y-91366637D01*
X54444389Y-91414256D01*
X54396770Y-91366637D01*
X54492008Y-91366637D01*
X54206294Y-90938066D02*
X54206294Y-90461876D01*
X54492008Y-91033304D02*
X53492008Y-90699971D01*
X54492008Y-90366637D01*
X53587247Y-89319018D02*
X53539628Y-89271399D01*
X53492008Y-89176161D01*
X53492008Y-88938066D01*
X53539628Y-88842828D01*
X53587247Y-88795209D01*
X53682485Y-88747590D01*
X53777723Y-88747590D01*
X53920580Y-88795209D01*
X54492008Y-89366637D01*
X54492008Y-88747590D01*
X53492008Y-88128542D02*
X53492008Y-88033304D01*
X53539628Y-87938066D01*
X53587247Y-87890447D01*
X53682485Y-87842828D01*
X53872961Y-87795209D01*
X54111056Y-87795209D01*
X54301532Y-87842828D01*
X54396770Y-87890447D01*
X54444389Y-87938066D01*
X54492008Y-88033304D01*
X54492008Y-88128542D01*
X54444389Y-88223780D01*
X54396770Y-88271399D01*
X54301532Y-88319018D01*
X54111056Y-88366637D01*
X53872961Y-88366637D01*
X53682485Y-88319018D01*
X53587247Y-88271399D01*
X53539628Y-88223780D01*
X53492008Y-88128542D01*
X53587247Y-87414256D02*
X53539628Y-87366637D01*
X53492008Y-87271399D01*
X53492008Y-87033304D01*
X53539628Y-86938066D01*
X53587247Y-86890447D01*
X53682485Y-86842828D01*
X53777723Y-86842828D01*
X53920580Y-86890447D01*
X54492008Y-87461876D01*
X54492008Y-86842828D01*
X54492008Y-85890447D02*
X54492008Y-86461876D01*
X54492008Y-86176161D02*
X53492008Y-86176161D01*
X53634866Y-86271399D01*
X53730104Y-86366637D01*
X53777723Y-86461876D01*
X55192008Y-102295209D02*
X55192008Y-101723780D01*
X56192008Y-102009495D02*
X55192008Y-102009495D01*
X56192008Y-101247590D02*
X56144389Y-101342828D01*
X56096770Y-101390447D01*
X56001532Y-101438066D01*
X55715818Y-101438066D01*
X55620580Y-101390447D01*
X55572961Y-101342828D01*
X55525342Y-101247590D01*
X55525342Y-101104733D01*
X55572961Y-101009495D01*
X55620580Y-100961876D01*
X55715818Y-100914256D01*
X56001532Y-100914256D01*
X56096770Y-100961876D01*
X56144389Y-101009495D01*
X56192008Y-101104733D01*
X56192008Y-101247590D01*
X56192008Y-100485685D02*
X55192008Y-100485685D01*
X55572961Y-100485685D02*
X55525342Y-100390447D01*
X55525342Y-100199971D01*
X55572961Y-100104733D01*
X55620580Y-100057114D01*
X55715818Y-100009495D01*
X56001532Y-100009495D01*
X56096770Y-100057114D01*
X56144389Y-100104733D01*
X56192008Y-100199971D01*
X56192008Y-100390447D01*
X56144389Y-100485685D01*
X56192008Y-99580923D02*
X55525342Y-99580923D01*
X55192008Y-99580923D02*
X55239628Y-99628542D01*
X55287247Y-99580923D01*
X55239628Y-99533304D01*
X55192008Y-99580923D01*
X55287247Y-99580923D01*
X56192008Y-98676161D02*
X55668199Y-98676161D01*
X55572961Y-98723780D01*
X55525342Y-98819018D01*
X55525342Y-99009495D01*
X55572961Y-99104733D01*
X56144389Y-98676161D02*
X56192008Y-98771399D01*
X56192008Y-99009495D01*
X56144389Y-99104733D01*
X56049151Y-99152352D01*
X55953913Y-99152352D01*
X55858675Y-99104733D01*
X55811056Y-99009495D01*
X55811056Y-98771399D01*
X55763437Y-98676161D01*
X56144389Y-98247590D02*
X56192008Y-98152352D01*
X56192008Y-97961876D01*
X56144389Y-97866637D01*
X56049151Y-97819018D01*
X56001532Y-97819018D01*
X55906294Y-97866637D01*
X55858675Y-97961876D01*
X55858675Y-98104733D01*
X55811056Y-98199971D01*
X55715818Y-98247590D01*
X55668199Y-98247590D01*
X55572961Y-98199971D01*
X55525342Y-98104733D01*
X55525342Y-97961876D01*
X55572961Y-97866637D01*
X56192008Y-96628542D02*
X55192008Y-96628542D01*
X55906294Y-96295209D01*
X55192008Y-95961876D01*
X56192008Y-95961876D01*
X56192008Y-95057114D02*
X55668199Y-95057114D01*
X55572961Y-95104733D01*
X55525342Y-95199971D01*
X55525342Y-95390447D01*
X55572961Y-95485685D01*
X56144389Y-95057114D02*
X56192008Y-95152352D01*
X56192008Y-95390447D01*
X56144389Y-95485685D01*
X56049151Y-95533304D01*
X55953913Y-95533304D01*
X55858675Y-95485685D01*
X55811056Y-95390447D01*
X55811056Y-95152352D01*
X55763437Y-95057114D01*
X55192008Y-95485685D02*
X55239628Y-95438066D01*
X55287247Y-95485685D01*
X55239628Y-95533304D01*
X55192008Y-95485685D01*
X55287247Y-95485685D01*
X55192008Y-95104733D02*
X55239628Y-95057114D01*
X55287247Y-95104733D01*
X55239628Y-95152352D01*
X55192008Y-95104733D01*
X55287247Y-95104733D01*
X56192008Y-94152352D02*
X55192008Y-94152352D01*
X56144389Y-94152352D02*
X56192008Y-94247590D01*
X56192008Y-94438066D01*
X56144389Y-94533304D01*
X56096770Y-94580923D01*
X56001532Y-94628542D01*
X55715818Y-94628542D01*
X55620580Y-94580923D01*
X55572961Y-94533304D01*
X55525342Y-94438066D01*
X55525342Y-94247590D01*
X55572961Y-94152352D01*
X56144389Y-93295209D02*
X56192008Y-93390447D01*
X56192008Y-93580923D01*
X56144389Y-93676161D01*
X56049151Y-93723780D01*
X55668199Y-93723780D01*
X55572961Y-93676161D01*
X55525342Y-93580923D01*
X55525342Y-93390447D01*
X55572961Y-93295209D01*
X55668199Y-93247590D01*
X55763437Y-93247590D01*
X55858675Y-93723780D01*
X56192008Y-92676161D02*
X56144389Y-92771399D01*
X56049151Y-92819018D01*
X55192008Y-92819018D01*
X55144389Y-90819018D02*
X56430104Y-91676161D01*
X55192008Y-89866637D02*
X55192008Y-89295209D01*
X56192008Y-89580923D02*
X55192008Y-89580923D01*
X56192008Y-88819018D02*
X56144389Y-88914256D01*
X56096770Y-88961876D01*
X56001532Y-89009495D01*
X55715818Y-89009495D01*
X55620580Y-88961876D01*
X55572961Y-88914256D01*
X55525342Y-88819018D01*
X55525342Y-88676161D01*
X55572961Y-88580923D01*
X55620580Y-88533304D01*
X55715818Y-88485685D01*
X56001532Y-88485685D01*
X56096770Y-88533304D01*
X56144389Y-88580923D01*
X56192008Y-88676161D01*
X56192008Y-88819018D01*
X56192008Y-88057114D02*
X55192008Y-88057114D01*
X55572961Y-88057114D02*
X55525342Y-87961876D01*
X55525342Y-87771399D01*
X55572961Y-87676161D01*
X55620580Y-87628542D01*
X55715818Y-87580923D01*
X56001532Y-87580923D01*
X56096770Y-87628542D01*
X56144389Y-87676161D01*
X56192008Y-87771399D01*
X56192008Y-87961876D01*
X56144389Y-88057114D01*
X56192008Y-87152352D02*
X55525342Y-87152352D01*
X55192008Y-87152352D02*
X55239628Y-87199971D01*
X55287247Y-87152352D01*
X55239628Y-87104733D01*
X55192008Y-87152352D01*
X55287247Y-87152352D01*
X56192008Y-86247590D02*
X55668199Y-86247590D01*
X55572961Y-86295209D01*
X55525342Y-86390447D01*
X55525342Y-86580923D01*
X55572961Y-86676161D01*
X56144389Y-86247590D02*
X56192008Y-86342828D01*
X56192008Y-86580923D01*
X56144389Y-86676161D01*
X56049151Y-86723780D01*
X55953913Y-86723780D01*
X55858675Y-86676161D01*
X55811056Y-86580923D01*
X55811056Y-86342828D01*
X55763437Y-86247590D01*
X56144389Y-85819018D02*
X56192008Y-85723780D01*
X56192008Y-85533304D01*
X56144389Y-85438066D01*
X56049151Y-85390447D01*
X56001532Y-85390447D01*
X55906294Y-85438066D01*
X55858675Y-85533304D01*
X55858675Y-85676161D01*
X55811056Y-85771399D01*
X55715818Y-85819018D01*
X55668199Y-85819018D01*
X55572961Y-85771399D01*
X55525342Y-85676161D01*
X55525342Y-85533304D01*
X55572961Y-85438066D01*
X56144389Y-84247590D02*
X56192008Y-84104733D01*
X56192008Y-83866637D01*
X56144389Y-83771399D01*
X56096770Y-83723780D01*
X56001532Y-83676161D01*
X55906294Y-83676161D01*
X55811056Y-83723780D01*
X55763437Y-83771399D01*
X55715818Y-83866637D01*
X55668199Y-84057114D01*
X55620580Y-84152352D01*
X55572961Y-84199971D01*
X55477723Y-84247590D01*
X55382485Y-84247590D01*
X55287247Y-84199971D01*
X55239628Y-84152352D01*
X55192008Y-84057114D01*
X55192008Y-83819018D01*
X55239628Y-83676161D01*
X56144389Y-82819018D02*
X56192008Y-82914256D01*
X56192008Y-83104733D01*
X56144389Y-83199971D01*
X56096770Y-83247590D01*
X56001532Y-83295209D01*
X55715818Y-83295209D01*
X55620580Y-83247590D01*
X55572961Y-83199971D01*
X55525342Y-83104733D01*
X55525342Y-82914256D01*
X55572961Y-82819018D01*
X56192008Y-82390447D02*
X55192008Y-82390447D01*
X56192008Y-81961876D02*
X55668199Y-81961876D01*
X55572961Y-82009495D01*
X55525342Y-82104733D01*
X55525342Y-82247590D01*
X55572961Y-82342828D01*
X55620580Y-82390447D01*
X56192008Y-81485685D02*
X55525342Y-81485685D01*
X55715818Y-81485685D02*
X55620580Y-81438066D01*
X55572961Y-81390447D01*
X55525342Y-81295209D01*
X55525342Y-81199971D01*
X56192008Y-80438066D02*
X55668199Y-80438066D01*
X55572961Y-80485685D01*
X55525342Y-80580923D01*
X55525342Y-80771399D01*
X55572961Y-80866637D01*
X56144389Y-80438066D02*
X56192008Y-80533304D01*
X56192008Y-80771399D01*
X56144389Y-80866637D01*
X56049151Y-80914256D01*
X55953913Y-80914256D01*
X55858675Y-80866637D01*
X55811056Y-80771399D01*
X55811056Y-80533304D01*
X55763437Y-80438066D01*
X56192008Y-79961876D02*
X55525342Y-79961876D01*
X55620580Y-79961876D02*
X55572961Y-79914256D01*
X55525342Y-79819018D01*
X55525342Y-79676161D01*
X55572961Y-79580923D01*
X55668199Y-79533304D01*
X56192008Y-79533304D01*
X55668199Y-79533304D02*
X55572961Y-79485685D01*
X55525342Y-79390447D01*
X55525342Y-79247590D01*
X55572961Y-79152352D01*
X55668199Y-79104733D01*
X56192008Y-79104733D01*
X56192008Y-78628542D02*
X55525342Y-78628542D01*
X55620580Y-78628542D02*
X55572961Y-78580923D01*
X55525342Y-78485685D01*
X55525342Y-78342828D01*
X55572961Y-78247590D01*
X55668199Y-78199971D01*
X56192008Y-78199971D01*
X55668199Y-78199971D02*
X55572961Y-78152352D01*
X55525342Y-78057114D01*
X55525342Y-77914256D01*
X55572961Y-77819018D01*
X55668199Y-77771399D01*
X56192008Y-77771399D01*
D11*
X125638485Y-30469876D02*
X126352770Y-30469876D01*
X125495628Y-30898447D02*
X125995628Y-29398447D01*
X126495628Y-30898447D01*
X127638485Y-29898447D02*
X127638485Y-30898447D01*
X126995628Y-29898447D02*
X126995628Y-30684161D01*
X127067056Y-30827018D01*
X127209913Y-30898447D01*
X127424199Y-30898447D01*
X127567056Y-30827018D01*
X127638485Y-30755590D01*
X128995628Y-30898447D02*
X128995628Y-29398447D01*
X128995628Y-30827018D02*
X128852770Y-30898447D01*
X128567056Y-30898447D01*
X128424199Y-30827018D01*
X128352770Y-30755590D01*
X128281342Y-30612733D01*
X128281342Y-30184161D01*
X128352770Y-30041304D01*
X128424199Y-29969876D01*
X128567056Y-29898447D01*
X128852770Y-29898447D01*
X128995628Y-29969876D01*
X129709913Y-30898447D02*
X129709913Y-29898447D01*
X129709913Y-29398447D02*
X129638485Y-29469876D01*
X129709913Y-29541304D01*
X129781342Y-29469876D01*
X129709913Y-29398447D01*
X129709913Y-29541304D01*
X130638485Y-30898447D02*
X130495628Y-30827018D01*
X130424199Y-30755590D01*
X130352770Y-30612733D01*
X130352770Y-30184161D01*
X130424199Y-30041304D01*
X130495628Y-29969876D01*
X130638485Y-29898447D01*
X130852770Y-29898447D01*
X130995628Y-29969876D01*
X131067056Y-30041304D01*
X131138485Y-30184161D01*
X131138485Y-30612733D01*
X131067056Y-30755590D01*
X130995628Y-30827018D01*
X130852770Y-30898447D01*
X130638485Y-30898447D01*
X132924199Y-30898447D02*
X132924199Y-29898447D01*
X132924199Y-29398447D02*
X132852770Y-29469876D01*
X132924199Y-29541304D01*
X132995628Y-29469876D01*
X132924199Y-29398447D01*
X132924199Y-29541304D01*
X133638485Y-29898447D02*
X133638485Y-30898447D01*
X133638485Y-30041304D02*
X133709913Y-29969876D01*
X133852770Y-29898447D01*
X134067056Y-29898447D01*
X134209913Y-29969876D01*
X134281342Y-30112733D01*
X134281342Y-30898447D01*
D12*
X58112866Y-58386637D02*
X58112866Y-58862828D01*
X57636675Y-58672352D02*
X58112866Y-58862828D01*
X58589056Y-58672352D01*
X57827151Y-59243780D02*
X58112866Y-58862828D01*
X58398580Y-59243780D01*
X59350961Y-60386637D02*
X59350961Y-59053304D01*
X59350961Y-59243780D02*
X59446199Y-59148542D01*
X59636675Y-59053304D01*
X59922389Y-59053304D01*
X60112866Y-59148542D01*
X60208104Y-59339018D01*
X60208104Y-60386637D01*
X60208104Y-59339018D02*
X60303342Y-59148542D01*
X60493818Y-59053304D01*
X60779532Y-59053304D01*
X60970008Y-59148542D01*
X61065247Y-59339018D01*
X61065247Y-60386637D01*
X62779532Y-60291399D02*
X62589056Y-60386637D01*
X62208104Y-60386637D01*
X62017628Y-60291399D01*
X61922389Y-60100923D01*
X61922389Y-59339018D01*
X62017628Y-59148542D01*
X62208104Y-59053304D01*
X62589056Y-59053304D01*
X62779532Y-59148542D01*
X62874770Y-59339018D01*
X62874770Y-59529495D01*
X61922389Y-59719971D01*
X64017628Y-60386637D02*
X63827151Y-60291399D01*
X63731913Y-60196161D01*
X63636675Y-60005685D01*
X63636675Y-59434256D01*
X63731913Y-59243780D01*
X63827151Y-59148542D01*
X64017628Y-59053304D01*
X64303342Y-59053304D01*
X64493818Y-59148542D01*
X64589056Y-59243780D01*
X64684294Y-59434256D01*
X64684294Y-60005685D01*
X64589056Y-60196161D01*
X64493818Y-60291399D01*
X64303342Y-60386637D01*
X64017628Y-60386637D01*
X65350961Y-59053304D02*
X65731913Y-60386637D01*
X66112866Y-59434256D01*
X66493818Y-60386637D01*
X66874770Y-59053304D01*
X67922389Y-58386637D02*
X67922389Y-58862828D01*
X67446199Y-58672352D02*
X67922389Y-58862828D01*
X68398580Y-58672352D01*
X67636675Y-59243780D02*
X67922389Y-58862828D01*
X68208104Y-59243780D01*
D11*
X85198199Y-71665876D02*
X86626770Y-71665876D01*
X84912485Y-72523018D02*
X85912485Y-69523018D01*
X86912485Y-72523018D01*
X87483913Y-69523018D02*
X89198199Y-69523018D01*
X88341056Y-72523018D02*
X88341056Y-69523018D01*
X90055342Y-71665876D02*
X91483913Y-71665876D01*
X89769628Y-72523018D02*
X90769628Y-69523018D01*
X91769628Y-72523018D01*
X92769628Y-72523018D02*
X92769628Y-69523018D01*
X93912485Y-69523018D01*
X94198199Y-69665876D01*
X94341056Y-69808733D01*
X94483913Y-70094447D01*
X94483913Y-70523018D01*
X94341056Y-70808733D01*
X94198199Y-70951590D01*
X93912485Y-71094447D01*
X92769628Y-71094447D01*
X95769628Y-72523018D02*
X95769628Y-69523018D01*
X99341056Y-71665876D02*
X100769628Y-71665876D01*
X99055342Y-72523018D02*
X100055342Y-69523018D01*
X101055342Y-72523018D01*
X103341056Y-70523018D02*
X103341056Y-72523018D01*
X102055342Y-70523018D02*
X102055342Y-72094447D01*
X102198199Y-72380161D01*
X102483913Y-72523018D01*
X102912485Y-72523018D01*
X103198199Y-72380161D01*
X103341056Y-72237304D01*
X106055342Y-72523018D02*
X106055342Y-69523018D01*
X106055342Y-72380161D02*
X105769627Y-72523018D01*
X105198199Y-72523018D01*
X104912485Y-72380161D01*
X104769627Y-72237304D01*
X104626770Y-71951590D01*
X104626770Y-71094447D01*
X104769627Y-70808733D01*
X104912485Y-70665876D01*
X105198199Y-70523018D01*
X105769627Y-70523018D01*
X106055342Y-70665876D01*
X107483913Y-72523018D02*
X107483913Y-70523018D01*
X107483913Y-69523018D02*
X107341056Y-69665876D01*
X107483913Y-69808733D01*
X107626770Y-69665876D01*
X107483913Y-69523018D01*
X107483913Y-69808733D01*
X109341056Y-72523018D02*
X109055342Y-72380161D01*
X108912485Y-72237304D01*
X108769627Y-71951590D01*
X108769627Y-71094447D01*
X108912485Y-70808733D01*
X109055342Y-70665876D01*
X109341056Y-70523018D01*
X109769627Y-70523018D01*
X110055342Y-70665876D01*
X110198199Y-70808733D01*
X110341056Y-71094447D01*
X110341056Y-71951590D01*
X110198199Y-72237304D01*
X110055342Y-72380161D01*
X109769627Y-72523018D01*
X109341056Y-72523018D01*
X111626770Y-71380161D02*
X113912485Y-71380161D01*
X117055342Y-72237304D02*
X116912485Y-72380161D01*
X116483913Y-72523018D01*
X116198199Y-72523018D01*
X115769627Y-72380161D01*
X115483913Y-72094447D01*
X115341056Y-71808733D01*
X115198199Y-71237304D01*
X115198199Y-70808733D01*
X115341056Y-70237304D01*
X115483913Y-69951590D01*
X115769627Y-69665876D01*
X116198199Y-69523018D01*
X116483913Y-69523018D01*
X116912485Y-69665876D01*
X117055342Y-69808733D01*
X118341056Y-72523018D02*
X118341056Y-69523018D01*
X119055342Y-69523018D01*
X119483913Y-69665876D01*
X119769627Y-69951590D01*
X119912485Y-70237304D01*
X120055342Y-70808733D01*
X120055342Y-71237304D01*
X119912485Y-71808733D01*
X119769627Y-72094447D01*
X119483913Y-72380161D01*
X119055342Y-72523018D01*
X118341056Y-72523018D01*
X123626770Y-72523018D02*
X123626770Y-69523018D01*
X124769627Y-69523018D01*
X125055342Y-69665876D01*
X125198199Y-69808733D01*
X125341056Y-70094447D01*
X125341056Y-70523018D01*
X125198199Y-70808733D01*
X125055342Y-70951590D01*
X124769627Y-71094447D01*
X123626770Y-71094447D01*
X127055342Y-72523018D02*
X126769627Y-72380161D01*
X126626770Y-72094447D01*
X126626770Y-69523018D01*
X129483913Y-72523018D02*
X129483913Y-70951590D01*
X129341056Y-70665876D01*
X129055342Y-70523018D01*
X128483913Y-70523018D01*
X128198199Y-70665876D01*
X129483913Y-72380161D02*
X129198199Y-72523018D01*
X128483913Y-72523018D01*
X128198199Y-72380161D01*
X128055342Y-72094447D01*
X128055342Y-71808733D01*
X128198199Y-71523018D01*
X128483913Y-71380161D01*
X129198199Y-71380161D01*
X129483913Y-71237304D01*
X130626770Y-70523018D02*
X131341056Y-72523018D01*
X132055342Y-70523018D02*
X131341056Y-72523018D01*
X131055342Y-73237304D01*
X130912485Y-73380161D01*
X130626770Y-73523018D01*
X134341056Y-72380161D02*
X134055342Y-72523018D01*
X133483913Y-72523018D01*
X133198199Y-72380161D01*
X133055342Y-72094447D01*
X133055342Y-70951590D01*
X133198199Y-70665876D01*
X133483913Y-70523018D01*
X134055342Y-70523018D01*
X134341056Y-70665876D01*
X134483913Y-70951590D01*
X134483913Y-71237304D01*
X133055342Y-71523018D01*
X135769628Y-72523018D02*
X135769628Y-70523018D01*
X135769628Y-71094447D02*
X135912485Y-70808733D01*
X136055342Y-70665876D01*
X136341056Y-70523018D01*
X136626770Y-70523018D01*
D13*
X67811842Y-37772756D02*
X67240413Y-37772756D01*
X67526128Y-37772756D02*
X67526128Y-36772756D01*
X67430889Y-36915614D01*
X67335651Y-37010852D01*
X67240413Y-37058471D01*
D11*
X123021342Y-38570447D02*
X123021342Y-37070447D01*
X123664199Y-37213304D02*
X123735628Y-37141876D01*
X123878485Y-37070447D01*
X124235628Y-37070447D01*
X124378485Y-37141876D01*
X124449913Y-37213304D01*
X124521342Y-37356161D01*
X124521342Y-37499018D01*
X124449913Y-37713304D01*
X123592770Y-38570447D01*
X124521342Y-38570447D01*
X126021342Y-38427590D02*
X125949913Y-38499018D01*
X125735628Y-38570447D01*
X125592770Y-38570447D01*
X125378485Y-38499018D01*
X125235628Y-38356161D01*
X125164199Y-38213304D01*
X125092770Y-37927590D01*
X125092770Y-37713304D01*
X125164199Y-37427590D01*
X125235628Y-37284733D01*
X125378485Y-37141876D01*
X125592770Y-37070447D01*
X125735628Y-37070447D01*
X125949913Y-37141876D01*
X126021342Y-37213304D01*
D14*
X126301628Y-40542161D02*
X126430199Y-40585018D01*
X126644485Y-40585018D01*
X126730199Y-40542161D01*
X126773056Y-40499304D01*
X126815913Y-40413590D01*
X126815913Y-40327876D01*
X126773056Y-40242161D01*
X126730199Y-40199304D01*
X126644485Y-40156447D01*
X126473056Y-40113590D01*
X126387342Y-40070733D01*
X126344485Y-40027876D01*
X126301628Y-39942161D01*
X126301628Y-39856447D01*
X126344485Y-39770733D01*
X126387342Y-39727876D01*
X126473056Y-39685018D01*
X126687342Y-39685018D01*
X126815913Y-39727876D01*
X127201628Y-40585018D02*
X127201628Y-39685018D01*
X127415913Y-39685018D01*
X127544485Y-39727876D01*
X127630199Y-39813590D01*
X127673056Y-39899304D01*
X127715913Y-40070733D01*
X127715913Y-40199304D01*
X127673056Y-40370733D01*
X127630199Y-40456447D01*
X127544485Y-40542161D01*
X127415913Y-40585018D01*
X127201628Y-40585018D01*
X128058770Y-40327876D02*
X128487342Y-40327876D01*
X127973056Y-40585018D02*
X128273056Y-39685018D01*
X128573056Y-40585018D01*
X129515913Y-40542161D02*
X129644485Y-40585018D01*
X129858770Y-40585018D01*
X129944485Y-40542161D01*
X129987342Y-40499304D01*
X130030199Y-40413590D01*
X130030199Y-40327876D01*
X129987342Y-40242161D01*
X129944485Y-40199304D01*
X129858770Y-40156447D01*
X129687342Y-40113590D01*
X129601628Y-40070733D01*
X129558770Y-40027876D01*
X129515913Y-39942161D01*
X129515913Y-39856447D01*
X129558770Y-39770733D01*
X129601628Y-39727876D01*
X129687342Y-39685018D01*
X129901628Y-39685018D01*
X130030199Y-39727876D01*
X130930199Y-40499304D02*
X130887342Y-40542161D01*
X130758770Y-40585018D01*
X130673056Y-40585018D01*
X130544485Y-40542161D01*
X130458770Y-40456447D01*
X130415913Y-40370733D01*
X130373056Y-40199304D01*
X130373056Y-40070733D01*
X130415913Y-39899304D01*
X130458770Y-39813590D01*
X130544485Y-39727876D01*
X130673056Y-39685018D01*
X130758770Y-39685018D01*
X130887342Y-39727876D01*
X130930199Y-39770733D01*
X131744485Y-40585018D02*
X131315913Y-40585018D01*
X131315913Y-39685018D01*
X133158770Y-39685018D02*
X132730199Y-39685018D01*
X132687342Y-40113590D01*
X132730199Y-40070733D01*
X132815913Y-40027876D01*
X133030199Y-40027876D01*
X133115913Y-40070733D01*
X133158770Y-40113590D01*
X133201628Y-40199304D01*
X133201628Y-40413590D01*
X133158770Y-40499304D01*
X133115913Y-40542161D01*
X133030199Y-40585018D01*
X132815913Y-40585018D01*
X132730199Y-40542161D01*
X132687342Y-40499304D01*
X133458770Y-39685018D02*
X133758770Y-40585018D01*
X134058770Y-39685018D01*
X135515913Y-39727876D02*
X135430199Y-39685018D01*
X135301628Y-39685018D01*
X135173056Y-39727876D01*
X135087342Y-39813590D01*
X135044485Y-39899304D01*
X135001628Y-40070733D01*
X135001628Y-40199304D01*
X135044485Y-40370733D01*
X135087342Y-40456447D01*
X135173056Y-40542161D01*
X135301628Y-40585018D01*
X135387342Y-40585018D01*
X135515913Y-40542161D01*
X135558770Y-40499304D01*
X135558770Y-40199304D01*
X135387342Y-40199304D01*
X135944485Y-40585018D02*
X135944485Y-39685018D01*
X136458770Y-40585018D01*
X136458770Y-39685018D01*
X136887342Y-40585018D02*
X136887342Y-39685018D01*
X137101628Y-39685018D01*
X137230199Y-39727876D01*
X137315913Y-39813590D01*
X137358770Y-39899304D01*
X137401628Y-40070733D01*
X137401628Y-40199304D01*
X137358770Y-40370733D01*
X137315913Y-40456447D01*
X137230199Y-40542161D01*
X137101628Y-40585018D01*
X136887342Y-40585018D01*
X130376723Y-43178256D02*
X130376723Y-42178256D01*
X130614818Y-42178256D01*
X130757675Y-42225876D01*
X130852913Y-42321114D01*
X130900532Y-42416352D01*
X130948151Y-42606828D01*
X130948151Y-42749685D01*
X130900532Y-42940161D01*
X130852913Y-43035399D01*
X130757675Y-43130637D01*
X130614818Y-43178256D01*
X130376723Y-43178256D01*
X131233866Y-42178256D02*
X131805294Y-42178256D01*
X131519580Y-43178256D02*
X131519580Y-42178256D01*
X132710056Y-43178256D02*
X132376723Y-42702066D01*
X132138628Y-43178256D02*
X132138628Y-42178256D01*
X132519580Y-42178256D01*
X132614818Y-42225876D01*
X132662437Y-42273495D01*
X132710056Y-42368733D01*
X132710056Y-42511590D01*
X132662437Y-42606828D01*
X132614818Y-42654447D01*
X132519580Y-42702066D01*
X132138628Y-42702066D01*
X130948151Y-45718256D02*
X130614818Y-45242066D01*
X130376723Y-45718256D02*
X130376723Y-44718256D01*
X130757675Y-44718256D01*
X130852913Y-44765876D01*
X130900532Y-44813495D01*
X130948151Y-44908733D01*
X130948151Y-45051590D01*
X130900532Y-45146828D01*
X130852913Y-45194447D01*
X130757675Y-45242066D01*
X130376723Y-45242066D01*
X131281485Y-44718256D02*
X131948151Y-45718256D01*
X131948151Y-44718256D02*
X131281485Y-45718256D01*
X130233866Y-47258256D02*
X130805294Y-47258256D01*
X130519580Y-48258256D02*
X130519580Y-47258256D01*
X131043389Y-47258256D02*
X131710056Y-48258256D01*
X131710056Y-47258256D02*
X131043389Y-48258256D01*
X130852913Y-49790256D02*
X130376723Y-49790256D01*
X130329104Y-50266447D01*
X130376723Y-50218828D01*
X130471961Y-50171209D01*
X130710056Y-50171209D01*
X130805294Y-50218828D01*
X130852913Y-50266447D01*
X130900532Y-50361685D01*
X130900532Y-50599780D01*
X130852913Y-50695018D01*
X130805294Y-50742637D01*
X130710056Y-50790256D01*
X130471961Y-50790256D01*
X130376723Y-50742637D01*
X130329104Y-50695018D01*
X131186247Y-49790256D02*
X131519580Y-50790256D01*
X131852913Y-49790256D01*
X130948151Y-53235018D02*
X130900532Y-53282637D01*
X130757675Y-53330256D01*
X130662437Y-53330256D01*
X130519580Y-53282637D01*
X130424342Y-53187399D01*
X130376723Y-53092161D01*
X130329104Y-52901685D01*
X130329104Y-52758828D01*
X130376723Y-52568352D01*
X130424342Y-52473114D01*
X130519580Y-52377876D01*
X130662437Y-52330256D01*
X130757675Y-52330256D01*
X130900532Y-52377876D01*
X130948151Y-52425495D01*
X131233866Y-52330256D02*
X131805294Y-52330256D01*
X131519580Y-53330256D02*
X131519580Y-52330256D01*
X132091008Y-53282637D02*
X132233866Y-53330256D01*
X132471961Y-53330256D01*
X132567199Y-53282637D01*
X132614818Y-53235018D01*
X132662437Y-53139780D01*
X132662437Y-53044542D01*
X132614818Y-52949304D01*
X132567199Y-52901685D01*
X132471961Y-52854066D01*
X132281485Y-52806447D01*
X132186247Y-52758828D01*
X132138628Y-52711209D01*
X132091008Y-52615971D01*
X132091008Y-52520733D01*
X132138628Y-52425495D01*
X132186247Y-52377876D01*
X132281485Y-52330256D01*
X132519580Y-52330256D01*
X132662437Y-52377876D01*
X130900532Y-54917876D02*
X130805294Y-54870256D01*
X130662437Y-54870256D01*
X130519580Y-54917876D01*
X130424342Y-55013114D01*
X130376723Y-55108352D01*
X130329104Y-55298828D01*
X130329104Y-55441685D01*
X130376723Y-55632161D01*
X130424342Y-55727399D01*
X130519580Y-55822637D01*
X130662437Y-55870256D01*
X130757675Y-55870256D01*
X130900532Y-55822637D01*
X130948151Y-55775018D01*
X130948151Y-55441685D01*
X130757675Y-55441685D01*
X131376723Y-55870256D02*
X131376723Y-54870256D01*
X131948151Y-55870256D01*
X131948151Y-54870256D01*
X132424342Y-55870256D02*
X132424342Y-54870256D01*
X132662437Y-54870256D01*
X132805294Y-54917876D01*
X132900532Y-55013114D01*
X132948151Y-55108352D01*
X132995770Y-55298828D01*
X132995770Y-55441685D01*
X132948151Y-55632161D01*
X132900532Y-55727399D01*
X132805294Y-55822637D01*
X132662437Y-55870256D01*
X132424342Y-55870256D01*
D11*
X125852770Y-57898447D02*
X125852770Y-59112733D01*
X125924199Y-59255590D01*
X125995628Y-59327018D01*
X126138485Y-59398447D01*
X126424199Y-59398447D01*
X126567056Y-59327018D01*
X126638485Y-59255590D01*
X126709913Y-59112733D01*
X126709913Y-57898447D01*
X127352770Y-58969876D02*
X128067056Y-58969876D01*
X127209913Y-59398447D02*
X127709913Y-57898447D01*
X128209913Y-59398447D01*
X129567056Y-59398447D02*
X129067056Y-58684161D01*
X128709913Y-59398447D02*
X128709913Y-57898447D01*
X129281342Y-57898447D01*
X129424199Y-57969876D01*
X129495628Y-58041304D01*
X129567056Y-58184161D01*
X129567056Y-58398447D01*
X129495628Y-58541304D01*
X129424199Y-58612733D01*
X129281342Y-58684161D01*
X128709913Y-58684161D01*
X129995628Y-57898447D02*
X130852770Y-57898447D01*
X130424199Y-59398447D02*
X130424199Y-57898447D01*
X117781342Y-59398447D02*
X117781342Y-57898447D01*
X118424199Y-59327018D02*
X118638485Y-59398447D01*
X118995628Y-59398447D01*
X119138485Y-59327018D01*
X119209913Y-59255590D01*
X119281342Y-59112733D01*
X119281342Y-58969876D01*
X119209913Y-58827018D01*
X119138485Y-58755590D01*
X118995628Y-58684161D01*
X118709913Y-58612733D01*
X118567056Y-58541304D01*
X118495628Y-58469876D01*
X118424199Y-58327018D01*
X118424199Y-58184161D01*
X118495628Y-58041304D01*
X118567056Y-57969876D01*
X118709913Y-57898447D01*
X119067056Y-57898447D01*
X119281342Y-57969876D01*
X119924199Y-59398447D02*
X119924199Y-57898447D01*
X120495628Y-57898447D01*
X120638485Y-57969876D01*
X120709913Y-58041304D01*
X120781342Y-58184161D01*
X120781342Y-58398447D01*
X120709913Y-58541304D01*
X120638485Y-58612733D01*
X120495628Y-58684161D01*
X119924199Y-58684161D01*
D13*
X51578961Y-39172256D02*
X51578961Y-38172256D01*
X51817056Y-38172256D01*
X51959913Y-38219876D01*
X52055151Y-38315114D01*
X52102770Y-38410352D01*
X52150389Y-38600828D01*
X52150389Y-38743685D01*
X52102770Y-38934161D01*
X52055151Y-39029399D01*
X51959913Y-39124637D01*
X51817056Y-39172256D01*
X51578961Y-39172256D01*
X52578961Y-39172256D02*
X52578961Y-38505590D01*
X52578961Y-38696066D02*
X52626580Y-38600828D01*
X52674199Y-38553209D01*
X52769437Y-38505590D01*
X52864675Y-38505590D01*
X53198008Y-39172256D02*
X53198008Y-38505590D01*
X53198008Y-38172256D02*
X53150389Y-38219876D01*
X53198008Y-38267495D01*
X53245628Y-38219876D01*
X53198008Y-38172256D01*
X53198008Y-38267495D01*
X53578961Y-38505590D02*
X53817056Y-39172256D01*
X54055151Y-38505590D01*
X54817056Y-39124637D02*
X54721818Y-39172256D01*
X54531342Y-39172256D01*
X54436104Y-39124637D01*
X54388485Y-39029399D01*
X54388485Y-38648447D01*
X54436104Y-38553209D01*
X54531342Y-38505590D01*
X54721818Y-38505590D01*
X54817056Y-38553209D01*
X54864675Y-38648447D01*
X54864675Y-38743685D01*
X54388485Y-38838923D01*
X56055151Y-38505590D02*
X56055151Y-39505590D01*
X56055151Y-38553209D02*
X56150389Y-38505590D01*
X56340866Y-38505590D01*
X56436104Y-38553209D01*
X56483723Y-38600828D01*
X56531342Y-38696066D01*
X56531342Y-38981780D01*
X56483723Y-39077018D01*
X56436104Y-39124637D01*
X56340866Y-39172256D01*
X56150389Y-39172256D01*
X56055151Y-39124637D01*
X57102770Y-39172256D02*
X57007532Y-39124637D01*
X56959913Y-39077018D01*
X56912294Y-38981780D01*
X56912294Y-38696066D01*
X56959913Y-38600828D01*
X57007532Y-38553209D01*
X57102770Y-38505590D01*
X57245628Y-38505590D01*
X57340866Y-38553209D01*
X57388485Y-38600828D01*
X57436104Y-38696066D01*
X57436104Y-38981780D01*
X57388485Y-39077018D01*
X57340866Y-39124637D01*
X57245628Y-39172256D01*
X57102770Y-39172256D01*
X57769437Y-38505590D02*
X57959913Y-39172256D01*
X58150389Y-38696066D01*
X58340866Y-39172256D01*
X58531342Y-38505590D01*
X59293247Y-39124637D02*
X59198008Y-39172256D01*
X59007532Y-39172256D01*
X58912294Y-39124637D01*
X58864675Y-39029399D01*
X58864675Y-38648447D01*
X58912294Y-38553209D01*
X59007532Y-38505590D01*
X59198008Y-38505590D01*
X59293247Y-38553209D01*
X59340866Y-38648447D01*
X59340866Y-38743685D01*
X58864675Y-38838923D01*
X59769437Y-39172256D02*
X59769437Y-38505590D01*
X59769437Y-38696066D02*
X59817056Y-38600828D01*
X59864675Y-38553209D01*
X59959913Y-38505590D01*
X60055151Y-38505590D01*
D11*
X72531342Y-36969876D02*
X73245628Y-36969876D01*
X72388485Y-37398447D02*
X72888485Y-35898447D01*
X73388485Y-37398447D01*
X73674199Y-35898447D02*
X74531342Y-35898447D01*
X74102770Y-37398447D02*
X74102770Y-35898447D01*
X74959913Y-36969876D02*
X75674199Y-36969876D01*
X74817056Y-37398447D02*
X75317056Y-35898447D01*
X75817056Y-37398447D01*
X76317056Y-37398447D02*
X76317056Y-35898447D01*
X76888485Y-35898447D01*
X77031342Y-35969876D01*
X77102770Y-36041304D01*
X77174199Y-36184161D01*
X77174199Y-36398447D01*
X77102770Y-36541304D01*
X77031342Y-36612733D01*
X76888485Y-36684161D01*
X76317056Y-36684161D01*
X77817056Y-37398447D02*
X77817056Y-35898447D01*
X79674199Y-37398447D02*
X79674199Y-35898447D01*
X80388485Y-36398447D02*
X80388485Y-37398447D01*
X80388485Y-36541304D02*
X80459913Y-36469876D01*
X80602770Y-36398447D01*
X80817056Y-36398447D01*
X80959913Y-36469876D01*
X81031342Y-36612733D01*
X81031342Y-37398447D01*
X81531342Y-36398447D02*
X82102770Y-36398447D01*
X81745628Y-35898447D02*
X81745628Y-37184161D01*
X81817056Y-37327018D01*
X81959913Y-37398447D01*
X82102770Y-37398447D01*
X83174199Y-37327018D02*
X83031342Y-37398447D01*
X82745628Y-37398447D01*
X82602770Y-37327018D01*
X82531342Y-37184161D01*
X82531342Y-36612733D01*
X82602770Y-36469876D01*
X82745628Y-36398447D01*
X83031342Y-36398447D01*
X83174199Y-36469876D01*
X83245628Y-36612733D01*
X83245628Y-36755590D01*
X82531342Y-36898447D01*
X83888485Y-37398447D02*
X83888485Y-36398447D01*
X83888485Y-36684161D02*
X83959913Y-36541304D01*
X84031342Y-36469876D01*
X84174199Y-36398447D01*
X84317056Y-36398447D01*
X84602770Y-36398447D02*
X85174199Y-36398447D01*
X84817056Y-37398447D02*
X84817056Y-36112733D01*
X84888485Y-35969876D01*
X85031342Y-35898447D01*
X85174199Y-35898447D01*
X86317056Y-37398447D02*
X86317056Y-36612733D01*
X86245628Y-36469876D01*
X86102770Y-36398447D01*
X85817056Y-36398447D01*
X85674199Y-36469876D01*
X86317056Y-37327018D02*
X86174199Y-37398447D01*
X85817056Y-37398447D01*
X85674199Y-37327018D01*
X85602770Y-37184161D01*
X85602770Y-37041304D01*
X85674199Y-36898447D01*
X85817056Y-36827018D01*
X86174199Y-36827018D01*
X86317056Y-36755590D01*
X87674199Y-37327018D02*
X87531342Y-37398447D01*
X87245628Y-37398447D01*
X87102770Y-37327018D01*
X87031342Y-37255590D01*
X86959913Y-37112733D01*
X86959913Y-36684161D01*
X87031342Y-36541304D01*
X87102770Y-36469876D01*
X87245628Y-36398447D01*
X87531342Y-36398447D01*
X87674199Y-36469876D01*
X88888485Y-37327018D02*
X88745628Y-37398447D01*
X88459913Y-37398447D01*
X88317056Y-37327018D01*
X88245628Y-37184161D01*
X88245628Y-36612733D01*
X88317056Y-36469876D01*
X88459913Y-36398447D01*
X88745628Y-36398447D01*
X88888485Y-36469876D01*
X88959913Y-36612733D01*
X88959913Y-36755590D01*
X88245628Y-36898447D01*
D10*
X52983723Y-35719876D02*
X52888485Y-35672256D01*
X52745628Y-35672256D01*
X52602770Y-35719876D01*
X52507532Y-35815114D01*
X52459913Y-35910352D01*
X52412294Y-36100828D01*
X52412294Y-36243685D01*
X52459913Y-36434161D01*
X52507532Y-36529399D01*
X52602770Y-36624637D01*
X52745628Y-36672256D01*
X52840866Y-36672256D01*
X52983723Y-36624637D01*
X53031342Y-36577018D01*
X53031342Y-36243685D01*
X52840866Y-36243685D01*
X53459913Y-36672256D02*
X53459913Y-35672256D01*
X54031342Y-36672256D01*
X54031342Y-35672256D01*
X54507532Y-36672256D02*
X54507532Y-35672256D01*
X54745628Y-35672256D01*
X54888485Y-35719876D01*
X54983723Y-35815114D01*
X55031342Y-35910352D01*
X55078961Y-36100828D01*
X55078961Y-36243685D01*
X55031342Y-36434161D01*
X54983723Y-36529399D01*
X54888485Y-36624637D01*
X54745628Y-36672256D01*
X54507532Y-36672256D01*
X47983723Y-35719876D02*
X47888485Y-35672256D01*
X47745628Y-35672256D01*
X47602770Y-35719876D01*
X47507532Y-35815114D01*
X47459913Y-35910352D01*
X47412294Y-36100828D01*
X47412294Y-36243685D01*
X47459913Y-36434161D01*
X47507532Y-36529399D01*
X47602770Y-36624637D01*
X47745628Y-36672256D01*
X47840866Y-36672256D01*
X47983723Y-36624637D01*
X48031342Y-36577018D01*
X48031342Y-36243685D01*
X47840866Y-36243685D01*
X48459913Y-36672256D02*
X48459913Y-35672256D01*
X49031342Y-36672256D01*
X49031342Y-35672256D01*
X49507532Y-36672256D02*
X49507532Y-35672256D01*
X49745628Y-35672256D01*
X49888485Y-35719876D01*
X49983723Y-35815114D01*
X50031342Y-35910352D01*
X50078961Y-36100828D01*
X50078961Y-36243685D01*
X50031342Y-36434161D01*
X49983723Y-36529399D01*
X49888485Y-36624637D01*
X49745628Y-36672256D01*
X49507532Y-36672256D01*
X58055151Y-35672256D02*
X57578961Y-35672256D01*
X57531342Y-36148447D01*
X57578961Y-36100828D01*
X57674199Y-36053209D01*
X57912294Y-36053209D01*
X58007532Y-36100828D01*
X58055151Y-36148447D01*
X58102770Y-36243685D01*
X58102770Y-36481780D01*
X58055151Y-36577018D01*
X58007532Y-36624637D01*
X57912294Y-36672256D01*
X57674199Y-36672256D01*
X57578961Y-36624637D01*
X57531342Y-36577018D01*
X58388485Y-35672256D02*
X58721818Y-36672256D01*
X59055151Y-35672256D01*
X42626580Y-36672256D02*
X42055151Y-36672256D01*
X42340866Y-36672256D02*
X42340866Y-35672256D01*
X42245628Y-35815114D01*
X42150389Y-35910352D01*
X42055151Y-35957971D01*
X43007532Y-35767495D02*
X43055151Y-35719876D01*
X43150389Y-35672256D01*
X43388485Y-35672256D01*
X43483723Y-35719876D01*
X43531342Y-35767495D01*
X43578961Y-35862733D01*
X43578961Y-35957971D01*
X43531342Y-36100828D01*
X42959913Y-36672256D01*
X43578961Y-36672256D01*
X43864675Y-35672256D02*
X44198008Y-36672256D01*
X44531342Y-35672256D01*
D15*
X60595628Y-48969876D02*
G75*
G03*
X60595628Y-48969876I-100000J0D01*
G01*
X99595628Y-61219876D02*
G75*
G03*
X99595628Y-61219876I-100000J0D01*
G01*
D13*
X69307413Y-71597256D02*
X68831223Y-71597256D01*
X68831223Y-70597256D01*
X70212175Y-71502018D02*
X70164556Y-71549637D01*
X70021699Y-71597256D01*
X69926461Y-71597256D01*
X69783604Y-71549637D01*
X69688366Y-71454399D01*
X69640747Y-71359161D01*
X69593128Y-71168685D01*
X69593128Y-71025828D01*
X69640747Y-70835352D01*
X69688366Y-70740114D01*
X69783604Y-70644876D01*
X69926461Y-70597256D01*
X70021699Y-70597256D01*
X70164556Y-70644876D01*
X70212175Y-70692495D01*
X70640747Y-71597256D02*
X70640747Y-70597256D01*
X70878842Y-70597256D01*
X71021699Y-70644876D01*
X71116937Y-70740114D01*
X71164556Y-70835352D01*
X71212175Y-71025828D01*
X71212175Y-71168685D01*
X71164556Y-71359161D01*
X71116937Y-71454399D01*
X71021699Y-71549637D01*
X70878842Y-71597256D01*
X70640747Y-71597256D01*
X69402651Y-73152018D02*
X69355032Y-73199637D01*
X69212175Y-73247256D01*
X69116937Y-73247256D01*
X68974080Y-73199637D01*
X68878842Y-73104399D01*
X68831223Y-73009161D01*
X68783604Y-72818685D01*
X68783604Y-72675828D01*
X68831223Y-72485352D01*
X68878842Y-72390114D01*
X68974080Y-72294876D01*
X69116937Y-72247256D01*
X69212175Y-72247256D01*
X69355032Y-72294876D01*
X69402651Y-72342495D01*
X69974080Y-73247256D02*
X69878842Y-73199637D01*
X69831223Y-73152018D01*
X69783604Y-73056780D01*
X69783604Y-72771066D01*
X69831223Y-72675828D01*
X69878842Y-72628209D01*
X69974080Y-72580590D01*
X70116937Y-72580590D01*
X70212175Y-72628209D01*
X70259794Y-72675828D01*
X70307413Y-72771066D01*
X70307413Y-73056780D01*
X70259794Y-73152018D01*
X70212175Y-73199637D01*
X70116937Y-73247256D01*
X69974080Y-73247256D01*
X70735985Y-72580590D02*
X70735985Y-73247256D01*
X70735985Y-72675828D02*
X70783604Y-72628209D01*
X70878842Y-72580590D01*
X71021699Y-72580590D01*
X71116937Y-72628209D01*
X71164556Y-72723447D01*
X71164556Y-73247256D01*
X71497889Y-72580590D02*
X71878842Y-72580590D01*
X71640747Y-72247256D02*
X71640747Y-73104399D01*
X71688366Y-73199637D01*
X71783604Y-73247256D01*
X71878842Y-73247256D01*
X72212175Y-73247256D02*
X72212175Y-72580590D01*
X72212175Y-72771066D02*
X72259794Y-72675828D01*
X72307413Y-72628209D01*
X72402651Y-72580590D01*
X72497889Y-72580590D01*
X73259794Y-73247256D02*
X73259794Y-72723447D01*
X73212175Y-72628209D01*
X73116937Y-72580590D01*
X72926461Y-72580590D01*
X72831223Y-72628209D01*
X73259794Y-73199637D02*
X73164556Y-73247256D01*
X72926461Y-73247256D01*
X72831223Y-73199637D01*
X72783604Y-73104399D01*
X72783604Y-73009161D01*
X72831223Y-72913923D01*
X72926461Y-72866304D01*
X73164556Y-72866304D01*
X73259794Y-72818685D01*
X73688366Y-73199637D02*
X73783604Y-73247256D01*
X73974080Y-73247256D01*
X74069318Y-73199637D01*
X74116937Y-73104399D01*
X74116937Y-73056780D01*
X74069318Y-72961542D01*
X73974080Y-72913923D01*
X73831223Y-72913923D01*
X73735985Y-72866304D01*
X73688366Y-72771066D01*
X73688366Y-72723447D01*
X73735985Y-72628209D01*
X73831223Y-72580590D01*
X73974080Y-72580590D01*
X74069318Y-72628209D01*
X74402651Y-72580590D02*
X74783604Y-72580590D01*
X74545508Y-72247256D02*
X74545508Y-73104399D01*
X74593128Y-73199637D01*
X74688366Y-73247256D01*
X74783604Y-73247256D01*
X47745628Y-65672256D02*
X47174199Y-65672256D01*
X47459913Y-65672256D02*
X47459913Y-64672256D01*
X47364675Y-64815114D01*
X47269437Y-64910352D01*
X47174199Y-64957971D01*
X48126580Y-64767495D02*
X48174199Y-64719876D01*
X48269437Y-64672256D01*
X48507532Y-64672256D01*
X48602770Y-64719876D01*
X48650389Y-64767495D01*
X48698008Y-64862733D01*
X48698008Y-64957971D01*
X48650389Y-65100828D01*
X48078961Y-65672256D01*
X48698008Y-65672256D01*
X48983723Y-64672256D02*
X49317056Y-65672256D01*
X49650389Y-64672256D01*
X50745628Y-65672256D02*
X50745628Y-64672256D01*
X50983723Y-64672256D01*
X51126580Y-64719876D01*
X51221818Y-64815114D01*
X51269437Y-64910352D01*
X51317056Y-65100828D01*
X51317056Y-65243685D01*
X51269437Y-65434161D01*
X51221818Y-65529399D01*
X51126580Y-65624637D01*
X50983723Y-65672256D01*
X50745628Y-65672256D01*
X52317056Y-65577018D02*
X52269437Y-65624637D01*
X52126580Y-65672256D01*
X52031342Y-65672256D01*
X51888485Y-65624637D01*
X51793247Y-65529399D01*
X51745628Y-65434161D01*
X51698008Y-65243685D01*
X51698008Y-65100828D01*
X51745628Y-64910352D01*
X51793247Y-64815114D01*
X51888485Y-64719876D01*
X52031342Y-64672256D01*
X52126580Y-64672256D01*
X52269437Y-64719876D01*
X52317056Y-64767495D01*
X86626580Y-56672256D02*
X86626580Y-57386542D01*
X86578961Y-57529399D01*
X86483723Y-57624637D01*
X86340866Y-57672256D01*
X86245628Y-57672256D01*
X87578961Y-57672256D02*
X87102770Y-57672256D01*
X87102770Y-56672256D01*
X88483723Y-57577018D02*
X88436104Y-57624637D01*
X88293247Y-57672256D01*
X88198008Y-57672256D01*
X88055151Y-57624637D01*
X87959913Y-57529399D01*
X87912294Y-57434161D01*
X87864675Y-57243685D01*
X87864675Y-57100828D01*
X87912294Y-56910352D01*
X87959913Y-56815114D01*
X88055151Y-56719876D01*
X88198008Y-56672256D01*
X88293247Y-56672256D01*
X88436104Y-56719876D01*
X88483723Y-56767495D01*
X89198008Y-56672256D02*
X89198008Y-57386542D01*
X89150389Y-57529399D01*
X89055151Y-57624637D01*
X88912294Y-57672256D01*
X88817056Y-57672256D01*
X90150389Y-57672256D02*
X89674199Y-57672256D01*
X89674199Y-56672256D01*
X91055151Y-57577018D02*
X91007532Y-57624637D01*
X90864675Y-57672256D01*
X90769437Y-57672256D01*
X90626580Y-57624637D01*
X90531342Y-57529399D01*
X90483723Y-57434161D01*
X90436104Y-57243685D01*
X90436104Y-57100828D01*
X90483723Y-56910352D01*
X90531342Y-56815114D01*
X90626580Y-56719876D01*
X90769437Y-56672256D01*
X90864675Y-56672256D01*
X91007532Y-56719876D01*
X91055151Y-56767495D01*
X91769437Y-56672256D02*
X91769437Y-57386542D01*
X91721818Y-57529399D01*
X91626580Y-57624637D01*
X91483723Y-57672256D01*
X91388485Y-57672256D01*
X92721818Y-57672256D02*
X92245628Y-57672256D01*
X92245628Y-56672256D01*
X93626580Y-57577018D02*
X93578961Y-57624637D01*
X93436104Y-57672256D01*
X93340866Y-57672256D01*
X93198008Y-57624637D01*
X93102770Y-57529399D01*
X93055151Y-57434161D01*
X93007532Y-57243685D01*
X93007532Y-57100828D01*
X93055151Y-56910352D01*
X93102770Y-56815114D01*
X93198008Y-56719876D01*
X93340866Y-56672256D01*
X93436104Y-56672256D01*
X93578961Y-56719876D01*
X93626580Y-56767495D01*
X94340866Y-56672256D02*
X94340866Y-57386542D01*
X94293247Y-57529399D01*
X94198008Y-57624637D01*
X94055151Y-57672256D01*
X93959913Y-57672256D01*
X95293247Y-57672256D02*
X94817056Y-57672256D01*
X94817056Y-56672256D01*
X96198008Y-57577018D02*
X96150389Y-57624637D01*
X96007532Y-57672256D01*
X95912294Y-57672256D01*
X95769437Y-57624637D01*
X95674199Y-57529399D01*
X95626580Y-57434161D01*
X95578961Y-57243685D01*
X95578961Y-57100828D01*
X95626580Y-56910352D01*
X95674199Y-56815114D01*
X95769437Y-56719876D01*
X95912294Y-56672256D01*
X96007532Y-56672256D01*
X96150389Y-56719876D01*
X96198008Y-56767495D01*
D16*
%TO.C,C2*%
X81385628Y-53577712D02*
X81385628Y-53362040D01*
X82105628Y-53577712D02*
X82105628Y-53362040D01*
%TO.C,J9*%
X134945628Y-28549876D02*
X134945628Y-25889876D01*
X127265628Y-28549876D02*
X134945628Y-28549876D01*
X127265628Y-25889876D02*
X134945628Y-25889876D01*
X127265628Y-28549876D02*
X127265628Y-25889876D01*
X125995628Y-28549876D02*
X124665628Y-28549876D01*
X124665628Y-28549876D02*
X124665628Y-27219876D01*
%TO.C,J8*%
X48981628Y-127031876D02*
X42741628Y-127031876D01*
X42741628Y-127031876D02*
X42741628Y-123031876D01*
X42741628Y-123031876D02*
X42441628Y-123031876D01*
X42441628Y-123031876D02*
X42441628Y-108791876D01*
X42441628Y-108791876D02*
X50881628Y-108791876D01*
X50881628Y-108791876D02*
X50881628Y-123031876D01*
X50881628Y-123031876D02*
X48981628Y-123031876D01*
X48981628Y-123031876D02*
X48981628Y-127031876D01*
%TO.C,J7*%
X93855628Y-95549876D02*
X93855628Y-92889876D01*
X76015628Y-95549876D02*
X93855628Y-95549876D01*
X76015628Y-92889876D02*
X93855628Y-92889876D01*
X76015628Y-95549876D02*
X76015628Y-92889876D01*
X74745628Y-95549876D02*
X73415628Y-95549876D01*
X73415628Y-95549876D02*
X73415628Y-94219876D01*
%TO.C,J1*%
X114705628Y-41509876D02*
X123825628Y-41509876D01*
X123825628Y-41509876D02*
X123825628Y-57009876D01*
X123825628Y-57009876D02*
X114705628Y-57009876D01*
X114705628Y-57009876D02*
X114705628Y-41509876D01*
X114705628Y-47209876D02*
X116015628Y-47209876D01*
X116015628Y-47209876D02*
X116015628Y-42809876D01*
X116015628Y-42809876D02*
X122515628Y-42809876D01*
X122515628Y-42809876D02*
X122515628Y-55709876D01*
X122515628Y-55709876D02*
X116015628Y-55709876D01*
X116015628Y-55709876D02*
X116015628Y-51309876D01*
X116015628Y-51309876D02*
X116015628Y-51309876D01*
X116015628Y-51309876D02*
X114705628Y-51309876D01*
X114315628Y-46719876D02*
X113315628Y-46219876D01*
X113315628Y-46219876D02*
X113315628Y-47219876D01*
X113315628Y-47219876D02*
X114315628Y-46719876D01*
%TO.C,J6*%
X52745628Y-53469876D02*
X52745628Y-63969876D01*
X38245628Y-63969876D02*
X40245628Y-63969876D01*
X38245628Y-53469876D02*
X38245628Y-63969876D01*
X40245628Y-53469876D02*
X38245628Y-53469876D01*
%TO.C,SW7*%
X127515628Y-114739876D02*
X127545628Y-114739876D01*
X133975628Y-114739876D02*
X133945628Y-114739876D01*
X133975628Y-121199876D02*
X133945628Y-121199876D01*
X127545628Y-121199876D02*
X127515628Y-121199876D01*
X129445628Y-114739876D02*
X132045628Y-114739876D01*
X127515628Y-121199876D02*
X127515628Y-114739876D01*
X129445628Y-121199876D02*
X132045628Y-121199876D01*
X133975628Y-121199876D02*
X133975628Y-114739876D01*
%TO.C,SW6*%
X115015628Y-114739876D02*
X115045628Y-114739876D01*
X121475628Y-114739876D02*
X121445628Y-114739876D01*
X121475628Y-121199876D02*
X121445628Y-121199876D01*
X115045628Y-121199876D02*
X115015628Y-121199876D01*
X116945628Y-114739876D02*
X119545628Y-114739876D01*
X115015628Y-121199876D02*
X115015628Y-114739876D01*
X116945628Y-121199876D02*
X119545628Y-121199876D01*
X121475628Y-121199876D02*
X121475628Y-114739876D01*
%TO.C,SW5*%
X102515628Y-114739876D02*
X102545628Y-114739876D01*
X108975628Y-114739876D02*
X108945628Y-114739876D01*
X108975628Y-121199876D02*
X108945628Y-121199876D01*
X102545628Y-121199876D02*
X102515628Y-121199876D01*
X104445628Y-114739876D02*
X107045628Y-114739876D01*
X102515628Y-121199876D02*
X102515628Y-114739876D01*
X104445628Y-121199876D02*
X107045628Y-121199876D01*
X108975628Y-121199876D02*
X108975628Y-114739876D01*
%TO.C,SW4*%
X90015628Y-114739876D02*
X90045628Y-114739876D01*
X96475628Y-114739876D02*
X96445628Y-114739876D01*
X96475628Y-121199876D02*
X96445628Y-121199876D01*
X90045628Y-121199876D02*
X90015628Y-121199876D01*
X91945628Y-114739876D02*
X94545628Y-114739876D01*
X90015628Y-121199876D02*
X90015628Y-114739876D01*
X91945628Y-121199876D02*
X94545628Y-121199876D01*
X96475628Y-121199876D02*
X96475628Y-114739876D01*
%TO.C,SW3*%
X77515628Y-114739876D02*
X77545628Y-114739876D01*
X83975628Y-114739876D02*
X83945628Y-114739876D01*
X83975628Y-121199876D02*
X83945628Y-121199876D01*
X77545628Y-121199876D02*
X77515628Y-121199876D01*
X79445628Y-114739876D02*
X82045628Y-114739876D01*
X77515628Y-121199876D02*
X77515628Y-114739876D01*
X79445628Y-121199876D02*
X82045628Y-121199876D01*
X83975628Y-121199876D02*
X83975628Y-114739876D01*
%TO.C,SW1*%
X65015628Y-114739876D02*
X65045628Y-114739876D01*
X71475628Y-114739876D02*
X71445628Y-114739876D01*
X71475628Y-121199876D02*
X71445628Y-121199876D01*
X65045628Y-121199876D02*
X65015628Y-121199876D01*
X66945628Y-114739876D02*
X69545628Y-114739876D01*
X65015628Y-121199876D02*
X65015628Y-114739876D01*
X66945628Y-121199876D02*
X69545628Y-121199876D01*
X71475628Y-121199876D02*
X71475628Y-114739876D01*
%TO.C,SW2*%
X52515628Y-114739876D02*
X52545628Y-114739876D01*
X58975628Y-114739876D02*
X58945628Y-114739876D01*
X58975628Y-121199876D02*
X58945628Y-121199876D01*
X52545628Y-121199876D02*
X52515628Y-121199876D01*
X54445628Y-114739876D02*
X57045628Y-114739876D01*
X52515628Y-121199876D02*
X52515628Y-114739876D01*
X54445628Y-121199876D02*
X57045628Y-121199876D01*
X58975628Y-121199876D02*
X58975628Y-114739876D01*
%TO.C,RN6*%
X87315628Y-64219876D02*
X87315628Y-64719876D01*
X89675628Y-64219876D02*
X89675628Y-64719876D01*
%TO.C,RN5*%
X92175628Y-64719876D02*
X92175628Y-64219876D01*
X89815628Y-64719876D02*
X89815628Y-64219876D01*
%TO.C,RN4*%
X80745628Y-51149876D02*
X81245628Y-51149876D01*
X80745628Y-48789876D02*
X81245628Y-48789876D01*
%TO.C,RN3*%
X88315628Y-42719876D02*
X88315628Y-43219876D01*
X90675628Y-42719876D02*
X90675628Y-43219876D01*
%TO.C,RN2*%
X101245628Y-56789876D02*
X100745628Y-56789876D01*
X101245628Y-59149876D02*
X100745628Y-59149876D01*
%TO.C,RN1*%
X90815628Y-42719876D02*
X90815628Y-43219876D01*
X93175628Y-42719876D02*
X93175628Y-43219876D01*
%TO.C,C15*%
X52615628Y-44719876D02*
G75*
G03*
X52615628Y-44719876I-6620000J0D01*
G01*
X45995628Y-51299876D02*
X45995628Y-38139876D01*
X45955628Y-51299876D02*
X45955628Y-38139876D01*
X45915628Y-51299876D02*
X45915628Y-38139876D01*
X45875628Y-51298876D02*
X45875628Y-38140876D01*
X45835628Y-51298876D02*
X45835628Y-38140876D01*
X45795628Y-51296876D02*
X45795628Y-38142876D01*
X45755628Y-51295876D02*
X45755628Y-38143876D01*
X45715628Y-51294876D02*
X45715628Y-38144876D01*
X45675628Y-51292876D02*
X45675628Y-38146876D01*
X45635628Y-51290876D02*
X45635628Y-38148876D01*
X45595628Y-51287876D02*
X45595628Y-38151876D01*
X45555628Y-51285876D02*
X45555628Y-38153876D01*
X45515628Y-51282876D02*
X45515628Y-38156876D01*
X45475628Y-51279876D02*
X45475628Y-38159876D01*
X45435628Y-51276876D02*
X45435628Y-38162876D01*
X45395628Y-51272876D02*
X45395628Y-38166876D01*
X45355628Y-51268876D02*
X45355628Y-38170876D01*
X45315628Y-51264876D02*
X45315628Y-38174876D01*
X45274628Y-51260876D02*
X45274628Y-38178876D01*
X45234628Y-51256876D02*
X45234628Y-38182876D01*
X45194628Y-51251876D02*
X45194628Y-38187876D01*
X45154628Y-51246876D02*
X45154628Y-38192876D01*
X45114628Y-51241876D02*
X45114628Y-38197876D01*
X45074628Y-51235876D02*
X45074628Y-38203876D01*
X45034628Y-51230876D02*
X45034628Y-38208876D01*
X44994628Y-51224876D02*
X44994628Y-38214876D01*
X44954628Y-51217876D02*
X44954628Y-38221876D01*
X44914628Y-51211876D02*
X44914628Y-46159876D01*
X44914628Y-43279876D02*
X44914628Y-38227876D01*
X44874628Y-51204876D02*
X44874628Y-46159876D01*
X44874628Y-43279876D02*
X44874628Y-38234876D01*
X44834628Y-51197876D02*
X44834628Y-46159876D01*
X44834628Y-43279876D02*
X44834628Y-38241876D01*
X44794628Y-51190876D02*
X44794628Y-46159876D01*
X44794628Y-43279876D02*
X44794628Y-38248876D01*
X44754628Y-51182876D02*
X44754628Y-46159876D01*
X44754628Y-43279876D02*
X44754628Y-38256876D01*
X44714628Y-51175876D02*
X44714628Y-46159876D01*
X44714628Y-43279876D02*
X44714628Y-38263876D01*
X44674628Y-51167876D02*
X44674628Y-46159876D01*
X44674628Y-43279876D02*
X44674628Y-38271876D01*
X44634628Y-51158876D02*
X44634628Y-46159876D01*
X44634628Y-43279876D02*
X44634628Y-38280876D01*
X44594628Y-51150876D02*
X44594628Y-46159876D01*
X44594628Y-43279876D02*
X44594628Y-38288876D01*
X44554628Y-51141876D02*
X44554628Y-46159876D01*
X44554628Y-43279876D02*
X44554628Y-38297876D01*
X44514628Y-51132876D02*
X44514628Y-46159876D01*
X44514628Y-43279876D02*
X44514628Y-38306876D01*
X44474628Y-51123876D02*
X44474628Y-46159876D01*
X44474628Y-43279876D02*
X44474628Y-38315876D01*
X44434628Y-51113876D02*
X44434628Y-46159876D01*
X44434628Y-43279876D02*
X44434628Y-38325876D01*
X44394628Y-51103876D02*
X44394628Y-46159876D01*
X44394628Y-43279876D02*
X44394628Y-38335876D01*
X44354628Y-51093876D02*
X44354628Y-46159876D01*
X44354628Y-43279876D02*
X44354628Y-38345876D01*
X44314628Y-51083876D02*
X44314628Y-46159876D01*
X44314628Y-43279876D02*
X44314628Y-38355876D01*
X44274628Y-51072876D02*
X44274628Y-46159876D01*
X44274628Y-43279876D02*
X44274628Y-38366876D01*
X44234628Y-51061876D02*
X44234628Y-46159876D01*
X44234628Y-43279876D02*
X44234628Y-38377876D01*
X44194628Y-51050876D02*
X44194628Y-46159876D01*
X44194628Y-43279876D02*
X44194628Y-38388876D01*
X44154628Y-51039876D02*
X44154628Y-46159876D01*
X44154628Y-43279876D02*
X44154628Y-38399876D01*
X44114628Y-51027876D02*
X44114628Y-46159876D01*
X44114628Y-43279876D02*
X44114628Y-38411876D01*
X44074628Y-51015876D02*
X44074628Y-46159876D01*
X44074628Y-43279876D02*
X44074628Y-38423876D01*
X44034628Y-51003876D02*
X44034628Y-46159876D01*
X44034628Y-43279876D02*
X44034628Y-38435876D01*
X43994628Y-50990876D02*
X43994628Y-46159876D01*
X43994628Y-43279876D02*
X43994628Y-38448876D01*
X43954628Y-50977876D02*
X43954628Y-46159876D01*
X43954628Y-43279876D02*
X43954628Y-38461876D01*
X43914628Y-50964876D02*
X43914628Y-46159876D01*
X43914628Y-43279876D02*
X43914628Y-38474876D01*
X43874628Y-50951876D02*
X43874628Y-46159876D01*
X43874628Y-43279876D02*
X43874628Y-38487876D01*
X43834628Y-50937876D02*
X43834628Y-46159876D01*
X43834628Y-43279876D02*
X43834628Y-38501876D01*
X43794628Y-50923876D02*
X43794628Y-46159876D01*
X43794628Y-43279876D02*
X43794628Y-38515876D01*
X43754628Y-50909876D02*
X43754628Y-46159876D01*
X43754628Y-43279876D02*
X43754628Y-38529876D01*
X43714628Y-50894876D02*
X43714628Y-46159876D01*
X43714628Y-43279876D02*
X43714628Y-38544876D01*
X43674628Y-50880876D02*
X43674628Y-46159876D01*
X43674628Y-43279876D02*
X43674628Y-38558876D01*
X43634628Y-50865876D02*
X43634628Y-46159876D01*
X43634628Y-43279876D02*
X43634628Y-38573876D01*
X43594628Y-50849876D02*
X43594628Y-46159876D01*
X43594628Y-43279876D02*
X43594628Y-38589876D01*
X43554628Y-50833876D02*
X43554628Y-46159876D01*
X43554628Y-43279876D02*
X43554628Y-38605876D01*
X43514628Y-50817876D02*
X43514628Y-46159876D01*
X43514628Y-43279876D02*
X43514628Y-38621876D01*
X43474628Y-50801876D02*
X43474628Y-46159876D01*
X43474628Y-43279876D02*
X43474628Y-38637876D01*
X43434628Y-50784876D02*
X43434628Y-46159876D01*
X43434628Y-43279876D02*
X43434628Y-38654876D01*
X43394628Y-50768876D02*
X43394628Y-46159876D01*
X43394628Y-43279876D02*
X43394628Y-38670876D01*
X43354628Y-50750876D02*
X43354628Y-46159876D01*
X43354628Y-43279876D02*
X43354628Y-38688876D01*
X43314628Y-50733876D02*
X43314628Y-46159876D01*
X43314628Y-43279876D02*
X43314628Y-38705876D01*
X43274628Y-50715876D02*
X43274628Y-46159876D01*
X43274628Y-43279876D02*
X43274628Y-38723876D01*
X43234628Y-50697876D02*
X43234628Y-46159876D01*
X43234628Y-43279876D02*
X43234628Y-38741876D01*
X43194628Y-50678876D02*
X43194628Y-46159876D01*
X43194628Y-43279876D02*
X43194628Y-38760876D01*
X43154628Y-50659876D02*
X43154628Y-46159876D01*
X43154628Y-43279876D02*
X43154628Y-38779876D01*
X43114628Y-50640876D02*
X43114628Y-46159876D01*
X43114628Y-43279876D02*
X43114628Y-38798876D01*
X43074628Y-50621876D02*
X43074628Y-46159876D01*
X43074628Y-43279876D02*
X43074628Y-38817876D01*
X43034628Y-50601876D02*
X43034628Y-46159876D01*
X43034628Y-43279876D02*
X43034628Y-38837876D01*
X42994628Y-50581876D02*
X42994628Y-46159876D01*
X42994628Y-43279876D02*
X42994628Y-38857876D01*
X42954628Y-50560876D02*
X42954628Y-46159876D01*
X42954628Y-43279876D02*
X42954628Y-38878876D01*
X42914628Y-50539876D02*
X42914628Y-46159876D01*
X42914628Y-43279876D02*
X42914628Y-38899876D01*
X42874628Y-50518876D02*
X42874628Y-46159876D01*
X42874628Y-43279876D02*
X42874628Y-38920876D01*
X42834628Y-50497876D02*
X42834628Y-46159876D01*
X42834628Y-43279876D02*
X42834628Y-38941876D01*
X42794628Y-50475876D02*
X42794628Y-46159876D01*
X42794628Y-43279876D02*
X42794628Y-38963876D01*
X42754628Y-50452876D02*
X42754628Y-46159876D01*
X42754628Y-43279876D02*
X42754628Y-38986876D01*
X42714628Y-50430876D02*
X42714628Y-46159876D01*
X42714628Y-43279876D02*
X42714628Y-39008876D01*
X42674628Y-50407876D02*
X42674628Y-46159876D01*
X42674628Y-43279876D02*
X42674628Y-39031876D01*
X42634628Y-50383876D02*
X42634628Y-46159876D01*
X42634628Y-43279876D02*
X42634628Y-39055876D01*
X42594628Y-50360876D02*
X42594628Y-46159876D01*
X42594628Y-43279876D02*
X42594628Y-39078876D01*
X42554628Y-50336876D02*
X42554628Y-46159876D01*
X42554628Y-43279876D02*
X42554628Y-39102876D01*
X42514628Y-50311876D02*
X42514628Y-46159876D01*
X42514628Y-43279876D02*
X42514628Y-39127876D01*
X42474628Y-50286876D02*
X42474628Y-46159876D01*
X42474628Y-43279876D02*
X42474628Y-39152876D01*
X42434628Y-50261876D02*
X42434628Y-46159876D01*
X42434628Y-43279876D02*
X42434628Y-39177876D01*
X42394628Y-50235876D02*
X42394628Y-46159876D01*
X42394628Y-43279876D02*
X42394628Y-39203876D01*
X42354628Y-50209876D02*
X42354628Y-46159876D01*
X42354628Y-43279876D02*
X42354628Y-39229876D01*
X42314628Y-50182876D02*
X42314628Y-46159876D01*
X42314628Y-43279876D02*
X42314628Y-39256876D01*
X42274628Y-50155876D02*
X42274628Y-46159876D01*
X42274628Y-43279876D02*
X42274628Y-39283876D01*
X42234628Y-50128876D02*
X42234628Y-46159876D01*
X42234628Y-43279876D02*
X42234628Y-39310876D01*
X42194628Y-50100876D02*
X42194628Y-46159876D01*
X42194628Y-43279876D02*
X42194628Y-39338876D01*
X42154628Y-50072876D02*
X42154628Y-46159876D01*
X42154628Y-43279876D02*
X42154628Y-39366876D01*
X42114628Y-50043876D02*
X42114628Y-46159876D01*
X42114628Y-43279876D02*
X42114628Y-39395876D01*
X42074628Y-50014876D02*
X42074628Y-46159876D01*
X42074628Y-43279876D02*
X42074628Y-39424876D01*
X42034628Y-49984876D02*
X42034628Y-39454876D01*
X41994628Y-49954876D02*
X41994628Y-39484876D01*
X41954628Y-49924876D02*
X41954628Y-39514876D01*
X41914628Y-49893876D02*
X41914628Y-39545876D01*
X41874628Y-49861876D02*
X41874628Y-39577876D01*
X41834628Y-49829876D02*
X41834628Y-39609876D01*
X41794628Y-49797876D02*
X41794628Y-39641876D01*
X41754628Y-49763876D02*
X41754628Y-39675876D01*
X41714628Y-49730876D02*
X41714628Y-39708876D01*
X41674628Y-49696876D02*
X41674628Y-39742876D01*
X41634628Y-49661876D02*
X41634628Y-39777876D01*
X41594628Y-49626876D02*
X41594628Y-39812876D01*
X41554628Y-49590876D02*
X41554628Y-39848876D01*
X41514628Y-49553876D02*
X41514628Y-39885876D01*
X41474628Y-49516876D02*
X41474628Y-39922876D01*
X41434628Y-49479876D02*
X41434628Y-39959876D01*
X41394628Y-49440876D02*
X41394628Y-39998876D01*
X41354628Y-49401876D02*
X41354628Y-40037876D01*
X41314628Y-49362876D02*
X41314628Y-40076876D01*
X41274628Y-49321876D02*
X41274628Y-40117876D01*
X41234628Y-49280876D02*
X41234628Y-40158876D01*
X41194628Y-49238876D02*
X41194628Y-40200876D01*
X41154628Y-49196876D02*
X41154628Y-40242876D01*
X41114628Y-49153876D02*
X41114628Y-40285876D01*
X41074628Y-49109876D02*
X41074628Y-40329876D01*
X41034628Y-49064876D02*
X41034628Y-40374876D01*
X40994628Y-49018876D02*
X40994628Y-40420876D01*
X40954628Y-48972876D02*
X40954628Y-40466876D01*
X40914628Y-48924876D02*
X40914628Y-40514876D01*
X40874628Y-48876876D02*
X40874628Y-40562876D01*
X40834628Y-48827876D02*
X40834628Y-40611876D01*
X40794628Y-48776876D02*
X40794628Y-40662876D01*
X40754628Y-48725876D02*
X40754628Y-40713876D01*
X40714628Y-48673876D02*
X40714628Y-40765876D01*
X40674628Y-48619876D02*
X40674628Y-40819876D01*
X40634628Y-48565876D02*
X40634628Y-40873876D01*
X40594628Y-48509876D02*
X40594628Y-40929876D01*
X40554628Y-48452876D02*
X40554628Y-40986876D01*
X40514628Y-48394876D02*
X40514628Y-41044876D01*
X40474628Y-48334876D02*
X40474628Y-41104876D01*
X40434628Y-48273876D02*
X40434628Y-41165876D01*
X40394628Y-48210876D02*
X40394628Y-41228876D01*
X40354628Y-48146876D02*
X40354628Y-41292876D01*
X40314628Y-48080876D02*
X40314628Y-41358876D01*
X40274628Y-48012876D02*
X40274628Y-41426876D01*
X40234628Y-47942876D02*
X40234628Y-41496876D01*
X40194628Y-47871876D02*
X40194628Y-41567876D01*
X40154628Y-47797876D02*
X40154628Y-41641876D01*
X40114628Y-47721876D02*
X40114628Y-41717876D01*
X40074628Y-47642876D02*
X40074628Y-41796876D01*
X40034628Y-47561876D02*
X40034628Y-41877876D01*
X39994628Y-47477876D02*
X39994628Y-41961876D01*
X39954628Y-47389876D02*
X39954628Y-42049876D01*
X39914628Y-47298876D02*
X39914628Y-42140876D01*
X39874628Y-47203876D02*
X39874628Y-42235876D01*
X39834628Y-47104876D02*
X39834628Y-42334876D01*
X39794628Y-47000876D02*
X39794628Y-42438876D01*
X39754628Y-46890876D02*
X39754628Y-42548876D01*
X39714628Y-46774876D02*
X39714628Y-42664876D01*
X39674628Y-46650876D02*
X39674628Y-42788876D01*
X39634628Y-46517876D02*
X39634628Y-42921876D01*
X39594628Y-46372876D02*
X39594628Y-43066876D01*
X39554628Y-46213876D02*
X39554628Y-43225876D01*
X39514628Y-46034876D02*
X39514628Y-43404876D01*
X39474628Y-45826876D02*
X39474628Y-43612876D01*
X39434628Y-45569876D02*
X39434628Y-43869876D01*
X39394628Y-45194876D02*
X39394628Y-44244876D01*
X53080197Y-48434876D02*
X51780197Y-48434876D01*
X52430197Y-49084876D02*
X52430197Y-47784876D01*
%TO.C,J5*%
X58216245Y-28289426D02*
G75*
G02*
X59034628Y-28485876I29383J-1680450D01*
G01*
X59729581Y-29180788D02*
G75*
G02*
X59729628Y-30758876I-1483953J-789088D01*
G01*
X59034716Y-31453829D02*
G75*
G02*
X57456628Y-31453876I-789088J1483953D01*
G01*
X56761675Y-30758964D02*
G75*
G02*
X56761628Y-29180876I1483953J789088D01*
G01*
X57456916Y-28486524D02*
G75*
G02*
X58245628Y-28289876I788712J-1483352D01*
G01*
X59145628Y-32969876D02*
G75*
G03*
X59145628Y-32969876I-900000J0D01*
G01*
X54925628Y-29969876D02*
G75*
G03*
X54925628Y-29969876I-1680000J0D01*
G01*
X54145628Y-32969876D02*
G75*
G03*
X54145628Y-32969876I-900000J0D01*
G01*
X49925628Y-29969876D02*
G75*
G03*
X49925628Y-29969876I-1680000J0D01*
G01*
X49145628Y-32969876D02*
G75*
G03*
X49145628Y-32969876I-900000J0D01*
G01*
X44925628Y-29969876D02*
G75*
G03*
X44925628Y-29969876I-1680000J0D01*
G01*
X44145628Y-32969876D02*
G75*
G03*
X44145628Y-32969876I-900000J0D01*
G01*
X60805628Y-27469876D02*
X40684628Y-27469876D01*
X60805628Y-35029876D02*
X40684628Y-35029876D01*
X60805628Y-25909876D02*
X40684628Y-25909876D01*
X60805628Y-35029876D02*
X60805628Y-25909876D01*
X40684628Y-35029876D02*
X40684628Y-25909876D01*
X51970628Y-31038876D02*
X52064628Y-30945876D01*
X54255628Y-28753876D02*
X54314628Y-28695876D01*
X52175628Y-31244876D02*
X52234628Y-31185876D01*
X54425628Y-28993876D02*
X54519628Y-28900876D01*
X46970628Y-31038876D02*
X47064628Y-30945876D01*
X49255628Y-28753876D02*
X49314628Y-28695876D01*
X47175628Y-31244876D02*
X47234628Y-31185876D01*
X49425628Y-28993876D02*
X49519628Y-28900876D01*
X41970628Y-31038876D02*
X42064628Y-30945876D01*
X44255628Y-28753876D02*
X44314628Y-28695876D01*
X42175628Y-31244876D02*
X42234628Y-31185876D01*
X44425628Y-28993876D02*
X44519628Y-28900876D01*
X61045628Y-27409876D02*
X61045628Y-25669876D01*
X61045628Y-25669876D02*
X59545628Y-25669876D01*
%TO.C,U3*%
X60005628Y-51599876D02*
X60005628Y-49169876D01*
X56935628Y-49839876D02*
X56935628Y-51599876D01*
%TO.C,R10*%
X58708370Y-54242376D02*
X59182886Y-54242376D01*
X58708370Y-53197376D02*
X59182886Y-53197376D01*
%TO.C,R9*%
X55708370Y-54242376D02*
X56182886Y-54242376D01*
X55708370Y-53197376D02*
X56182886Y-53197376D01*
%TO.C,R8*%
X101899269Y-43339876D02*
X101591987Y-43339876D01*
X101899269Y-44099876D02*
X101591987Y-44099876D01*
%TO.C,L1*%
X62505628Y-53179876D02*
X61655628Y-53179876D01*
X61655628Y-46259876D02*
X62505628Y-46259876D01*
X67205628Y-53179876D02*
X66405628Y-53179876D01*
X67865628Y-46869876D02*
X67865628Y-52519876D01*
X66405628Y-46259876D02*
X67255628Y-46259876D01*
X61045628Y-52569876D02*
X61045628Y-46869876D01*
X67255628Y-46259876D02*
G75*
G02*
X67865628Y-46869876I0J-610000D01*
G01*
X67865628Y-52519876D02*
G75*
G02*
X67205628Y-53179876I-660000J0D01*
G01*
X61045628Y-46869876D02*
G75*
G02*
X61655628Y-46259876I610000J0D01*
G01*
X61655628Y-53179876D02*
G75*
G02*
X61045628Y-52569876I0J610000D01*
G01*
%TO.C,C14*%
X55787792Y-55279876D02*
X56003464Y-55279876D01*
X55787792Y-54559876D02*
X56003464Y-54559876D01*
%TO.C,C13*%
X58756880Y-43484876D02*
X58234376Y-43484876D01*
X58756880Y-44954876D02*
X58234376Y-44954876D01*
%TO.C,C12*%
X58756880Y-45484876D02*
X58234376Y-45484876D01*
X58756880Y-46954876D02*
X58234376Y-46954876D01*
%TO.C,C11*%
X59853464Y-47609876D02*
X59637792Y-47609876D01*
X59853464Y-48329876D02*
X59637792Y-48329876D01*
%TO.C,C10*%
X56200628Y-51051128D02*
X56200628Y-50528624D01*
X54730628Y-51051128D02*
X54730628Y-50528624D01*
%TO.C,C9*%
X54230628Y-51051128D02*
X54230628Y-50528624D01*
X52760628Y-51051128D02*
X52760628Y-50528624D01*
%TO.C,C3*%
X98885628Y-42112040D02*
X98885628Y-42327712D01*
X99605628Y-42112040D02*
X99605628Y-42327712D01*
%TO.C,C1*%
X93385628Y-42112040D02*
X93385628Y-42327712D01*
X94105628Y-42112040D02*
X94105628Y-42327712D01*
%TO.C,J4*%
X126795628Y-36389876D02*
X126795628Y-39049876D01*
X134475628Y-36389876D02*
X126795628Y-36389876D01*
X134475628Y-39049876D02*
X126795628Y-39049876D01*
X134475628Y-36389876D02*
X134475628Y-39049876D01*
X135745628Y-36389876D02*
X137075628Y-36389876D01*
X137075628Y-36389876D02*
X137075628Y-37719876D01*
%TO.C,J3*%
X129575628Y-41439876D02*
X126915628Y-41439876D01*
X129575628Y-54199876D02*
X129575628Y-41439876D01*
X126915628Y-54199876D02*
X126915628Y-41439876D01*
X129575628Y-54199876D02*
X126915628Y-54199876D01*
X129575628Y-55469876D02*
X129575628Y-56799876D01*
X129575628Y-56799876D02*
X128245628Y-56799876D01*
%TO.C,Y1*%
X98495628Y-43869876D02*
X98495628Y-40569876D01*
X98495628Y-40569876D02*
X94495628Y-40569876D01*
%TO.C,U2*%
X57605628Y-111609876D02*
X137885628Y-111609876D01*
X137885628Y-111609876D02*
X137885628Y-75329876D01*
X137885628Y-75329876D02*
X58405628Y-75329876D01*
X57605628Y-75329876D02*
X57605628Y-111609876D01*
X57615628Y-75329876D02*
X58405628Y-75329876D01*
X64245628Y-74969876D02*
X67245628Y-74969876D01*
X65945628Y-85969876D02*
X129445628Y-85969876D01*
X65445908Y-100469196D02*
X65445908Y-86469876D01*
X129446288Y-100969876D02*
X65945628Y-100969876D01*
X129945628Y-86469876D02*
X129945628Y-100469876D01*
X60745628Y-80969876D02*
X133745628Y-80969876D01*
X133745628Y-80969876D02*
X133745628Y-105969876D01*
X133745628Y-105969876D02*
X60745628Y-105969876D01*
X60745628Y-105969876D02*
X60745628Y-80969876D01*
X65946288Y-85968336D02*
G75*
G03*
X65445908Y-86468716I0J-500380D01*
G01*
X65445908Y-100469196D02*
G75*
G03*
X65946288Y-100969576I500380J0D01*
G01*
X129446288Y-100969576D02*
G75*
G03*
X129946668Y-100469196I0J500380D01*
G01*
X129945628Y-86469876D02*
G75*
G03*
X129445628Y-85969876I-500000J0D01*
G01*
%TO.C,RV1*%
X58320628Y-69439876D02*
X68090628Y-69439876D01*
X58320628Y-74509876D02*
X68090628Y-74509876D01*
X58320628Y-69439876D02*
X58320628Y-74509876D01*
X68090628Y-69439876D02*
X68090628Y-74509876D01*
%TO.C,R7*%
X99365628Y-37123517D02*
X99365628Y-36816235D01*
X100125628Y-37123517D02*
X100125628Y-36816235D01*
%TO.C,R6*%
X69115628Y-36873517D02*
X69115628Y-36566235D01*
X69875628Y-36873517D02*
X69875628Y-36566235D01*
%TO.C,R5*%
X130365628Y-34623517D02*
X130365628Y-34316235D01*
X131125628Y-34623517D02*
X131125628Y-34316235D01*
%TO.C,R4*%
X128375628Y-34306235D02*
X128375628Y-34613517D01*
X127615628Y-34306235D02*
X127615628Y-34613517D01*
%TO.C,R2*%
X100865628Y-74123517D02*
X100865628Y-73816235D01*
X101625628Y-74123517D02*
X101625628Y-73816235D01*
%TO.C,R1*%
X99899269Y-44099876D02*
X99591987Y-44099876D01*
X99899269Y-43339876D02*
X99591987Y-43339876D01*
%TO.C,C8*%
X100135628Y-55327712D02*
X100135628Y-55112040D01*
X100855628Y-55327712D02*
X100855628Y-55112040D01*
%TO.C,C7*%
X86137792Y-63109876D02*
X86353464Y-63109876D01*
X86137792Y-63829876D02*
X86353464Y-63829876D01*
%TO.C,C6*%
X98103464Y-63579876D02*
X97887792Y-63579876D01*
X98103464Y-62859876D02*
X97887792Y-62859876D01*
%TO.C,C5*%
X96855628Y-63612040D02*
X96855628Y-63827712D01*
X96135628Y-63612040D02*
X96135628Y-63827712D01*
%TO.C,C4*%
X100605628Y-45112040D02*
X100605628Y-45327712D01*
X99885628Y-45112040D02*
X99885628Y-45327712D01*
%TO.C,U1*%
X84675628Y-46939876D02*
X83975628Y-46939876D01*
X83975628Y-46939876D02*
X83975628Y-47639876D01*
X97495628Y-46939876D02*
X98195628Y-46939876D01*
X98195628Y-46939876D02*
X98195628Y-47639876D01*
X84675628Y-61159876D02*
X83975628Y-61159876D01*
X83975628Y-61159876D02*
X83975628Y-60459876D01*
X97495628Y-61159876D02*
X98195628Y-61159876D01*
X98195628Y-61159876D02*
X98195628Y-60459876D01*
X98195628Y-60459876D02*
X99485628Y-60459876D01*
%TO.C,R18*%
X92625628Y-36816235D02*
X92625628Y-37123517D01*
X91865628Y-36816235D02*
X91865628Y-37123517D01*
%TO.C,R16*%
X105375628Y-36816235D02*
X105375628Y-37123517D01*
X104615628Y-36816235D02*
X104615628Y-37123517D01*
%TO.C,R3*%
X116091987Y-36089876D02*
X116399269Y-36089876D01*
X116091987Y-36849876D02*
X116399269Y-36849876D01*
%TO.C,D1*%
X120795628Y-35734876D02*
X118510628Y-35734876D01*
X118510628Y-35734876D02*
X118510628Y-37204876D01*
X118510628Y-37204876D02*
X120795628Y-37204876D01*
%TO.C,J2*%
X67995628Y-36399876D02*
X67495628Y-35399876D01*
X66995628Y-36399876D02*
X67995628Y-36399876D01*
X67495628Y-35399876D02*
X66995628Y-36399876D01*
X93675628Y-33699876D02*
X93675628Y-35009876D01*
X93675628Y-33699876D02*
X93675628Y-33699876D01*
X119665628Y-33699876D02*
X93675628Y-33699876D01*
X119665628Y-27199876D02*
X119665628Y-33699876D01*
X63585628Y-27199876D02*
X119665628Y-27199876D01*
X63585628Y-33699876D02*
X63585628Y-27199876D01*
X89575628Y-33699876D02*
X63585628Y-33699876D01*
X89575628Y-35009876D02*
X89575628Y-33699876D01*
X120965628Y-35009876D02*
X62285628Y-35009876D01*
X120965628Y-25889876D02*
X120965628Y-35009876D01*
X62285628Y-25889876D02*
X120965628Y-25889876D01*
X62285628Y-35009876D02*
X62285628Y-25889876D01*
%TO.C,C2*%
D13*
X79853961Y-53877018D02*
X79806342Y-53924637D01*
X79663485Y-53972256D01*
X79568247Y-53972256D01*
X79425389Y-53924637D01*
X79330151Y-53829399D01*
X79282532Y-53734161D01*
X79234913Y-53543685D01*
X79234913Y-53400828D01*
X79282532Y-53210352D01*
X79330151Y-53115114D01*
X79425389Y-53019876D01*
X79568247Y-52972256D01*
X79663485Y-52972256D01*
X79806342Y-53019876D01*
X79853961Y-53067495D01*
X80234913Y-53067495D02*
X80282532Y-53019876D01*
X80377770Y-52972256D01*
X80615866Y-52972256D01*
X80711104Y-53019876D01*
X80758723Y-53067495D01*
X80806342Y-53162733D01*
X80806342Y-53257971D01*
X80758723Y-53400828D01*
X80187294Y-53972256D01*
X80806342Y-53972256D01*
%TO.C,J9*%
X123118008Y-27553209D02*
X123832294Y-27553209D01*
X123975151Y-27600828D01*
X124070389Y-27696066D01*
X124118008Y-27838923D01*
X124118008Y-27934161D01*
X124118008Y-27029399D02*
X124118008Y-26838923D01*
X124070389Y-26743685D01*
X124022770Y-26696066D01*
X123879913Y-26600828D01*
X123689437Y-26553209D01*
X123308485Y-26553209D01*
X123213247Y-26600828D01*
X123165628Y-26648447D01*
X123118008Y-26743685D01*
X123118008Y-26934161D01*
X123165628Y-27029399D01*
X123213247Y-27077018D01*
X123308485Y-27124637D01*
X123546580Y-27124637D01*
X123641818Y-27077018D01*
X123689437Y-27029399D01*
X123737056Y-26934161D01*
X123737056Y-26743685D01*
X123689437Y-26648447D01*
X123641818Y-26600828D01*
X123546580Y-26553209D01*
%TO.C,J8*%
X46328294Y-127614256D02*
X46328294Y-128328542D01*
X46280675Y-128471399D01*
X46185437Y-128566637D01*
X46042580Y-128614256D01*
X45947342Y-128614256D01*
X46947342Y-128042828D02*
X46852104Y-127995209D01*
X46804485Y-127947590D01*
X46756866Y-127852352D01*
X46756866Y-127804733D01*
X46804485Y-127709495D01*
X46852104Y-127661876D01*
X46947342Y-127614256D01*
X47137818Y-127614256D01*
X47233056Y-127661876D01*
X47280675Y-127709495D01*
X47328294Y-127804733D01*
X47328294Y-127852352D01*
X47280675Y-127947590D01*
X47233056Y-127995209D01*
X47137818Y-128042828D01*
X46947342Y-128042828D01*
X46852104Y-128090447D01*
X46804485Y-128138066D01*
X46756866Y-128233304D01*
X46756866Y-128423780D01*
X46804485Y-128519018D01*
X46852104Y-128566637D01*
X46947342Y-128614256D01*
X47137818Y-128614256D01*
X47233056Y-128566637D01*
X47280675Y-128519018D01*
X47328294Y-128423780D01*
X47328294Y-128233304D01*
X47280675Y-128138066D01*
X47233056Y-128090447D01*
X47137818Y-128042828D01*
%TO.C,J7*%
X71868008Y-94553209D02*
X72582294Y-94553209D01*
X72725151Y-94600828D01*
X72820389Y-94696066D01*
X72868008Y-94838923D01*
X72868008Y-94934161D01*
X71868008Y-94172256D02*
X71868008Y-93505590D01*
X72868008Y-93934161D01*
%TO.C,J1*%
X118932294Y-40072256D02*
X118932294Y-40786542D01*
X118884675Y-40929399D01*
X118789437Y-41024637D01*
X118646580Y-41072256D01*
X118551342Y-41072256D01*
X119932294Y-41072256D02*
X119360866Y-41072256D01*
X119646580Y-41072256D02*
X119646580Y-40072256D01*
X119551342Y-40215114D01*
X119456104Y-40310352D01*
X119360866Y-40357971D01*
%TO.C,J6*%
X48912294Y-51922256D02*
X48912294Y-52636542D01*
X48864675Y-52779399D01*
X48769437Y-52874637D01*
X48626580Y-52922256D01*
X48531342Y-52922256D01*
X49817056Y-51922256D02*
X49626580Y-51922256D01*
X49531342Y-51969876D01*
X49483723Y-52017495D01*
X49388485Y-52160352D01*
X49340866Y-52350828D01*
X49340866Y-52731780D01*
X49388485Y-52827018D01*
X49436104Y-52874637D01*
X49531342Y-52922256D01*
X49721818Y-52922256D01*
X49817056Y-52874637D01*
X49864675Y-52827018D01*
X49912294Y-52731780D01*
X49912294Y-52493685D01*
X49864675Y-52398447D01*
X49817056Y-52350828D01*
X49721818Y-52303209D01*
X49531342Y-52303209D01*
X49436104Y-52350828D01*
X49388485Y-52398447D01*
X49340866Y-52493685D01*
%TO.C,SW7*%
X125221818Y-124624637D02*
X125364675Y-124672256D01*
X125602770Y-124672256D01*
X125698008Y-124624637D01*
X125745628Y-124577018D01*
X125793247Y-124481780D01*
X125793247Y-124386542D01*
X125745628Y-124291304D01*
X125698008Y-124243685D01*
X125602770Y-124196066D01*
X125412294Y-124148447D01*
X125317056Y-124100828D01*
X125269437Y-124053209D01*
X125221818Y-123957971D01*
X125221818Y-123862733D01*
X125269437Y-123767495D01*
X125317056Y-123719876D01*
X125412294Y-123672256D01*
X125650389Y-123672256D01*
X125793247Y-123719876D01*
X126221818Y-124672256D02*
X126221818Y-123672256D01*
X126650389Y-124672256D02*
X126650389Y-124148447D01*
X126602770Y-124053209D01*
X126507532Y-124005590D01*
X126364675Y-124005590D01*
X126269437Y-124053209D01*
X126221818Y-124100828D01*
X127555151Y-124005590D02*
X127555151Y-124672256D01*
X127126580Y-124005590D02*
X127126580Y-124529399D01*
X127174199Y-124624637D01*
X127269437Y-124672256D01*
X127412294Y-124672256D01*
X127507532Y-124624637D01*
X127555151Y-124577018D01*
X127888485Y-124005590D02*
X128269437Y-124005590D01*
X128031342Y-124672256D02*
X128031342Y-123815114D01*
X128078961Y-123719876D01*
X128174199Y-123672256D01*
X128269437Y-123672256D01*
X128459913Y-124005590D02*
X128840866Y-124005590D01*
X128602770Y-124672256D02*
X128602770Y-123815114D01*
X128650389Y-123719876D01*
X128745628Y-123672256D01*
X128840866Y-123672256D01*
X129317056Y-124672256D02*
X129221818Y-124624637D01*
X129174199Y-124529399D01*
X129174199Y-123672256D01*
X130078961Y-124624637D02*
X129983723Y-124672256D01*
X129793247Y-124672256D01*
X129698008Y-124624637D01*
X129650389Y-124529399D01*
X129650389Y-124148447D01*
X129698008Y-124053209D01*
X129793247Y-124005590D01*
X129983723Y-124005590D01*
X130078961Y-124053209D01*
X130126580Y-124148447D01*
X130126580Y-124243685D01*
X129650389Y-124338923D01*
X131269437Y-123624637D02*
X130412294Y-124910352D01*
X132174199Y-124672256D02*
X131840866Y-124196066D01*
X131602770Y-124672256D02*
X131602770Y-123672256D01*
X131983723Y-123672256D01*
X132078961Y-123719876D01*
X132126580Y-123767495D01*
X132174199Y-123862733D01*
X132174199Y-124005590D01*
X132126580Y-124100828D01*
X132078961Y-124148447D01*
X131983723Y-124196066D01*
X131602770Y-124196066D01*
X132983723Y-124624637D02*
X132888485Y-124672256D01*
X132698008Y-124672256D01*
X132602770Y-124624637D01*
X132555151Y-124529399D01*
X132555151Y-124148447D01*
X132602770Y-124053209D01*
X132698008Y-124005590D01*
X132888485Y-124005590D01*
X132983723Y-124053209D01*
X133031342Y-124148447D01*
X133031342Y-124243685D01*
X132555151Y-124338923D01*
X133459913Y-124005590D02*
X133459913Y-125005590D01*
X133459913Y-124053209D02*
X133555151Y-124005590D01*
X133745628Y-124005590D01*
X133840866Y-124053209D01*
X133888485Y-124100828D01*
X133936104Y-124196066D01*
X133936104Y-124481780D01*
X133888485Y-124577018D01*
X133840866Y-124624637D01*
X133745628Y-124672256D01*
X133555151Y-124672256D01*
X133459913Y-124624637D01*
X134745628Y-124624637D02*
X134650389Y-124672256D01*
X134459913Y-124672256D01*
X134364675Y-124624637D01*
X134317056Y-124529399D01*
X134317056Y-124148447D01*
X134364675Y-124053209D01*
X134459913Y-124005590D01*
X134650389Y-124005590D01*
X134745628Y-124053209D01*
X134793247Y-124148447D01*
X134793247Y-124243685D01*
X134317056Y-124338923D01*
X135650389Y-124672256D02*
X135650389Y-124148447D01*
X135602770Y-124053209D01*
X135507532Y-124005590D01*
X135317056Y-124005590D01*
X135221818Y-124053209D01*
X135650389Y-124624637D02*
X135555151Y-124672256D01*
X135317056Y-124672256D01*
X135221818Y-124624637D01*
X135174199Y-124529399D01*
X135174199Y-124434161D01*
X135221818Y-124338923D01*
X135317056Y-124291304D01*
X135555151Y-124291304D01*
X135650389Y-124243685D01*
X135983723Y-124005590D02*
X136364675Y-124005590D01*
X136126580Y-123672256D02*
X136126580Y-124529399D01*
X136174199Y-124624637D01*
X136269437Y-124672256D01*
X136364675Y-124672256D01*
%TO.C,SW6*%
X114412294Y-124624637D02*
X114555151Y-124672256D01*
X114793247Y-124672256D01*
X114888485Y-124624637D01*
X114936104Y-124577018D01*
X114983723Y-124481780D01*
X114983723Y-124386542D01*
X114936104Y-124291304D01*
X114888485Y-124243685D01*
X114793247Y-124196066D01*
X114602770Y-124148447D01*
X114507532Y-124100828D01*
X114459913Y-124053209D01*
X114412294Y-123957971D01*
X114412294Y-123862733D01*
X114459913Y-123767495D01*
X114507532Y-123719876D01*
X114602770Y-123672256D01*
X114840866Y-123672256D01*
X114983723Y-123719876D01*
X115269437Y-124005590D02*
X115650389Y-124005590D01*
X115412294Y-123672256D02*
X115412294Y-124529399D01*
X115459913Y-124624637D01*
X115555151Y-124672256D01*
X115650389Y-124672256D01*
X116126580Y-124672256D02*
X116031342Y-124624637D01*
X115983723Y-124577018D01*
X115936104Y-124481780D01*
X115936104Y-124196066D01*
X115983723Y-124100828D01*
X116031342Y-124053209D01*
X116126580Y-124005590D01*
X116269437Y-124005590D01*
X116364675Y-124053209D01*
X116412294Y-124100828D01*
X116459913Y-124196066D01*
X116459913Y-124481780D01*
X116412294Y-124577018D01*
X116364675Y-124624637D01*
X116269437Y-124672256D01*
X116126580Y-124672256D01*
X116888485Y-124005590D02*
X116888485Y-125005590D01*
X116888485Y-124053209D02*
X116983723Y-124005590D01*
X117174199Y-124005590D01*
X117269437Y-124053209D01*
X117317056Y-124100828D01*
X117364675Y-124196066D01*
X117364675Y-124481780D01*
X117317056Y-124577018D01*
X117269437Y-124624637D01*
X117174199Y-124672256D01*
X116983723Y-124672256D01*
X116888485Y-124624637D01*
X118507532Y-123624637D02*
X117650389Y-124910352D01*
X118840866Y-124148447D02*
X119174199Y-124148447D01*
X119317056Y-124672256D02*
X118840866Y-124672256D01*
X118840866Y-123672256D01*
X119317056Y-123672256D01*
X119745628Y-124005590D02*
X119745628Y-124862733D01*
X119698008Y-124957971D01*
X119602770Y-125005590D01*
X119555151Y-125005590D01*
X119745628Y-123672256D02*
X119698008Y-123719876D01*
X119745628Y-123767495D01*
X119793247Y-123719876D01*
X119745628Y-123672256D01*
X119745628Y-123767495D01*
X120602770Y-124624637D02*
X120507532Y-124672256D01*
X120317056Y-124672256D01*
X120221818Y-124624637D01*
X120174199Y-124529399D01*
X120174199Y-124148447D01*
X120221818Y-124053209D01*
X120317056Y-124005590D01*
X120507532Y-124005590D01*
X120602770Y-124053209D01*
X120650389Y-124148447D01*
X120650389Y-124243685D01*
X120174199Y-124338923D01*
X121507532Y-124624637D02*
X121412294Y-124672256D01*
X121221818Y-124672256D01*
X121126580Y-124624637D01*
X121078961Y-124577018D01*
X121031342Y-124481780D01*
X121031342Y-124196066D01*
X121078961Y-124100828D01*
X121126580Y-124053209D01*
X121221818Y-124005590D01*
X121412294Y-124005590D01*
X121507532Y-124053209D01*
X121793247Y-124005590D02*
X122174199Y-124005590D01*
X121936104Y-123672256D02*
X121936104Y-124529399D01*
X121983723Y-124624637D01*
X122078961Y-124672256D01*
X122174199Y-124672256D01*
%TO.C,SW5*%
X104340866Y-124672256D02*
X104340866Y-123672256D01*
X104912294Y-124672256D01*
X104912294Y-123672256D01*
X105769437Y-124624637D02*
X105674199Y-124672256D01*
X105483723Y-124672256D01*
X105388485Y-124624637D01*
X105340866Y-124529399D01*
X105340866Y-124148447D01*
X105388485Y-124053209D01*
X105483723Y-124005590D01*
X105674199Y-124005590D01*
X105769437Y-124053209D01*
X105817056Y-124148447D01*
X105817056Y-124243685D01*
X105340866Y-124338923D01*
X106150389Y-124672256D02*
X106674199Y-124005590D01*
X106150389Y-124005590D02*
X106674199Y-124672256D01*
X106912294Y-124005590D02*
X107293247Y-124005590D01*
X107055151Y-123672256D02*
X107055151Y-124529399D01*
X107102770Y-124624637D01*
X107198008Y-124672256D01*
X107293247Y-124672256D01*
%TO.C,SW4*%
X92412294Y-124148447D02*
X92078961Y-124148447D01*
X92078961Y-124672256D02*
X92078961Y-123672256D01*
X92555151Y-123672256D01*
X92840866Y-124005590D02*
X93031342Y-124672256D01*
X93221818Y-124196066D01*
X93412294Y-124672256D01*
X93602770Y-124005590D01*
X94412294Y-124672256D02*
X94412294Y-123672256D01*
X94412294Y-124624637D02*
X94317056Y-124672256D01*
X94126580Y-124672256D01*
X94031342Y-124624637D01*
X93983723Y-124577018D01*
X93936104Y-124481780D01*
X93936104Y-124196066D01*
X93983723Y-124100828D01*
X94031342Y-124053209D01*
X94126580Y-124005590D01*
X94317056Y-124005590D01*
X94412294Y-124053209D01*
%TO.C,SW3*%
X76626580Y-124672256D02*
X76626580Y-123672256D01*
X77007532Y-123672256D01*
X77102770Y-123719876D01*
X77150389Y-123767495D01*
X77198008Y-123862733D01*
X77198008Y-124005590D01*
X77150389Y-124100828D01*
X77102770Y-124148447D01*
X77007532Y-124196066D01*
X76626580Y-124196066D01*
X77769437Y-124672256D02*
X77674199Y-124624637D01*
X77626580Y-124529399D01*
X77626580Y-123672256D01*
X78578961Y-124672256D02*
X78578961Y-124148447D01*
X78531342Y-124053209D01*
X78436104Y-124005590D01*
X78245628Y-124005590D01*
X78150389Y-124053209D01*
X78578961Y-124624637D02*
X78483723Y-124672256D01*
X78245628Y-124672256D01*
X78150389Y-124624637D01*
X78102770Y-124529399D01*
X78102770Y-124434161D01*
X78150389Y-124338923D01*
X78245628Y-124291304D01*
X78483723Y-124291304D01*
X78578961Y-124243685D01*
X78959913Y-124005590D02*
X79198008Y-124672256D01*
X79436104Y-124005590D02*
X79198008Y-124672256D01*
X79102770Y-124910352D01*
X79055151Y-124957971D01*
X78959913Y-125005590D01*
X80531342Y-123624637D02*
X79674199Y-124910352D01*
X80864675Y-124672256D02*
X80864675Y-123672256D01*
X81245628Y-123672256D01*
X81340866Y-123719876D01*
X81388485Y-123767495D01*
X81436104Y-123862733D01*
X81436104Y-124005590D01*
X81388485Y-124100828D01*
X81340866Y-124148447D01*
X81245628Y-124196066D01*
X80864675Y-124196066D01*
X82293247Y-124672256D02*
X82293247Y-124148447D01*
X82245628Y-124053209D01*
X82150389Y-124005590D01*
X81959913Y-124005590D01*
X81864675Y-124053209D01*
X82293247Y-124624637D02*
X82198008Y-124672256D01*
X81959913Y-124672256D01*
X81864675Y-124624637D01*
X81817056Y-124529399D01*
X81817056Y-124434161D01*
X81864675Y-124338923D01*
X81959913Y-124291304D01*
X82198008Y-124291304D01*
X82293247Y-124243685D01*
X83198008Y-124005590D02*
X83198008Y-124672256D01*
X82769437Y-124005590D02*
X82769437Y-124529399D01*
X82817056Y-124624637D01*
X82912294Y-124672256D01*
X83055151Y-124672256D01*
X83150389Y-124624637D01*
X83198008Y-124577018D01*
X83626580Y-124624637D02*
X83721818Y-124672256D01*
X83912294Y-124672256D01*
X84007532Y-124624637D01*
X84055151Y-124529399D01*
X84055151Y-124481780D01*
X84007532Y-124386542D01*
X83912294Y-124338923D01*
X83769437Y-124338923D01*
X83674199Y-124291304D01*
X83626580Y-124196066D01*
X83626580Y-124148447D01*
X83674199Y-124053209D01*
X83769437Y-124005590D01*
X83912294Y-124005590D01*
X84007532Y-124053209D01*
X84864675Y-124624637D02*
X84769437Y-124672256D01*
X84578961Y-124672256D01*
X84483723Y-124624637D01*
X84436104Y-124529399D01*
X84436104Y-124148447D01*
X84483723Y-124053209D01*
X84578961Y-124005590D01*
X84769437Y-124005590D01*
X84864675Y-124053209D01*
X84912294Y-124148447D01*
X84912294Y-124243685D01*
X84436104Y-124338923D01*
%TO.C,SW1*%
X67602770Y-124672256D02*
X67269437Y-124196066D01*
X67031342Y-124672256D02*
X67031342Y-123672256D01*
X67412294Y-123672256D01*
X67507532Y-123719876D01*
X67555151Y-123767495D01*
X67602770Y-123862733D01*
X67602770Y-124005590D01*
X67555151Y-124100828D01*
X67507532Y-124148447D01*
X67412294Y-124196066D01*
X67031342Y-124196066D01*
X68412294Y-124624637D02*
X68317056Y-124672256D01*
X68126580Y-124672256D01*
X68031342Y-124624637D01*
X67983723Y-124529399D01*
X67983723Y-124148447D01*
X68031342Y-124053209D01*
X68126580Y-124005590D01*
X68317056Y-124005590D01*
X68412294Y-124053209D01*
X68459913Y-124148447D01*
X68459913Y-124243685D01*
X67983723Y-124338923D01*
X68793247Y-124005590D02*
X68983723Y-124672256D01*
X69174199Y-124196066D01*
X69364675Y-124672256D01*
X69555151Y-124005590D01*
%TO.C,SW2*%
X54364675Y-124672256D02*
X54364675Y-123672256D01*
X54745628Y-123672256D01*
X54840866Y-123719876D01*
X54888485Y-123767495D01*
X54936104Y-123862733D01*
X54936104Y-124005590D01*
X54888485Y-124100828D01*
X54840866Y-124148447D01*
X54745628Y-124196066D01*
X54364675Y-124196066D01*
X55364675Y-124672256D02*
X55364675Y-124005590D01*
X55364675Y-124196066D02*
X55412294Y-124100828D01*
X55459913Y-124053209D01*
X55555151Y-124005590D01*
X55650389Y-124005590D01*
X56364675Y-124624637D02*
X56269437Y-124672256D01*
X56078961Y-124672256D01*
X55983723Y-124624637D01*
X55936104Y-124529399D01*
X55936104Y-124148447D01*
X55983723Y-124053209D01*
X56078961Y-124005590D01*
X56269437Y-124005590D01*
X56364675Y-124053209D01*
X56412294Y-124148447D01*
X56412294Y-124243685D01*
X55936104Y-124338923D01*
X56745628Y-124005590D02*
X56983723Y-124672256D01*
X57221818Y-124005590D01*
%TO.C,RN6*%
X88870008Y-67792352D02*
X88393818Y-68125685D01*
X88870008Y-68363780D02*
X87870008Y-68363780D01*
X87870008Y-67982828D01*
X87917628Y-67887590D01*
X87965247Y-67839971D01*
X88060485Y-67792352D01*
X88203342Y-67792352D01*
X88298580Y-67839971D01*
X88346199Y-67887590D01*
X88393818Y-67982828D01*
X88393818Y-68363780D01*
X88870008Y-67363780D02*
X87870008Y-67363780D01*
X88870008Y-66792352D01*
X87870008Y-66792352D01*
X87870008Y-65887590D02*
X87870008Y-66078066D01*
X87917628Y-66173304D01*
X87965247Y-66220923D01*
X88108104Y-66316161D01*
X88298580Y-66363780D01*
X88679532Y-66363780D01*
X88774770Y-66316161D01*
X88822389Y-66268542D01*
X88870008Y-66173304D01*
X88870008Y-65982828D01*
X88822389Y-65887590D01*
X88774770Y-65839971D01*
X88679532Y-65792352D01*
X88441437Y-65792352D01*
X88346199Y-65839971D01*
X88298580Y-65887590D01*
X88250961Y-65982828D01*
X88250961Y-66173304D01*
X88298580Y-66268542D01*
X88346199Y-66316161D01*
X88441437Y-66363780D01*
%TO.C,RN5*%
X91410008Y-67792352D02*
X90933818Y-68125685D01*
X91410008Y-68363780D02*
X90410008Y-68363780D01*
X90410008Y-67982828D01*
X90457628Y-67887590D01*
X90505247Y-67839971D01*
X90600485Y-67792352D01*
X90743342Y-67792352D01*
X90838580Y-67839971D01*
X90886199Y-67887590D01*
X90933818Y-67982828D01*
X90933818Y-68363780D01*
X91410008Y-67363780D02*
X90410008Y-67363780D01*
X91410008Y-66792352D01*
X90410008Y-66792352D01*
X90410008Y-65839971D02*
X90410008Y-66316161D01*
X90886199Y-66363780D01*
X90838580Y-66316161D01*
X90790961Y-66220923D01*
X90790961Y-65982828D01*
X90838580Y-65887590D01*
X90886199Y-65839971D01*
X90981437Y-65792352D01*
X91219532Y-65792352D01*
X91314770Y-65839971D01*
X91362389Y-65887590D01*
X91410008Y-65982828D01*
X91410008Y-66220923D01*
X91362389Y-66316161D01*
X91314770Y-66363780D01*
%TO.C,RN4*%
X77005151Y-50472256D02*
X76671818Y-49996066D01*
X76433723Y-50472256D02*
X76433723Y-49472256D01*
X76814675Y-49472256D01*
X76909913Y-49519876D01*
X76957532Y-49567495D01*
X77005151Y-49662733D01*
X77005151Y-49805590D01*
X76957532Y-49900828D01*
X76909913Y-49948447D01*
X76814675Y-49996066D01*
X76433723Y-49996066D01*
X77433723Y-50472256D02*
X77433723Y-49472256D01*
X78005151Y-50472256D01*
X78005151Y-49472256D01*
X78909913Y-49805590D02*
X78909913Y-50472256D01*
X78671818Y-49424637D02*
X78433723Y-50138923D01*
X79052770Y-50138923D01*
%TO.C,RN3*%
X89886008Y-41122352D02*
X89409818Y-41455685D01*
X89886008Y-41693780D02*
X88886008Y-41693780D01*
X88886008Y-41312828D01*
X88933628Y-41217590D01*
X88981247Y-41169971D01*
X89076485Y-41122352D01*
X89219342Y-41122352D01*
X89314580Y-41169971D01*
X89362199Y-41217590D01*
X89409818Y-41312828D01*
X89409818Y-41693780D01*
X89886008Y-40693780D02*
X88886008Y-40693780D01*
X89886008Y-40122352D01*
X88886008Y-40122352D01*
X88886008Y-39741399D02*
X88886008Y-39122352D01*
X89266961Y-39455685D01*
X89266961Y-39312828D01*
X89314580Y-39217590D01*
X89362199Y-39169971D01*
X89457437Y-39122352D01*
X89695532Y-39122352D01*
X89790770Y-39169971D01*
X89838389Y-39217590D01*
X89886008Y-39312828D01*
X89886008Y-39598542D01*
X89838389Y-39693780D01*
X89790770Y-39741399D01*
%TO.C,RN2*%
X103080151Y-58522256D02*
X102746818Y-58046066D01*
X102508723Y-58522256D02*
X102508723Y-57522256D01*
X102889675Y-57522256D01*
X102984913Y-57569876D01*
X103032532Y-57617495D01*
X103080151Y-57712733D01*
X103080151Y-57855590D01*
X103032532Y-57950828D01*
X102984913Y-57998447D01*
X102889675Y-58046066D01*
X102508723Y-58046066D01*
X103508723Y-58522256D02*
X103508723Y-57522256D01*
X104080151Y-58522256D01*
X104080151Y-57522256D01*
X104508723Y-57617495D02*
X104556342Y-57569876D01*
X104651580Y-57522256D01*
X104889675Y-57522256D01*
X104984913Y-57569876D01*
X105032532Y-57617495D01*
X105080151Y-57712733D01*
X105080151Y-57807971D01*
X105032532Y-57950828D01*
X104461104Y-58522256D01*
X105080151Y-58522256D01*
%TO.C,RN1*%
X92426008Y-41122352D02*
X91949818Y-41455685D01*
X92426008Y-41693780D02*
X91426008Y-41693780D01*
X91426008Y-41312828D01*
X91473628Y-41217590D01*
X91521247Y-41169971D01*
X91616485Y-41122352D01*
X91759342Y-41122352D01*
X91854580Y-41169971D01*
X91902199Y-41217590D01*
X91949818Y-41312828D01*
X91949818Y-41693780D01*
X92426008Y-40693780D02*
X91426008Y-40693780D01*
X92426008Y-40122352D01*
X91426008Y-40122352D01*
X92426008Y-39122352D02*
X92426008Y-39693780D01*
X92426008Y-39408066D02*
X91426008Y-39408066D01*
X91568866Y-39503304D01*
X91664104Y-39598542D01*
X91711723Y-39693780D01*
%TO.C,C15*%
X45352770Y-52827018D02*
X45305151Y-52874637D01*
X45162294Y-52922256D01*
X45067056Y-52922256D01*
X44924199Y-52874637D01*
X44828961Y-52779399D01*
X44781342Y-52684161D01*
X44733723Y-52493685D01*
X44733723Y-52350828D01*
X44781342Y-52160352D01*
X44828961Y-52065114D01*
X44924199Y-51969876D01*
X45067056Y-51922256D01*
X45162294Y-51922256D01*
X45305151Y-51969876D01*
X45352770Y-52017495D01*
X46305151Y-52922256D02*
X45733723Y-52922256D01*
X46019437Y-52922256D02*
X46019437Y-51922256D01*
X45924199Y-52065114D01*
X45828961Y-52160352D01*
X45733723Y-52207971D01*
X47209913Y-51922256D02*
X46733723Y-51922256D01*
X46686104Y-52398447D01*
X46733723Y-52350828D01*
X46828961Y-52303209D01*
X47067056Y-52303209D01*
X47162294Y-52350828D01*
X47209913Y-52398447D01*
X47257532Y-52493685D01*
X47257532Y-52731780D01*
X47209913Y-52827018D01*
X47162294Y-52874637D01*
X47067056Y-52922256D01*
X46828961Y-52922256D01*
X46733723Y-52874637D01*
X46686104Y-52827018D01*
%TO.C,U3*%
X57833723Y-50372256D02*
X57833723Y-51181780D01*
X57881342Y-51277018D01*
X57928961Y-51324637D01*
X58024199Y-51372256D01*
X58214675Y-51372256D01*
X58309913Y-51324637D01*
X58357532Y-51277018D01*
X58405151Y-51181780D01*
X58405151Y-50372256D01*
X58786104Y-50372256D02*
X59405151Y-50372256D01*
X59071818Y-50753209D01*
X59214675Y-50753209D01*
X59309913Y-50800828D01*
X59357532Y-50848447D01*
X59405151Y-50943685D01*
X59405151Y-51181780D01*
X59357532Y-51277018D01*
X59309913Y-51324637D01*
X59214675Y-51372256D01*
X58928961Y-51372256D01*
X58833723Y-51324637D01*
X58786104Y-51277018D01*
%TO.C,R8*%
X103603961Y-44272256D02*
X103270628Y-43796066D01*
X103032532Y-44272256D02*
X103032532Y-43272256D01*
X103413485Y-43272256D01*
X103508723Y-43319876D01*
X103556342Y-43367495D01*
X103603961Y-43462733D01*
X103603961Y-43605590D01*
X103556342Y-43700828D01*
X103508723Y-43748447D01*
X103413485Y-43796066D01*
X103032532Y-43796066D01*
X104175389Y-43700828D02*
X104080151Y-43653209D01*
X104032532Y-43605590D01*
X103984913Y-43510352D01*
X103984913Y-43462733D01*
X104032532Y-43367495D01*
X104080151Y-43319876D01*
X104175389Y-43272256D01*
X104365866Y-43272256D01*
X104461104Y-43319876D01*
X104508723Y-43367495D01*
X104556342Y-43462733D01*
X104556342Y-43510352D01*
X104508723Y-43605590D01*
X104461104Y-43653209D01*
X104365866Y-43700828D01*
X104175389Y-43700828D01*
X104080151Y-43748447D01*
X104032532Y-43796066D01*
X103984913Y-43891304D01*
X103984913Y-44081780D01*
X104032532Y-44177018D01*
X104080151Y-44224637D01*
X104175389Y-44272256D01*
X104365866Y-44272256D01*
X104461104Y-44224637D01*
X104508723Y-44177018D01*
X104556342Y-44081780D01*
X104556342Y-43891304D01*
X104508723Y-43796066D01*
X104461104Y-43748447D01*
X104365866Y-43700828D01*
%TO.C,L1*%
X61098008Y-54966542D02*
X61098008Y-55442733D01*
X60098008Y-55442733D01*
X61098008Y-54109399D02*
X61098008Y-54680828D01*
X61098008Y-54395114D02*
X60098008Y-54395114D01*
X60240866Y-54490352D01*
X60336104Y-54585590D01*
X60383723Y-54680828D01*
%TO.C,C14*%
X55252770Y-56577018D02*
X55205151Y-56624637D01*
X55062294Y-56672256D01*
X54967056Y-56672256D01*
X54824199Y-56624637D01*
X54728961Y-56529399D01*
X54681342Y-56434161D01*
X54633723Y-56243685D01*
X54633723Y-56100828D01*
X54681342Y-55910352D01*
X54728961Y-55815114D01*
X54824199Y-55719876D01*
X54967056Y-55672256D01*
X55062294Y-55672256D01*
X55205151Y-55719876D01*
X55252770Y-55767495D01*
X56205151Y-56672256D02*
X55633723Y-56672256D01*
X55919437Y-56672256D02*
X55919437Y-55672256D01*
X55824199Y-55815114D01*
X55728961Y-55910352D01*
X55633723Y-55957971D01*
X57062294Y-56005590D02*
X57062294Y-56672256D01*
X56824199Y-55624637D02*
X56586104Y-56338923D01*
X57205151Y-56338923D01*
%TO.C,C13*%
X54652770Y-44577018D02*
X54605151Y-44624637D01*
X54462294Y-44672256D01*
X54367056Y-44672256D01*
X54224199Y-44624637D01*
X54128961Y-44529399D01*
X54081342Y-44434161D01*
X54033723Y-44243685D01*
X54033723Y-44100828D01*
X54081342Y-43910352D01*
X54128961Y-43815114D01*
X54224199Y-43719876D01*
X54367056Y-43672256D01*
X54462294Y-43672256D01*
X54605151Y-43719876D01*
X54652770Y-43767495D01*
X55605151Y-44672256D02*
X55033723Y-44672256D01*
X55319437Y-44672256D02*
X55319437Y-43672256D01*
X55224199Y-43815114D01*
X55128961Y-43910352D01*
X55033723Y-43957971D01*
X55938485Y-43672256D02*
X56557532Y-43672256D01*
X56224199Y-44053209D01*
X56367056Y-44053209D01*
X56462294Y-44100828D01*
X56509913Y-44148447D01*
X56557532Y-44243685D01*
X56557532Y-44481780D01*
X56509913Y-44577018D01*
X56462294Y-44624637D01*
X56367056Y-44672256D01*
X56081342Y-44672256D01*
X55986104Y-44624637D01*
X55938485Y-44577018D01*
%TO.C,C12*%
X54702770Y-46577018D02*
X54655151Y-46624637D01*
X54512294Y-46672256D01*
X54417056Y-46672256D01*
X54274199Y-46624637D01*
X54178961Y-46529399D01*
X54131342Y-46434161D01*
X54083723Y-46243685D01*
X54083723Y-46100828D01*
X54131342Y-45910352D01*
X54178961Y-45815114D01*
X54274199Y-45719876D01*
X54417056Y-45672256D01*
X54512294Y-45672256D01*
X54655151Y-45719876D01*
X54702770Y-45767495D01*
X55655151Y-46672256D02*
X55083723Y-46672256D01*
X55369437Y-46672256D02*
X55369437Y-45672256D01*
X55274199Y-45815114D01*
X55178961Y-45910352D01*
X55083723Y-45957971D01*
X56036104Y-45767495D02*
X56083723Y-45719876D01*
X56178961Y-45672256D01*
X56417056Y-45672256D01*
X56512294Y-45719876D01*
X56559913Y-45767495D01*
X56607532Y-45862733D01*
X56607532Y-45957971D01*
X56559913Y-46100828D01*
X55988485Y-46672256D01*
X56607532Y-46672256D01*
%TO.C,C11*%
X62102770Y-49877018D02*
X62055151Y-49924637D01*
X61912294Y-49972256D01*
X61817056Y-49972256D01*
X61674199Y-49924637D01*
X61578961Y-49829399D01*
X61531342Y-49734161D01*
X61483723Y-49543685D01*
X61483723Y-49400828D01*
X61531342Y-49210352D01*
X61578961Y-49115114D01*
X61674199Y-49019876D01*
X61817056Y-48972256D01*
X61912294Y-48972256D01*
X62055151Y-49019876D01*
X62102770Y-49067495D01*
X63055151Y-49972256D02*
X62483723Y-49972256D01*
X62769437Y-49972256D02*
X62769437Y-48972256D01*
X62674199Y-49115114D01*
X62578961Y-49210352D01*
X62483723Y-49257971D01*
X64007532Y-49972256D02*
X63436104Y-49972256D01*
X63721818Y-49972256D02*
X63721818Y-48972256D01*
X63626580Y-49115114D01*
X63531342Y-49210352D01*
X63436104Y-49257971D01*
%TO.C,C10*%
X52102770Y-51262733D02*
X52150389Y-51310352D01*
X52198008Y-51453209D01*
X52198008Y-51548447D01*
X52150389Y-51691304D01*
X52055151Y-51786542D01*
X51959913Y-51834161D01*
X51769437Y-51881780D01*
X51626580Y-51881780D01*
X51436104Y-51834161D01*
X51340866Y-51786542D01*
X51245628Y-51691304D01*
X51198008Y-51548447D01*
X51198008Y-51453209D01*
X51245628Y-51310352D01*
X51293247Y-51262733D01*
X52198008Y-50310352D02*
X52198008Y-50881780D01*
X52198008Y-50596066D02*
X51198008Y-50596066D01*
X51340866Y-50691304D01*
X51436104Y-50786542D01*
X51483723Y-50881780D01*
X51198008Y-49691304D02*
X51198008Y-49596066D01*
X51245628Y-49500828D01*
X51293247Y-49453209D01*
X51388485Y-49405590D01*
X51578961Y-49357971D01*
X51817056Y-49357971D01*
X52007532Y-49405590D01*
X52102770Y-49453209D01*
X52150389Y-49500828D01*
X52198008Y-49596066D01*
X52198008Y-49691304D01*
X52150389Y-49786542D01*
X52102770Y-49834161D01*
X52007532Y-49881780D01*
X51817056Y-49929399D01*
X51578961Y-49929399D01*
X51388485Y-49881780D01*
X51293247Y-49834161D01*
X51245628Y-49786542D01*
X51198008Y-49691304D01*
%TO.C,C9*%
X50552770Y-50836542D02*
X50600389Y-50884161D01*
X50648008Y-51027018D01*
X50648008Y-51122256D01*
X50600389Y-51265114D01*
X50505151Y-51360352D01*
X50409913Y-51407971D01*
X50219437Y-51455590D01*
X50076580Y-51455590D01*
X49886104Y-51407971D01*
X49790866Y-51360352D01*
X49695628Y-51265114D01*
X49648008Y-51122256D01*
X49648008Y-51027018D01*
X49695628Y-50884161D01*
X49743247Y-50836542D01*
X50648008Y-50360352D02*
X50648008Y-50169876D01*
X50600389Y-50074637D01*
X50552770Y-50027018D01*
X50409913Y-49931780D01*
X50219437Y-49884161D01*
X49838485Y-49884161D01*
X49743247Y-49931780D01*
X49695628Y-49979399D01*
X49648008Y-50074637D01*
X49648008Y-50265114D01*
X49695628Y-50360352D01*
X49743247Y-50407971D01*
X49838485Y-50455590D01*
X50076580Y-50455590D01*
X50171818Y-50407971D01*
X50219437Y-50360352D01*
X50267056Y-50265114D01*
X50267056Y-50074637D01*
X50219437Y-49979399D01*
X50171818Y-49931780D01*
X50076580Y-49884161D01*
%TO.C,C3*%
X100553961Y-42652018D02*
X100506342Y-42699637D01*
X100363485Y-42747256D01*
X100268247Y-42747256D01*
X100125389Y-42699637D01*
X100030151Y-42604399D01*
X99982532Y-42509161D01*
X99934913Y-42318685D01*
X99934913Y-42175828D01*
X99982532Y-41985352D01*
X100030151Y-41890114D01*
X100125389Y-41794876D01*
X100268247Y-41747256D01*
X100363485Y-41747256D01*
X100506342Y-41794876D01*
X100553961Y-41842495D01*
X100887294Y-41747256D02*
X101506342Y-41747256D01*
X101173008Y-42128209D01*
X101315866Y-42128209D01*
X101411104Y-42175828D01*
X101458723Y-42223447D01*
X101506342Y-42318685D01*
X101506342Y-42556780D01*
X101458723Y-42652018D01*
X101411104Y-42699637D01*
X101315866Y-42747256D01*
X101030151Y-42747256D01*
X100934913Y-42699637D01*
X100887294Y-42652018D01*
%TO.C,C1*%
X94108770Y-40344542D02*
X94156389Y-40392161D01*
X94204008Y-40535018D01*
X94204008Y-40630256D01*
X94156389Y-40773114D01*
X94061151Y-40868352D01*
X93965913Y-40915971D01*
X93775437Y-40963590D01*
X93632580Y-40963590D01*
X93442104Y-40915971D01*
X93346866Y-40868352D01*
X93251628Y-40773114D01*
X93204008Y-40630256D01*
X93204008Y-40535018D01*
X93251628Y-40392161D01*
X93299247Y-40344542D01*
X94204008Y-39392161D02*
X94204008Y-39963590D01*
X94204008Y-39677876D02*
X93204008Y-39677876D01*
X93346866Y-39773114D01*
X93442104Y-39868352D01*
X93489723Y-39963590D01*
%TO.C,J4*%
X136090294Y-34550256D02*
X136090294Y-35264542D01*
X136042675Y-35407399D01*
X135947437Y-35502637D01*
X135804580Y-35550256D01*
X135709342Y-35550256D01*
X136995056Y-34883590D02*
X136995056Y-35550256D01*
X136756961Y-34502637D02*
X136518866Y-35216923D01*
X137137913Y-35216923D01*
%TO.C,J3*%
X125168294Y-41154256D02*
X125168294Y-41868542D01*
X125120675Y-42011399D01*
X125025437Y-42106637D01*
X124882580Y-42154256D01*
X124787342Y-42154256D01*
X125549247Y-41154256D02*
X126168294Y-41154256D01*
X125834961Y-41535209D01*
X125977818Y-41535209D01*
X126073056Y-41582828D01*
X126120675Y-41630447D01*
X126168294Y-41725685D01*
X126168294Y-41963780D01*
X126120675Y-42059018D01*
X126073056Y-42106637D01*
X125977818Y-42154256D01*
X125692104Y-42154256D01*
X125596866Y-42106637D01*
X125549247Y-42059018D01*
%TO.C,Y1*%
X96019437Y-44646066D02*
X96019437Y-45122256D01*
X95686104Y-44122256D02*
X96019437Y-44646066D01*
X96352770Y-44122256D01*
X97209913Y-45122256D02*
X96638485Y-45122256D01*
X96924199Y-45122256D02*
X96924199Y-44122256D01*
X96828961Y-44265114D01*
X96733723Y-44360352D01*
X96638485Y-44407971D01*
%TO.C,U2*%
X55958723Y-71447256D02*
X55958723Y-72256780D01*
X56006342Y-72352018D01*
X56053961Y-72399637D01*
X56149199Y-72447256D01*
X56339675Y-72447256D01*
X56434913Y-72399637D01*
X56482532Y-72352018D01*
X56530151Y-72256780D01*
X56530151Y-71447256D01*
X56958723Y-71542495D02*
X57006342Y-71494876D01*
X57101580Y-71447256D01*
X57339675Y-71447256D01*
X57434913Y-71494876D01*
X57482532Y-71542495D01*
X57530151Y-71637733D01*
X57530151Y-71732971D01*
X57482532Y-71875828D01*
X56911104Y-72447256D01*
X57530151Y-72447256D01*
%TO.C,R7*%
X99028008Y-37136542D02*
X98551818Y-37469876D01*
X99028008Y-37707971D02*
X98028008Y-37707971D01*
X98028008Y-37327018D01*
X98075628Y-37231780D01*
X98123247Y-37184161D01*
X98218485Y-37136542D01*
X98361342Y-37136542D01*
X98456580Y-37184161D01*
X98504199Y-37231780D01*
X98551818Y-37327018D01*
X98551818Y-37707971D01*
X98028008Y-36803209D02*
X98028008Y-36136542D01*
X99028008Y-36565114D01*
%TO.C,R6*%
X70074008Y-39074542D02*
X69597818Y-39407876D01*
X70074008Y-39645971D02*
X69074008Y-39645971D01*
X69074008Y-39265018D01*
X69121628Y-39169780D01*
X69169247Y-39122161D01*
X69264485Y-39074542D01*
X69407342Y-39074542D01*
X69502580Y-39122161D01*
X69550199Y-39169780D01*
X69597818Y-39265018D01*
X69597818Y-39645971D01*
X69074008Y-38217399D02*
X69074008Y-38407876D01*
X69121628Y-38503114D01*
X69169247Y-38550733D01*
X69312104Y-38645971D01*
X69502580Y-38693590D01*
X69883532Y-38693590D01*
X69978770Y-38645971D01*
X70026389Y-38598352D01*
X70074008Y-38503114D01*
X70074008Y-38312637D01*
X70026389Y-38217399D01*
X69978770Y-38169780D01*
X69883532Y-38122161D01*
X69645437Y-38122161D01*
X69550199Y-38169780D01*
X69502580Y-38217399D01*
X69454961Y-38312637D01*
X69454961Y-38503114D01*
X69502580Y-38598352D01*
X69550199Y-38645971D01*
X69645437Y-38693590D01*
%TO.C,R5*%
X132431008Y-34636542D02*
X131954818Y-34969876D01*
X132431008Y-35207971D02*
X131431008Y-35207971D01*
X131431008Y-34827018D01*
X131478628Y-34731780D01*
X131526247Y-34684161D01*
X131621485Y-34636542D01*
X131764342Y-34636542D01*
X131859580Y-34684161D01*
X131907199Y-34731780D01*
X131954818Y-34827018D01*
X131954818Y-35207971D01*
X131431008Y-33731780D02*
X131431008Y-34207971D01*
X131907199Y-34255590D01*
X131859580Y-34207971D01*
X131811961Y-34112733D01*
X131811961Y-33874637D01*
X131859580Y-33779399D01*
X131907199Y-33731780D01*
X132002437Y-33684161D01*
X132240532Y-33684161D01*
X132335770Y-33731780D01*
X132383389Y-33779399D01*
X132431008Y-33874637D01*
X132431008Y-34112733D01*
X132383389Y-34207971D01*
X132335770Y-34255590D01*
%TO.C,R4*%
X129618008Y-34626542D02*
X129141818Y-34959876D01*
X129618008Y-35197971D02*
X128618008Y-35197971D01*
X128618008Y-34817018D01*
X128665628Y-34721780D01*
X128713247Y-34674161D01*
X128808485Y-34626542D01*
X128951342Y-34626542D01*
X129046580Y-34674161D01*
X129094199Y-34721780D01*
X129141818Y-34817018D01*
X129141818Y-35197971D01*
X128951342Y-33769399D02*
X129618008Y-33769399D01*
X128570389Y-34007495D02*
X129284675Y-34245590D01*
X129284675Y-33626542D01*
%TO.C,R1*%
X98918961Y-45964256D02*
X98585628Y-45488066D01*
X98347532Y-45964256D02*
X98347532Y-44964256D01*
X98728485Y-44964256D01*
X98823723Y-45011876D01*
X98871342Y-45059495D01*
X98918961Y-45154733D01*
X98918961Y-45297590D01*
X98871342Y-45392828D01*
X98823723Y-45440447D01*
X98728485Y-45488066D01*
X98347532Y-45488066D01*
X99871342Y-45964256D02*
X99299913Y-45964256D01*
X99585628Y-45964256D02*
X99585628Y-44964256D01*
X99490389Y-45107114D01*
X99395151Y-45202352D01*
X99299913Y-45249971D01*
%TO.C,C8*%
X100877770Y-53461542D02*
X100925389Y-53509161D01*
X100973008Y-53652018D01*
X100973008Y-53747256D01*
X100925389Y-53890114D01*
X100830151Y-53985352D01*
X100734913Y-54032971D01*
X100544437Y-54080590D01*
X100401580Y-54080590D01*
X100211104Y-54032971D01*
X100115866Y-53985352D01*
X100020628Y-53890114D01*
X99973008Y-53747256D01*
X99973008Y-53652018D01*
X100020628Y-53509161D01*
X100068247Y-53461542D01*
X100401580Y-52890114D02*
X100353961Y-52985352D01*
X100306342Y-53032971D01*
X100211104Y-53080590D01*
X100163485Y-53080590D01*
X100068247Y-53032971D01*
X100020628Y-52985352D01*
X99973008Y-52890114D01*
X99973008Y-52699637D01*
X100020628Y-52604399D01*
X100068247Y-52556780D01*
X100163485Y-52509161D01*
X100211104Y-52509161D01*
X100306342Y-52556780D01*
X100353961Y-52604399D01*
X100401580Y-52699637D01*
X100401580Y-52890114D01*
X100449199Y-52985352D01*
X100496818Y-53032971D01*
X100592056Y-53080590D01*
X100782532Y-53080590D01*
X100877770Y-53032971D01*
X100925389Y-52985352D01*
X100973008Y-52890114D01*
X100973008Y-52699637D01*
X100925389Y-52604399D01*
X100877770Y-52556780D01*
X100782532Y-52509161D01*
X100592056Y-52509161D01*
X100496818Y-52556780D01*
X100449199Y-52604399D01*
X100401580Y-52699637D01*
%TO.C,C7*%
X86053961Y-65102018D02*
X86006342Y-65149637D01*
X85863485Y-65197256D01*
X85768247Y-65197256D01*
X85625389Y-65149637D01*
X85530151Y-65054399D01*
X85482532Y-64959161D01*
X85434913Y-64768685D01*
X85434913Y-64625828D01*
X85482532Y-64435352D01*
X85530151Y-64340114D01*
X85625389Y-64244876D01*
X85768247Y-64197256D01*
X85863485Y-64197256D01*
X86006342Y-64244876D01*
X86053961Y-64292495D01*
X86387294Y-64197256D02*
X87053961Y-64197256D01*
X86625389Y-65197256D01*
%TO.C,C6*%
X99934961Y-63649018D02*
X99887342Y-63696637D01*
X99744485Y-63744256D01*
X99649247Y-63744256D01*
X99506389Y-63696637D01*
X99411151Y-63601399D01*
X99363532Y-63506161D01*
X99315913Y-63315685D01*
X99315913Y-63172828D01*
X99363532Y-62982352D01*
X99411151Y-62887114D01*
X99506389Y-62791876D01*
X99649247Y-62744256D01*
X99744485Y-62744256D01*
X99887342Y-62791876D01*
X99934961Y-62839495D01*
X100792104Y-62744256D02*
X100601628Y-62744256D01*
X100506389Y-62791876D01*
X100458770Y-62839495D01*
X100363532Y-62982352D01*
X100315913Y-63172828D01*
X100315913Y-63553780D01*
X100363532Y-63649018D01*
X100411151Y-63696637D01*
X100506389Y-63744256D01*
X100696866Y-63744256D01*
X100792104Y-63696637D01*
X100839723Y-63649018D01*
X100887342Y-63553780D01*
X100887342Y-63315685D01*
X100839723Y-63220447D01*
X100792104Y-63172828D01*
X100696866Y-63125209D01*
X100506389Y-63125209D01*
X100411151Y-63172828D01*
X100363532Y-63220447D01*
X100315913Y-63315685D01*
%TO.C,C5*%
X96902770Y-65998542D02*
X96950389Y-66046161D01*
X96998008Y-66189018D01*
X96998008Y-66284256D01*
X96950389Y-66427114D01*
X96855151Y-66522352D01*
X96759913Y-66569971D01*
X96569437Y-66617590D01*
X96426580Y-66617590D01*
X96236104Y-66569971D01*
X96140866Y-66522352D01*
X96045628Y-66427114D01*
X95998008Y-66284256D01*
X95998008Y-66189018D01*
X96045628Y-66046161D01*
X96093247Y-65998542D01*
X95998008Y-65093780D02*
X95998008Y-65569971D01*
X96474199Y-65617590D01*
X96426580Y-65569971D01*
X96378961Y-65474733D01*
X96378961Y-65236637D01*
X96426580Y-65141399D01*
X96474199Y-65093780D01*
X96569437Y-65046161D01*
X96807532Y-65046161D01*
X96902770Y-65093780D01*
X96950389Y-65141399D01*
X96998008Y-65236637D01*
X96998008Y-65474733D01*
X96950389Y-65569971D01*
X96902770Y-65617590D01*
%TO.C,C4*%
X100712770Y-47456542D02*
X100760389Y-47504161D01*
X100808008Y-47647018D01*
X100808008Y-47742256D01*
X100760389Y-47885114D01*
X100665151Y-47980352D01*
X100569913Y-48027971D01*
X100379437Y-48075590D01*
X100236580Y-48075590D01*
X100046104Y-48027971D01*
X99950866Y-47980352D01*
X99855628Y-47885114D01*
X99808008Y-47742256D01*
X99808008Y-47647018D01*
X99855628Y-47504161D01*
X99903247Y-47456542D01*
X100141342Y-46599399D02*
X100808008Y-46599399D01*
X99760389Y-46837495D02*
X100474675Y-47075590D01*
X100474675Y-46456542D01*
%TO.C,U1*%
X92989723Y-62998256D02*
X92989723Y-63807780D01*
X93037342Y-63903018D01*
X93084961Y-63950637D01*
X93180199Y-63998256D01*
X93370675Y-63998256D01*
X93465913Y-63950637D01*
X93513532Y-63903018D01*
X93561151Y-63807780D01*
X93561151Y-62998256D01*
X94561151Y-63998256D02*
X93989723Y-63998256D01*
X94275437Y-63998256D02*
X94275437Y-62998256D01*
X94180199Y-63141114D01*
X94084961Y-63236352D01*
X93989723Y-63283971D01*
%TO.C,R18*%
X93868008Y-37612733D02*
X93391818Y-37946066D01*
X93868008Y-38184161D02*
X92868008Y-38184161D01*
X92868008Y-37803209D01*
X92915628Y-37707971D01*
X92963247Y-37660352D01*
X93058485Y-37612733D01*
X93201342Y-37612733D01*
X93296580Y-37660352D01*
X93344199Y-37707971D01*
X93391818Y-37803209D01*
X93391818Y-38184161D01*
X93868008Y-36660352D02*
X93868008Y-37231780D01*
X93868008Y-36946066D02*
X92868008Y-36946066D01*
X93010866Y-37041304D01*
X93106104Y-37136542D01*
X93153723Y-37231780D01*
X93296580Y-36088923D02*
X93248961Y-36184161D01*
X93201342Y-36231780D01*
X93106104Y-36279399D01*
X93058485Y-36279399D01*
X92963247Y-36231780D01*
X92915628Y-36184161D01*
X92868008Y-36088923D01*
X92868008Y-35898447D01*
X92915628Y-35803209D01*
X92963247Y-35755590D01*
X93058485Y-35707971D01*
X93106104Y-35707971D01*
X93201342Y-35755590D01*
X93248961Y-35803209D01*
X93296580Y-35898447D01*
X93296580Y-36088923D01*
X93344199Y-36184161D01*
X93391818Y-36231780D01*
X93487056Y-36279399D01*
X93677532Y-36279399D01*
X93772770Y-36231780D01*
X93820389Y-36184161D01*
X93868008Y-36088923D01*
X93868008Y-35898447D01*
X93820389Y-35803209D01*
X93772770Y-35755590D01*
X93677532Y-35707971D01*
X93487056Y-35707971D01*
X93391818Y-35755590D01*
X93344199Y-35803209D01*
X93296580Y-35898447D01*
%TO.C,R16*%
X106618008Y-37612733D02*
X106141818Y-37946066D01*
X106618008Y-38184161D02*
X105618008Y-38184161D01*
X105618008Y-37803209D01*
X105665628Y-37707971D01*
X105713247Y-37660352D01*
X105808485Y-37612733D01*
X105951342Y-37612733D01*
X106046580Y-37660352D01*
X106094199Y-37707971D01*
X106141818Y-37803209D01*
X106141818Y-38184161D01*
X106618008Y-36660352D02*
X106618008Y-37231780D01*
X106618008Y-36946066D02*
X105618008Y-36946066D01*
X105760866Y-37041304D01*
X105856104Y-37136542D01*
X105903723Y-37231780D01*
X105618008Y-35803209D02*
X105618008Y-35993685D01*
X105665628Y-36088923D01*
X105713247Y-36136542D01*
X105856104Y-36231780D01*
X106046580Y-36279399D01*
X106427532Y-36279399D01*
X106522770Y-36231780D01*
X106570389Y-36184161D01*
X106618008Y-36088923D01*
X106618008Y-35898447D01*
X106570389Y-35803209D01*
X106522770Y-35755590D01*
X106427532Y-35707971D01*
X106189437Y-35707971D01*
X106094199Y-35755590D01*
X106046580Y-35803209D01*
X105998961Y-35898447D01*
X105998961Y-36088923D01*
X106046580Y-36184161D01*
X106094199Y-36231780D01*
X106189437Y-36279399D01*
%TO.C,R3*%
X115936961Y-38344256D02*
X115603628Y-37868066D01*
X115365532Y-38344256D02*
X115365532Y-37344256D01*
X115746485Y-37344256D01*
X115841723Y-37391876D01*
X115889342Y-37439495D01*
X115936961Y-37534733D01*
X115936961Y-37677590D01*
X115889342Y-37772828D01*
X115841723Y-37820447D01*
X115746485Y-37868066D01*
X115365532Y-37868066D01*
X116270294Y-37344256D02*
X116889342Y-37344256D01*
X116556008Y-37725209D01*
X116698866Y-37725209D01*
X116794104Y-37772828D01*
X116841723Y-37820447D01*
X116889342Y-37915685D01*
X116889342Y-38153780D01*
X116841723Y-38249018D01*
X116794104Y-38296637D01*
X116698866Y-38344256D01*
X116413151Y-38344256D01*
X116317913Y-38296637D01*
X116270294Y-38249018D01*
%TO.C,D1*%
X119175532Y-38344256D02*
X119175532Y-37344256D01*
X119413628Y-37344256D01*
X119556485Y-37391876D01*
X119651723Y-37487114D01*
X119699342Y-37582352D01*
X119746961Y-37772828D01*
X119746961Y-37915685D01*
X119699342Y-38106161D01*
X119651723Y-38201399D01*
X119556485Y-38296637D01*
X119413628Y-38344256D01*
X119175532Y-38344256D01*
X120699342Y-38344256D02*
X120127913Y-38344256D01*
X120413628Y-38344256D02*
X120413628Y-37344256D01*
X120318389Y-37487114D01*
X120223151Y-37582352D01*
X120127913Y-37629971D01*
%TO.C,H1*%
X133769437Y-128255590D02*
X134150389Y-128255590D01*
X133912294Y-127922256D02*
X133912294Y-128779399D01*
X133959913Y-128874637D01*
X134055151Y-128922256D01*
X134150389Y-128922256D01*
X134626580Y-128922256D02*
X134531342Y-128874637D01*
X134483723Y-128827018D01*
X134436104Y-128731780D01*
X134436104Y-128446066D01*
X134483723Y-128350828D01*
X134531342Y-128303209D01*
X134626580Y-128255590D01*
X134769437Y-128255590D01*
X134864675Y-128303209D01*
X134912294Y-128350828D01*
X134959913Y-128446066D01*
X134959913Y-128731780D01*
X134912294Y-128827018D01*
X134864675Y-128874637D01*
X134769437Y-128922256D01*
X134626580Y-128922256D01*
X135531342Y-128922256D02*
X135436104Y-128874637D01*
X135388485Y-128827018D01*
X135340866Y-128731780D01*
X135340866Y-128446066D01*
X135388485Y-128350828D01*
X135436104Y-128303209D01*
X135531342Y-128255590D01*
X135674199Y-128255590D01*
X135769437Y-128303209D01*
X135817056Y-128350828D01*
X135864675Y-128446066D01*
X135864675Y-128731780D01*
X135817056Y-128827018D01*
X135769437Y-128874637D01*
X135674199Y-128922256D01*
X135531342Y-128922256D01*
X136436104Y-128922256D02*
X136340866Y-128874637D01*
X136293247Y-128779399D01*
X136293247Y-127922256D01*
X136817056Y-128922256D02*
X136817056Y-128255590D01*
X136817056Y-127922256D02*
X136769437Y-127969876D01*
X136817056Y-128017495D01*
X136864675Y-127969876D01*
X136817056Y-127922256D01*
X136817056Y-128017495D01*
X137293247Y-128255590D02*
X137293247Y-128922256D01*
X137293247Y-128350828D02*
X137340866Y-128303209D01*
X137436104Y-128255590D01*
X137578961Y-128255590D01*
X137674199Y-128303209D01*
X137721818Y-128398447D01*
X137721818Y-128922256D01*
X138626580Y-128255590D02*
X138626580Y-129065114D01*
X138578961Y-129160352D01*
X138531342Y-129207971D01*
X138436104Y-129255590D01*
X138293247Y-129255590D01*
X138198008Y-129207971D01*
X138626580Y-128874637D02*
X138531342Y-128922256D01*
X138340866Y-128922256D01*
X138245628Y-128874637D01*
X138198008Y-128827018D01*
X138150389Y-128731780D01*
X138150389Y-128446066D01*
X138198008Y-128350828D01*
X138245628Y-128303209D01*
X138340866Y-128255590D01*
X138531342Y-128255590D01*
X138626580Y-128303209D01*
X139864675Y-128922256D02*
X139864675Y-127922256D01*
X140293247Y-128922256D02*
X140293247Y-128398447D01*
X140245628Y-128303209D01*
X140150389Y-128255590D01*
X140007532Y-128255590D01*
X139912294Y-128303209D01*
X139864675Y-128350828D01*
X140912294Y-128922256D02*
X140817056Y-128874637D01*
X140769437Y-128827018D01*
X140721818Y-128731780D01*
X140721818Y-128446066D01*
X140769437Y-128350828D01*
X140817056Y-128303209D01*
X140912294Y-128255590D01*
X141055151Y-128255590D01*
X141150389Y-128303209D01*
X141198008Y-128350828D01*
X141245628Y-128446066D01*
X141245628Y-128731780D01*
X141198008Y-128827018D01*
X141150389Y-128874637D01*
X141055151Y-128922256D01*
X140912294Y-128922256D01*
X141817056Y-128922256D02*
X141721818Y-128874637D01*
X141674199Y-128779399D01*
X141674199Y-127922256D01*
X142578961Y-128874637D02*
X142483723Y-128922256D01*
X142293247Y-128922256D01*
X142198008Y-128874637D01*
X142150389Y-128779399D01*
X142150389Y-128398447D01*
X142198008Y-128303209D01*
X142293247Y-128255590D01*
X142483723Y-128255590D01*
X142578961Y-128303209D01*
X142626580Y-128398447D01*
X142626580Y-128493685D01*
X142150389Y-128588923D01*
%TO.C,H2*%
X34769437Y-24255590D02*
X35150389Y-24255590D01*
X34912294Y-23922256D02*
X34912294Y-24779399D01*
X34959913Y-24874637D01*
X35055151Y-24922256D01*
X35150389Y-24922256D01*
X35626580Y-24922256D02*
X35531342Y-24874637D01*
X35483723Y-24827018D01*
X35436104Y-24731780D01*
X35436104Y-24446066D01*
X35483723Y-24350828D01*
X35531342Y-24303209D01*
X35626580Y-24255590D01*
X35769437Y-24255590D01*
X35864675Y-24303209D01*
X35912294Y-24350828D01*
X35959913Y-24446066D01*
X35959913Y-24731780D01*
X35912294Y-24827018D01*
X35864675Y-24874637D01*
X35769437Y-24922256D01*
X35626580Y-24922256D01*
X36531342Y-24922256D02*
X36436104Y-24874637D01*
X36388485Y-24827018D01*
X36340866Y-24731780D01*
X36340866Y-24446066D01*
X36388485Y-24350828D01*
X36436104Y-24303209D01*
X36531342Y-24255590D01*
X36674199Y-24255590D01*
X36769437Y-24303209D01*
X36817056Y-24350828D01*
X36864675Y-24446066D01*
X36864675Y-24731780D01*
X36817056Y-24827018D01*
X36769437Y-24874637D01*
X36674199Y-24922256D01*
X36531342Y-24922256D01*
X37436104Y-24922256D02*
X37340866Y-24874637D01*
X37293247Y-24779399D01*
X37293247Y-23922256D01*
X37817056Y-24922256D02*
X37817056Y-24255590D01*
X37817056Y-23922256D02*
X37769437Y-23969876D01*
X37817056Y-24017495D01*
X37864675Y-23969876D01*
X37817056Y-23922256D01*
X37817056Y-24017495D01*
X38293247Y-24255590D02*
X38293247Y-24922256D01*
X38293247Y-24350828D02*
X38340866Y-24303209D01*
X38436104Y-24255590D01*
X38578961Y-24255590D01*
X38674199Y-24303209D01*
X38721818Y-24398447D01*
X38721818Y-24922256D01*
X39626580Y-24255590D02*
X39626580Y-25065114D01*
X39578961Y-25160352D01*
X39531342Y-25207971D01*
X39436104Y-25255590D01*
X39293247Y-25255590D01*
X39198008Y-25207971D01*
X39626580Y-24874637D02*
X39531342Y-24922256D01*
X39340866Y-24922256D01*
X39245628Y-24874637D01*
X39198008Y-24827018D01*
X39150389Y-24731780D01*
X39150389Y-24446066D01*
X39198008Y-24350828D01*
X39245628Y-24303209D01*
X39340866Y-24255590D01*
X39531342Y-24255590D01*
X39626580Y-24303209D01*
X40864675Y-24922256D02*
X40864675Y-23922256D01*
X41293247Y-24922256D02*
X41293247Y-24398447D01*
X41245628Y-24303209D01*
X41150389Y-24255590D01*
X41007532Y-24255590D01*
X40912294Y-24303209D01*
X40864675Y-24350828D01*
X41912294Y-24922256D02*
X41817056Y-24874637D01*
X41769437Y-24827018D01*
X41721818Y-24731780D01*
X41721818Y-24446066D01*
X41769437Y-24350828D01*
X41817056Y-24303209D01*
X41912294Y-24255590D01*
X42055151Y-24255590D01*
X42150389Y-24303209D01*
X42198008Y-24350828D01*
X42245628Y-24446066D01*
X42245628Y-24731780D01*
X42198008Y-24827018D01*
X42150389Y-24874637D01*
X42055151Y-24922256D01*
X41912294Y-24922256D01*
X42817056Y-24922256D02*
X42721818Y-24874637D01*
X42674199Y-24779399D01*
X42674199Y-23922256D01*
X43578961Y-24874637D02*
X43483723Y-24922256D01*
X43293247Y-24922256D01*
X43198008Y-24874637D01*
X43150389Y-24779399D01*
X43150389Y-24398447D01*
X43198008Y-24303209D01*
X43293247Y-24255590D01*
X43483723Y-24255590D01*
X43578961Y-24303209D01*
X43626580Y-24398447D01*
X43626580Y-24493685D01*
X43150389Y-24588923D01*
%TD*%
M02*
