%TF.GenerationSoftware,KiCad,Pcbnew,5.1.10*%
%TF.CreationDate,2021-08-07T13:35:18+02:00*%
%TF.ProjectId,ATAPIMega,41544150-494d-4656-9761-2e6b69636164,rev?*%
%TF.SameCoordinates,Original*%
%TF.FileFunction,Paste,Top*%
%TF.FilePolarity,Positive*%
%FSLAX46Y46*%
G04 Gerber Fmt 4.6, Leading zero omitted, Abs format (unit mm)*
G04 Created by KiCad (PCBNEW 5.1.10) date 2021-08-07 13:35:18*
%MOMM*%
%LPD*%
G01*
G04 APERTURE LIST*
%ADD10R,1.040000X1.240000*%
%ADD11R,0.320000X0.400000*%
%ADD12R,0.240000X0.400000*%
%ADD13R,0.400000X0.320000*%
%ADD14R,0.400000X0.240000*%
%ADD15R,0.520000X0.976000*%
%ADD16R,2.800000X2.360000*%
%ADD17R,1.120000X0.960000*%
G04 APERTURE END LIST*
%TO.C,C2*%
G36*
G01*
X81881628Y-53213876D02*
X81609628Y-53213876D01*
G75*
G02*
X81497628Y-53101876I0J112000D01*
G01*
X81497628Y-52877876D01*
G75*
G02*
X81609628Y-52765876I112000J0D01*
G01*
X81881628Y-52765876D01*
G75*
G02*
X81993628Y-52877876I0J-112000D01*
G01*
X81993628Y-53101876D01*
G75*
G02*
X81881628Y-53213876I-112000J0D01*
G01*
G37*
G36*
G01*
X81881628Y-54173876D02*
X81609628Y-54173876D01*
G75*
G02*
X81497628Y-54061876I0J112000D01*
G01*
X81497628Y-53837876D01*
G75*
G02*
X81609628Y-53725876I112000J0D01*
G01*
X81881628Y-53725876D01*
G75*
G02*
X81993628Y-53837876I0J-112000D01*
G01*
X81993628Y-54061876D01*
G75*
G02*
X81881628Y-54173876I-112000J0D01*
G01*
G37*
%TD*%
D10*
%TO.C,SW7*%
X132995628Y-113994876D03*
X128495628Y-113994876D03*
X128495628Y-121944876D03*
X132995628Y-121944876D03*
%TD*%
%TO.C,SW6*%
X120495628Y-113994876D03*
X115995628Y-113994876D03*
X115995628Y-121944876D03*
X120495628Y-121944876D03*
%TD*%
%TO.C,SW5*%
X107995628Y-113994876D03*
X103495628Y-113994876D03*
X103495628Y-121944876D03*
X107995628Y-121944876D03*
%TD*%
%TO.C,SW4*%
X95495628Y-113994876D03*
X90995628Y-113994876D03*
X90995628Y-121944876D03*
X95495628Y-121944876D03*
%TD*%
%TO.C,SW3*%
X82995628Y-113994876D03*
X78495628Y-113994876D03*
X78495628Y-121944876D03*
X82995628Y-121944876D03*
%TD*%
%TO.C,SW1*%
X70495628Y-113994876D03*
X65995628Y-113994876D03*
X65995628Y-121944876D03*
X70495628Y-121944876D03*
%TD*%
%TO.C,SW2*%
X57995628Y-113994876D03*
X53495628Y-113994876D03*
X53495628Y-121944876D03*
X57995628Y-121944876D03*
%TD*%
D11*
%TO.C,RN6*%
X89245628Y-63969876D03*
D12*
X88745628Y-63969876D03*
D11*
X87745628Y-63969876D03*
D12*
X88245628Y-63969876D03*
D11*
X89245628Y-64969876D03*
D12*
X88245628Y-64969876D03*
X88745628Y-64969876D03*
D11*
X87745628Y-64969876D03*
%TD*%
%TO.C,RN5*%
X90245628Y-64969876D03*
D12*
X90745628Y-64969876D03*
D11*
X91745628Y-64969876D03*
D12*
X91245628Y-64969876D03*
D11*
X90245628Y-63969876D03*
D12*
X91245628Y-63969876D03*
X90745628Y-63969876D03*
D11*
X91745628Y-63969876D03*
%TD*%
D13*
%TO.C,RN4*%
X80495628Y-49219876D03*
D14*
X80495628Y-49719876D03*
D13*
X80495628Y-50719876D03*
D14*
X80495628Y-50219876D03*
D13*
X81495628Y-49219876D03*
D14*
X81495628Y-50219876D03*
X81495628Y-49719876D03*
D13*
X81495628Y-50719876D03*
%TD*%
D11*
%TO.C,RN3*%
X90245628Y-42469876D03*
D12*
X89745628Y-42469876D03*
D11*
X88745628Y-42469876D03*
D12*
X89245628Y-42469876D03*
D11*
X90245628Y-43469876D03*
D12*
X89245628Y-43469876D03*
X89745628Y-43469876D03*
D11*
X88745628Y-43469876D03*
%TD*%
D13*
%TO.C,RN2*%
X101495628Y-58719876D03*
D14*
X101495628Y-58219876D03*
D13*
X101495628Y-57219876D03*
D14*
X101495628Y-57719876D03*
D13*
X100495628Y-58719876D03*
D14*
X100495628Y-57719876D03*
X100495628Y-58219876D03*
D13*
X100495628Y-57219876D03*
%TD*%
D11*
%TO.C,RN1*%
X92745628Y-42469876D03*
D12*
X92245628Y-42469876D03*
D11*
X91245628Y-42469876D03*
D12*
X91745628Y-42469876D03*
D11*
X92745628Y-43469876D03*
D12*
X91745628Y-43469876D03*
X92245628Y-43469876D03*
D11*
X91245628Y-43469876D03*
%TD*%
D15*
%TO.C,U3*%
X59445628Y-52029876D03*
X58495628Y-52029876D03*
X57545628Y-52029876D03*
X57545628Y-49409876D03*
X58495628Y-49409876D03*
X59445628Y-49409876D03*
%TD*%
%TO.C,R10*%
G36*
G01*
X59450628Y-53939876D02*
X59450628Y-53499876D01*
G75*
G02*
X59610628Y-53339876I160000J0D01*
G01*
X59930628Y-53339876D01*
G75*
G02*
X60090628Y-53499876I0J-160000D01*
G01*
X60090628Y-53939876D01*
G75*
G02*
X59930628Y-54099876I-160000J0D01*
G01*
X59610628Y-54099876D01*
G75*
G02*
X59450628Y-53939876I0J160000D01*
G01*
G37*
G36*
G01*
X57800628Y-53939876D02*
X57800628Y-53499876D01*
G75*
G02*
X57960628Y-53339876I160000J0D01*
G01*
X58280628Y-53339876D01*
G75*
G02*
X58440628Y-53499876I0J-160000D01*
G01*
X58440628Y-53939876D01*
G75*
G02*
X58280628Y-54099876I-160000J0D01*
G01*
X57960628Y-54099876D01*
G75*
G02*
X57800628Y-53939876I0J160000D01*
G01*
G37*
%TD*%
%TO.C,R9*%
G36*
G01*
X56450628Y-53939876D02*
X56450628Y-53499876D01*
G75*
G02*
X56610628Y-53339876I160000J0D01*
G01*
X56930628Y-53339876D01*
G75*
G02*
X57090628Y-53499876I0J-160000D01*
G01*
X57090628Y-53939876D01*
G75*
G02*
X56930628Y-54099876I-160000J0D01*
G01*
X56610628Y-54099876D01*
G75*
G02*
X56450628Y-53939876I0J160000D01*
G01*
G37*
G36*
G01*
X54800628Y-53939876D02*
X54800628Y-53499876D01*
G75*
G02*
X54960628Y-53339876I160000J0D01*
G01*
X55280628Y-53339876D01*
G75*
G02*
X55440628Y-53499876I0J-160000D01*
G01*
X55440628Y-53939876D01*
G75*
G02*
X55280628Y-54099876I-160000J0D01*
G01*
X54960628Y-54099876D01*
G75*
G02*
X54800628Y-53939876I0J160000D01*
G01*
G37*
%TD*%
%TO.C,R8*%
G36*
G01*
X101451628Y-43571876D02*
X101451628Y-43867876D01*
G75*
G02*
X101343628Y-43975876I-108000J0D01*
G01*
X101127628Y-43975876D01*
G75*
G02*
X101019628Y-43867876I0J108000D01*
G01*
X101019628Y-43571876D01*
G75*
G02*
X101127628Y-43463876I108000J0D01*
G01*
X101343628Y-43463876D01*
G75*
G02*
X101451628Y-43571876I0J-108000D01*
G01*
G37*
G36*
G01*
X102471628Y-43571876D02*
X102471628Y-43867876D01*
G75*
G02*
X102363628Y-43975876I-108000J0D01*
G01*
X102147628Y-43975876D01*
G75*
G02*
X102039628Y-43867876I0J108000D01*
G01*
X102039628Y-43571876D01*
G75*
G02*
X102147628Y-43463876I108000J0D01*
G01*
X102363628Y-43463876D01*
G75*
G02*
X102471628Y-43571876I0J-108000D01*
G01*
G37*
%TD*%
D16*
%TO.C,L1*%
X64455628Y-46994876D03*
X64455628Y-52444876D03*
%TD*%
%TO.C,C14*%
G36*
G01*
X56151628Y-55055876D02*
X56151628Y-54783876D01*
G75*
G02*
X56263628Y-54671876I112000J0D01*
G01*
X56487628Y-54671876D01*
G75*
G02*
X56599628Y-54783876I0J-112000D01*
G01*
X56599628Y-55055876D01*
G75*
G02*
X56487628Y-55167876I-112000J0D01*
G01*
X56263628Y-55167876D01*
G75*
G02*
X56151628Y-55055876I0J112000D01*
G01*
G37*
G36*
G01*
X55191628Y-55055876D02*
X55191628Y-54783876D01*
G75*
G02*
X55303628Y-54671876I112000J0D01*
G01*
X55527628Y-54671876D01*
G75*
G02*
X55639628Y-54783876I0J-112000D01*
G01*
X55639628Y-55055876D01*
G75*
G02*
X55527628Y-55167876I-112000J0D01*
G01*
X55303628Y-55167876D01*
G75*
G02*
X55191628Y-55055876I0J112000D01*
G01*
G37*
%TD*%
%TO.C,C13*%
G36*
G01*
X57945628Y-43839876D02*
X57945628Y-44599876D01*
G75*
G02*
X57745628Y-44799876I-200000J0D01*
G01*
X57345628Y-44799876D01*
G75*
G02*
X57145628Y-44599876I0J200000D01*
G01*
X57145628Y-43839876D01*
G75*
G02*
X57345628Y-43639876I200000J0D01*
G01*
X57745628Y-43639876D01*
G75*
G02*
X57945628Y-43839876I0J-200000D01*
G01*
G37*
G36*
G01*
X59845628Y-43839876D02*
X59845628Y-44599876D01*
G75*
G02*
X59645628Y-44799876I-200000J0D01*
G01*
X59245628Y-44799876D01*
G75*
G02*
X59045628Y-44599876I0J200000D01*
G01*
X59045628Y-43839876D01*
G75*
G02*
X59245628Y-43639876I200000J0D01*
G01*
X59645628Y-43639876D01*
G75*
G02*
X59845628Y-43839876I0J-200000D01*
G01*
G37*
%TD*%
%TO.C,C12*%
G36*
G01*
X57945628Y-45839876D02*
X57945628Y-46599876D01*
G75*
G02*
X57745628Y-46799876I-200000J0D01*
G01*
X57345628Y-46799876D01*
G75*
G02*
X57145628Y-46599876I0J200000D01*
G01*
X57145628Y-45839876D01*
G75*
G02*
X57345628Y-45639876I200000J0D01*
G01*
X57745628Y-45639876D01*
G75*
G02*
X57945628Y-45839876I0J-200000D01*
G01*
G37*
G36*
G01*
X59845628Y-45839876D02*
X59845628Y-46599876D01*
G75*
G02*
X59645628Y-46799876I-200000J0D01*
G01*
X59245628Y-46799876D01*
G75*
G02*
X59045628Y-46599876I0J200000D01*
G01*
X59045628Y-45839876D01*
G75*
G02*
X59245628Y-45639876I200000J0D01*
G01*
X59645628Y-45639876D01*
G75*
G02*
X59845628Y-45839876I0J-200000D01*
G01*
G37*
%TD*%
%TO.C,C11*%
G36*
G01*
X59489628Y-47833876D02*
X59489628Y-48105876D01*
G75*
G02*
X59377628Y-48217876I-112000J0D01*
G01*
X59153628Y-48217876D01*
G75*
G02*
X59041628Y-48105876I0J112000D01*
G01*
X59041628Y-47833876D01*
G75*
G02*
X59153628Y-47721876I112000J0D01*
G01*
X59377628Y-47721876D01*
G75*
G02*
X59489628Y-47833876I0J-112000D01*
G01*
G37*
G36*
G01*
X60449628Y-47833876D02*
X60449628Y-48105876D01*
G75*
G02*
X60337628Y-48217876I-112000J0D01*
G01*
X60113628Y-48217876D01*
G75*
G02*
X60001628Y-48105876I0J112000D01*
G01*
X60001628Y-47833876D01*
G75*
G02*
X60113628Y-47721876I112000J0D01*
G01*
X60337628Y-47721876D01*
G75*
G02*
X60449628Y-47833876I0J-112000D01*
G01*
G37*
%TD*%
%TO.C,C10*%
G36*
G01*
X55845628Y-50239876D02*
X55085628Y-50239876D01*
G75*
G02*
X54885628Y-50039876I0J200000D01*
G01*
X54885628Y-49639876D01*
G75*
G02*
X55085628Y-49439876I200000J0D01*
G01*
X55845628Y-49439876D01*
G75*
G02*
X56045628Y-49639876I0J-200000D01*
G01*
X56045628Y-50039876D01*
G75*
G02*
X55845628Y-50239876I-200000J0D01*
G01*
G37*
G36*
G01*
X55845628Y-52139876D02*
X55085628Y-52139876D01*
G75*
G02*
X54885628Y-51939876I0J200000D01*
G01*
X54885628Y-51539876D01*
G75*
G02*
X55085628Y-51339876I200000J0D01*
G01*
X55845628Y-51339876D01*
G75*
G02*
X56045628Y-51539876I0J-200000D01*
G01*
X56045628Y-51939876D01*
G75*
G02*
X55845628Y-52139876I-200000J0D01*
G01*
G37*
%TD*%
%TO.C,C9*%
G36*
G01*
X53875628Y-50239876D02*
X53115628Y-50239876D01*
G75*
G02*
X52915628Y-50039876I0J200000D01*
G01*
X52915628Y-49639876D01*
G75*
G02*
X53115628Y-49439876I200000J0D01*
G01*
X53875628Y-49439876D01*
G75*
G02*
X54075628Y-49639876I0J-200000D01*
G01*
X54075628Y-50039876D01*
G75*
G02*
X53875628Y-50239876I-200000J0D01*
G01*
G37*
G36*
G01*
X53875628Y-52139876D02*
X53115628Y-52139876D01*
G75*
G02*
X52915628Y-51939876I0J200000D01*
G01*
X52915628Y-51539876D01*
G75*
G02*
X53115628Y-51339876I200000J0D01*
G01*
X53875628Y-51339876D01*
G75*
G02*
X54075628Y-51539876I0J-200000D01*
G01*
X54075628Y-51939876D01*
G75*
G02*
X53875628Y-52139876I-200000J0D01*
G01*
G37*
%TD*%
%TO.C,C3*%
G36*
G01*
X99109628Y-42475876D02*
X99381628Y-42475876D01*
G75*
G02*
X99493628Y-42587876I0J-112000D01*
G01*
X99493628Y-42811876D01*
G75*
G02*
X99381628Y-42923876I-112000J0D01*
G01*
X99109628Y-42923876D01*
G75*
G02*
X98997628Y-42811876I0J112000D01*
G01*
X98997628Y-42587876D01*
G75*
G02*
X99109628Y-42475876I112000J0D01*
G01*
G37*
G36*
G01*
X99109628Y-41515876D02*
X99381628Y-41515876D01*
G75*
G02*
X99493628Y-41627876I0J-112000D01*
G01*
X99493628Y-41851876D01*
G75*
G02*
X99381628Y-41963876I-112000J0D01*
G01*
X99109628Y-41963876D01*
G75*
G02*
X98997628Y-41851876I0J112000D01*
G01*
X98997628Y-41627876D01*
G75*
G02*
X99109628Y-41515876I112000J0D01*
G01*
G37*
%TD*%
%TO.C,C1*%
G36*
G01*
X93609628Y-42475876D02*
X93881628Y-42475876D01*
G75*
G02*
X93993628Y-42587876I0J-112000D01*
G01*
X93993628Y-42811876D01*
G75*
G02*
X93881628Y-42923876I-112000J0D01*
G01*
X93609628Y-42923876D01*
G75*
G02*
X93497628Y-42811876I0J112000D01*
G01*
X93497628Y-42587876D01*
G75*
G02*
X93609628Y-42475876I112000J0D01*
G01*
G37*
G36*
G01*
X93609628Y-41515876D02*
X93881628Y-41515876D01*
G75*
G02*
X93993628Y-41627876I0J-112000D01*
G01*
X93993628Y-41851876D01*
G75*
G02*
X93881628Y-41963876I-112000J0D01*
G01*
X93609628Y-41963876D01*
G75*
G02*
X93497628Y-41851876I0J112000D01*
G01*
X93497628Y-41627876D01*
G75*
G02*
X93609628Y-41515876I112000J0D01*
G01*
G37*
%TD*%
D17*
%TO.C,Y1*%
X97595628Y-43069876D03*
X95395628Y-43069876D03*
X95395628Y-41369876D03*
X97595628Y-41369876D03*
%TD*%
%TO.C,R7*%
G36*
G01*
X99893628Y-36675876D02*
X99597628Y-36675876D01*
G75*
G02*
X99489628Y-36567876I0J108000D01*
G01*
X99489628Y-36351876D01*
G75*
G02*
X99597628Y-36243876I108000J0D01*
G01*
X99893628Y-36243876D01*
G75*
G02*
X100001628Y-36351876I0J-108000D01*
G01*
X100001628Y-36567876D01*
G75*
G02*
X99893628Y-36675876I-108000J0D01*
G01*
G37*
G36*
G01*
X99893628Y-37695876D02*
X99597628Y-37695876D01*
G75*
G02*
X99489628Y-37587876I0J108000D01*
G01*
X99489628Y-37371876D01*
G75*
G02*
X99597628Y-37263876I108000J0D01*
G01*
X99893628Y-37263876D01*
G75*
G02*
X100001628Y-37371876I0J-108000D01*
G01*
X100001628Y-37587876D01*
G75*
G02*
X99893628Y-37695876I-108000J0D01*
G01*
G37*
%TD*%
%TO.C,R6*%
G36*
G01*
X69643628Y-36425876D02*
X69347628Y-36425876D01*
G75*
G02*
X69239628Y-36317876I0J108000D01*
G01*
X69239628Y-36101876D01*
G75*
G02*
X69347628Y-35993876I108000J0D01*
G01*
X69643628Y-35993876D01*
G75*
G02*
X69751628Y-36101876I0J-108000D01*
G01*
X69751628Y-36317876D01*
G75*
G02*
X69643628Y-36425876I-108000J0D01*
G01*
G37*
G36*
G01*
X69643628Y-37445876D02*
X69347628Y-37445876D01*
G75*
G02*
X69239628Y-37337876I0J108000D01*
G01*
X69239628Y-37121876D01*
G75*
G02*
X69347628Y-37013876I108000J0D01*
G01*
X69643628Y-37013876D01*
G75*
G02*
X69751628Y-37121876I0J-108000D01*
G01*
X69751628Y-37337876D01*
G75*
G02*
X69643628Y-37445876I-108000J0D01*
G01*
G37*
%TD*%
%TO.C,R5*%
G36*
G01*
X130893628Y-34175876D02*
X130597628Y-34175876D01*
G75*
G02*
X130489628Y-34067876I0J108000D01*
G01*
X130489628Y-33851876D01*
G75*
G02*
X130597628Y-33743876I108000J0D01*
G01*
X130893628Y-33743876D01*
G75*
G02*
X131001628Y-33851876I0J-108000D01*
G01*
X131001628Y-34067876D01*
G75*
G02*
X130893628Y-34175876I-108000J0D01*
G01*
G37*
G36*
G01*
X130893628Y-35195876D02*
X130597628Y-35195876D01*
G75*
G02*
X130489628Y-35087876I0J108000D01*
G01*
X130489628Y-34871876D01*
G75*
G02*
X130597628Y-34763876I108000J0D01*
G01*
X130893628Y-34763876D01*
G75*
G02*
X131001628Y-34871876I0J-108000D01*
G01*
X131001628Y-35087876D01*
G75*
G02*
X130893628Y-35195876I-108000J0D01*
G01*
G37*
%TD*%
%TO.C,R4*%
G36*
G01*
X127847628Y-34753876D02*
X128143628Y-34753876D01*
G75*
G02*
X128251628Y-34861876I0J-108000D01*
G01*
X128251628Y-35077876D01*
G75*
G02*
X128143628Y-35185876I-108000J0D01*
G01*
X127847628Y-35185876D01*
G75*
G02*
X127739628Y-35077876I0J108000D01*
G01*
X127739628Y-34861876D01*
G75*
G02*
X127847628Y-34753876I108000J0D01*
G01*
G37*
G36*
G01*
X127847628Y-33733876D02*
X128143628Y-33733876D01*
G75*
G02*
X128251628Y-33841876I0J-108000D01*
G01*
X128251628Y-34057876D01*
G75*
G02*
X128143628Y-34165876I-108000J0D01*
G01*
X127847628Y-34165876D01*
G75*
G02*
X127739628Y-34057876I0J108000D01*
G01*
X127739628Y-33841876D01*
G75*
G02*
X127847628Y-33733876I108000J0D01*
G01*
G37*
%TD*%
%TO.C,R2*%
G36*
G01*
X101393628Y-73675876D02*
X101097628Y-73675876D01*
G75*
G02*
X100989628Y-73567876I0J108000D01*
G01*
X100989628Y-73351876D01*
G75*
G02*
X101097628Y-73243876I108000J0D01*
G01*
X101393628Y-73243876D01*
G75*
G02*
X101501628Y-73351876I0J-108000D01*
G01*
X101501628Y-73567876D01*
G75*
G02*
X101393628Y-73675876I-108000J0D01*
G01*
G37*
G36*
G01*
X101393628Y-74695876D02*
X101097628Y-74695876D01*
G75*
G02*
X100989628Y-74587876I0J108000D01*
G01*
X100989628Y-74371876D01*
G75*
G02*
X101097628Y-74263876I108000J0D01*
G01*
X101393628Y-74263876D01*
G75*
G02*
X101501628Y-74371876I0J-108000D01*
G01*
X101501628Y-74587876D01*
G75*
G02*
X101393628Y-74695876I-108000J0D01*
G01*
G37*
%TD*%
%TO.C,R1*%
G36*
G01*
X99451628Y-43571876D02*
X99451628Y-43867876D01*
G75*
G02*
X99343628Y-43975876I-108000J0D01*
G01*
X99127628Y-43975876D01*
G75*
G02*
X99019628Y-43867876I0J108000D01*
G01*
X99019628Y-43571876D01*
G75*
G02*
X99127628Y-43463876I108000J0D01*
G01*
X99343628Y-43463876D01*
G75*
G02*
X99451628Y-43571876I0J-108000D01*
G01*
G37*
G36*
G01*
X100471628Y-43571876D02*
X100471628Y-43867876D01*
G75*
G02*
X100363628Y-43975876I-108000J0D01*
G01*
X100147628Y-43975876D01*
G75*
G02*
X100039628Y-43867876I0J108000D01*
G01*
X100039628Y-43571876D01*
G75*
G02*
X100147628Y-43463876I108000J0D01*
G01*
X100363628Y-43463876D01*
G75*
G02*
X100471628Y-43571876I0J-108000D01*
G01*
G37*
%TD*%
%TO.C,C8*%
G36*
G01*
X100631628Y-54963876D02*
X100359628Y-54963876D01*
G75*
G02*
X100247628Y-54851876I0J112000D01*
G01*
X100247628Y-54627876D01*
G75*
G02*
X100359628Y-54515876I112000J0D01*
G01*
X100631628Y-54515876D01*
G75*
G02*
X100743628Y-54627876I0J-112000D01*
G01*
X100743628Y-54851876D01*
G75*
G02*
X100631628Y-54963876I-112000J0D01*
G01*
G37*
G36*
G01*
X100631628Y-55923876D02*
X100359628Y-55923876D01*
G75*
G02*
X100247628Y-55811876I0J112000D01*
G01*
X100247628Y-55587876D01*
G75*
G02*
X100359628Y-55475876I112000J0D01*
G01*
X100631628Y-55475876D01*
G75*
G02*
X100743628Y-55587876I0J-112000D01*
G01*
X100743628Y-55811876D01*
G75*
G02*
X100631628Y-55923876I-112000J0D01*
G01*
G37*
%TD*%
%TO.C,C7*%
G36*
G01*
X86501628Y-63605876D02*
X86501628Y-63333876D01*
G75*
G02*
X86613628Y-63221876I112000J0D01*
G01*
X86837628Y-63221876D01*
G75*
G02*
X86949628Y-63333876I0J-112000D01*
G01*
X86949628Y-63605876D01*
G75*
G02*
X86837628Y-63717876I-112000J0D01*
G01*
X86613628Y-63717876D01*
G75*
G02*
X86501628Y-63605876I0J112000D01*
G01*
G37*
G36*
G01*
X85541628Y-63605876D02*
X85541628Y-63333876D01*
G75*
G02*
X85653628Y-63221876I112000J0D01*
G01*
X85877628Y-63221876D01*
G75*
G02*
X85989628Y-63333876I0J-112000D01*
G01*
X85989628Y-63605876D01*
G75*
G02*
X85877628Y-63717876I-112000J0D01*
G01*
X85653628Y-63717876D01*
G75*
G02*
X85541628Y-63605876I0J112000D01*
G01*
G37*
%TD*%
%TO.C,C6*%
G36*
G01*
X97739628Y-63083876D02*
X97739628Y-63355876D01*
G75*
G02*
X97627628Y-63467876I-112000J0D01*
G01*
X97403628Y-63467876D01*
G75*
G02*
X97291628Y-63355876I0J112000D01*
G01*
X97291628Y-63083876D01*
G75*
G02*
X97403628Y-62971876I112000J0D01*
G01*
X97627628Y-62971876D01*
G75*
G02*
X97739628Y-63083876I0J-112000D01*
G01*
G37*
G36*
G01*
X98699628Y-63083876D02*
X98699628Y-63355876D01*
G75*
G02*
X98587628Y-63467876I-112000J0D01*
G01*
X98363628Y-63467876D01*
G75*
G02*
X98251628Y-63355876I0J112000D01*
G01*
X98251628Y-63083876D01*
G75*
G02*
X98363628Y-62971876I112000J0D01*
G01*
X98587628Y-62971876D01*
G75*
G02*
X98699628Y-63083876I0J-112000D01*
G01*
G37*
%TD*%
%TO.C,C5*%
G36*
G01*
X96359628Y-63975876D02*
X96631628Y-63975876D01*
G75*
G02*
X96743628Y-64087876I0J-112000D01*
G01*
X96743628Y-64311876D01*
G75*
G02*
X96631628Y-64423876I-112000J0D01*
G01*
X96359628Y-64423876D01*
G75*
G02*
X96247628Y-64311876I0J112000D01*
G01*
X96247628Y-64087876D01*
G75*
G02*
X96359628Y-63975876I112000J0D01*
G01*
G37*
G36*
G01*
X96359628Y-63015876D02*
X96631628Y-63015876D01*
G75*
G02*
X96743628Y-63127876I0J-112000D01*
G01*
X96743628Y-63351876D01*
G75*
G02*
X96631628Y-63463876I-112000J0D01*
G01*
X96359628Y-63463876D01*
G75*
G02*
X96247628Y-63351876I0J112000D01*
G01*
X96247628Y-63127876D01*
G75*
G02*
X96359628Y-63015876I112000J0D01*
G01*
G37*
%TD*%
%TO.C,C4*%
G36*
G01*
X100109628Y-45475876D02*
X100381628Y-45475876D01*
G75*
G02*
X100493628Y-45587876I0J-112000D01*
G01*
X100493628Y-45811876D01*
G75*
G02*
X100381628Y-45923876I-112000J0D01*
G01*
X100109628Y-45923876D01*
G75*
G02*
X99997628Y-45811876I0J112000D01*
G01*
X99997628Y-45587876D01*
G75*
G02*
X100109628Y-45475876I112000J0D01*
G01*
G37*
G36*
G01*
X100109628Y-44515876D02*
X100381628Y-44515876D01*
G75*
G02*
X100493628Y-44627876I0J-112000D01*
G01*
X100493628Y-44851876D01*
G75*
G02*
X100381628Y-44963876I-112000J0D01*
G01*
X100109628Y-44963876D01*
G75*
G02*
X99997628Y-44851876I0J112000D01*
G01*
X99997628Y-44627876D01*
G75*
G02*
X100109628Y-44515876I112000J0D01*
G01*
G37*
%TD*%
%TO.C,U1*%
G36*
G01*
X97205628Y-61182376D02*
X97205628Y-62242376D01*
G75*
G02*
X97145628Y-62302376I-60000J0D01*
G01*
X97025628Y-62302376D01*
G75*
G02*
X96965628Y-62242376I0J60000D01*
G01*
X96965628Y-61182376D01*
G75*
G02*
X97025628Y-61122376I60000J0D01*
G01*
X97145628Y-61122376D01*
G75*
G02*
X97205628Y-61182376I0J-60000D01*
G01*
G37*
G36*
G01*
X96705628Y-61182376D02*
X96705628Y-62242376D01*
G75*
G02*
X96645628Y-62302376I-60000J0D01*
G01*
X96525628Y-62302376D01*
G75*
G02*
X96465628Y-62242376I0J60000D01*
G01*
X96465628Y-61182376D01*
G75*
G02*
X96525628Y-61122376I60000J0D01*
G01*
X96645628Y-61122376D01*
G75*
G02*
X96705628Y-61182376I0J-60000D01*
G01*
G37*
G36*
G01*
X96205628Y-61182376D02*
X96205628Y-62242376D01*
G75*
G02*
X96145628Y-62302376I-60000J0D01*
G01*
X96025628Y-62302376D01*
G75*
G02*
X95965628Y-62242376I0J60000D01*
G01*
X95965628Y-61182376D01*
G75*
G02*
X96025628Y-61122376I60000J0D01*
G01*
X96145628Y-61122376D01*
G75*
G02*
X96205628Y-61182376I0J-60000D01*
G01*
G37*
G36*
G01*
X95705628Y-61182376D02*
X95705628Y-62242376D01*
G75*
G02*
X95645628Y-62302376I-60000J0D01*
G01*
X95525628Y-62302376D01*
G75*
G02*
X95465628Y-62242376I0J60000D01*
G01*
X95465628Y-61182376D01*
G75*
G02*
X95525628Y-61122376I60000J0D01*
G01*
X95645628Y-61122376D01*
G75*
G02*
X95705628Y-61182376I0J-60000D01*
G01*
G37*
G36*
G01*
X95205628Y-61182376D02*
X95205628Y-62242376D01*
G75*
G02*
X95145628Y-62302376I-60000J0D01*
G01*
X95025628Y-62302376D01*
G75*
G02*
X94965628Y-62242376I0J60000D01*
G01*
X94965628Y-61182376D01*
G75*
G02*
X95025628Y-61122376I60000J0D01*
G01*
X95145628Y-61122376D01*
G75*
G02*
X95205628Y-61182376I0J-60000D01*
G01*
G37*
G36*
G01*
X94705628Y-61182376D02*
X94705628Y-62242376D01*
G75*
G02*
X94645628Y-62302376I-60000J0D01*
G01*
X94525628Y-62302376D01*
G75*
G02*
X94465628Y-62242376I0J60000D01*
G01*
X94465628Y-61182376D01*
G75*
G02*
X94525628Y-61122376I60000J0D01*
G01*
X94645628Y-61122376D01*
G75*
G02*
X94705628Y-61182376I0J-60000D01*
G01*
G37*
G36*
G01*
X94205628Y-61182376D02*
X94205628Y-62242376D01*
G75*
G02*
X94145628Y-62302376I-60000J0D01*
G01*
X94025628Y-62302376D01*
G75*
G02*
X93965628Y-62242376I0J60000D01*
G01*
X93965628Y-61182376D01*
G75*
G02*
X94025628Y-61122376I60000J0D01*
G01*
X94145628Y-61122376D01*
G75*
G02*
X94205628Y-61182376I0J-60000D01*
G01*
G37*
G36*
G01*
X93705628Y-61182376D02*
X93705628Y-62242376D01*
G75*
G02*
X93645628Y-62302376I-60000J0D01*
G01*
X93525628Y-62302376D01*
G75*
G02*
X93465628Y-62242376I0J60000D01*
G01*
X93465628Y-61182376D01*
G75*
G02*
X93525628Y-61122376I60000J0D01*
G01*
X93645628Y-61122376D01*
G75*
G02*
X93705628Y-61182376I0J-60000D01*
G01*
G37*
G36*
G01*
X93205628Y-61182376D02*
X93205628Y-62242376D01*
G75*
G02*
X93145628Y-62302376I-60000J0D01*
G01*
X93025628Y-62302376D01*
G75*
G02*
X92965628Y-62242376I0J60000D01*
G01*
X92965628Y-61182376D01*
G75*
G02*
X93025628Y-61122376I60000J0D01*
G01*
X93145628Y-61122376D01*
G75*
G02*
X93205628Y-61182376I0J-60000D01*
G01*
G37*
G36*
G01*
X92705628Y-61182376D02*
X92705628Y-62242376D01*
G75*
G02*
X92645628Y-62302376I-60000J0D01*
G01*
X92525628Y-62302376D01*
G75*
G02*
X92465628Y-62242376I0J60000D01*
G01*
X92465628Y-61182376D01*
G75*
G02*
X92525628Y-61122376I60000J0D01*
G01*
X92645628Y-61122376D01*
G75*
G02*
X92705628Y-61182376I0J-60000D01*
G01*
G37*
G36*
G01*
X92205628Y-61182376D02*
X92205628Y-62242376D01*
G75*
G02*
X92145628Y-62302376I-60000J0D01*
G01*
X92025628Y-62302376D01*
G75*
G02*
X91965628Y-62242376I0J60000D01*
G01*
X91965628Y-61182376D01*
G75*
G02*
X92025628Y-61122376I60000J0D01*
G01*
X92145628Y-61122376D01*
G75*
G02*
X92205628Y-61182376I0J-60000D01*
G01*
G37*
G36*
G01*
X91705628Y-61182376D02*
X91705628Y-62242376D01*
G75*
G02*
X91645628Y-62302376I-60000J0D01*
G01*
X91525628Y-62302376D01*
G75*
G02*
X91465628Y-62242376I0J60000D01*
G01*
X91465628Y-61182376D01*
G75*
G02*
X91525628Y-61122376I60000J0D01*
G01*
X91645628Y-61122376D01*
G75*
G02*
X91705628Y-61182376I0J-60000D01*
G01*
G37*
G36*
G01*
X91205628Y-61182376D02*
X91205628Y-62242376D01*
G75*
G02*
X91145628Y-62302376I-60000J0D01*
G01*
X91025628Y-62302376D01*
G75*
G02*
X90965628Y-62242376I0J60000D01*
G01*
X90965628Y-61182376D01*
G75*
G02*
X91025628Y-61122376I60000J0D01*
G01*
X91145628Y-61122376D01*
G75*
G02*
X91205628Y-61182376I0J-60000D01*
G01*
G37*
G36*
G01*
X90705628Y-61182376D02*
X90705628Y-62242376D01*
G75*
G02*
X90645628Y-62302376I-60000J0D01*
G01*
X90525628Y-62302376D01*
G75*
G02*
X90465628Y-62242376I0J60000D01*
G01*
X90465628Y-61182376D01*
G75*
G02*
X90525628Y-61122376I60000J0D01*
G01*
X90645628Y-61122376D01*
G75*
G02*
X90705628Y-61182376I0J-60000D01*
G01*
G37*
G36*
G01*
X90205628Y-61182376D02*
X90205628Y-62242376D01*
G75*
G02*
X90145628Y-62302376I-60000J0D01*
G01*
X90025628Y-62302376D01*
G75*
G02*
X89965628Y-62242376I0J60000D01*
G01*
X89965628Y-61182376D01*
G75*
G02*
X90025628Y-61122376I60000J0D01*
G01*
X90145628Y-61122376D01*
G75*
G02*
X90205628Y-61182376I0J-60000D01*
G01*
G37*
G36*
G01*
X89705628Y-61182376D02*
X89705628Y-62242376D01*
G75*
G02*
X89645628Y-62302376I-60000J0D01*
G01*
X89525628Y-62302376D01*
G75*
G02*
X89465628Y-62242376I0J60000D01*
G01*
X89465628Y-61182376D01*
G75*
G02*
X89525628Y-61122376I60000J0D01*
G01*
X89645628Y-61122376D01*
G75*
G02*
X89705628Y-61182376I0J-60000D01*
G01*
G37*
G36*
G01*
X89205628Y-61182376D02*
X89205628Y-62242376D01*
G75*
G02*
X89145628Y-62302376I-60000J0D01*
G01*
X89025628Y-62302376D01*
G75*
G02*
X88965628Y-62242376I0J60000D01*
G01*
X88965628Y-61182376D01*
G75*
G02*
X89025628Y-61122376I60000J0D01*
G01*
X89145628Y-61122376D01*
G75*
G02*
X89205628Y-61182376I0J-60000D01*
G01*
G37*
G36*
G01*
X88705628Y-61182376D02*
X88705628Y-62242376D01*
G75*
G02*
X88645628Y-62302376I-60000J0D01*
G01*
X88525628Y-62302376D01*
G75*
G02*
X88465628Y-62242376I0J60000D01*
G01*
X88465628Y-61182376D01*
G75*
G02*
X88525628Y-61122376I60000J0D01*
G01*
X88645628Y-61122376D01*
G75*
G02*
X88705628Y-61182376I0J-60000D01*
G01*
G37*
G36*
G01*
X88205628Y-61182376D02*
X88205628Y-62242376D01*
G75*
G02*
X88145628Y-62302376I-60000J0D01*
G01*
X88025628Y-62302376D01*
G75*
G02*
X87965628Y-62242376I0J60000D01*
G01*
X87965628Y-61182376D01*
G75*
G02*
X88025628Y-61122376I60000J0D01*
G01*
X88145628Y-61122376D01*
G75*
G02*
X88205628Y-61182376I0J-60000D01*
G01*
G37*
G36*
G01*
X87705628Y-61182376D02*
X87705628Y-62242376D01*
G75*
G02*
X87645628Y-62302376I-60000J0D01*
G01*
X87525628Y-62302376D01*
G75*
G02*
X87465628Y-62242376I0J60000D01*
G01*
X87465628Y-61182376D01*
G75*
G02*
X87525628Y-61122376I60000J0D01*
G01*
X87645628Y-61122376D01*
G75*
G02*
X87705628Y-61182376I0J-60000D01*
G01*
G37*
G36*
G01*
X87205628Y-61182376D02*
X87205628Y-62242376D01*
G75*
G02*
X87145628Y-62302376I-60000J0D01*
G01*
X87025628Y-62302376D01*
G75*
G02*
X86965628Y-62242376I0J60000D01*
G01*
X86965628Y-61182376D01*
G75*
G02*
X87025628Y-61122376I60000J0D01*
G01*
X87145628Y-61122376D01*
G75*
G02*
X87205628Y-61182376I0J-60000D01*
G01*
G37*
G36*
G01*
X86705628Y-61182376D02*
X86705628Y-62242376D01*
G75*
G02*
X86645628Y-62302376I-60000J0D01*
G01*
X86525628Y-62302376D01*
G75*
G02*
X86465628Y-62242376I0J60000D01*
G01*
X86465628Y-61182376D01*
G75*
G02*
X86525628Y-61122376I60000J0D01*
G01*
X86645628Y-61122376D01*
G75*
G02*
X86705628Y-61182376I0J-60000D01*
G01*
G37*
G36*
G01*
X86205628Y-61182376D02*
X86205628Y-62242376D01*
G75*
G02*
X86145628Y-62302376I-60000J0D01*
G01*
X86025628Y-62302376D01*
G75*
G02*
X85965628Y-62242376I0J60000D01*
G01*
X85965628Y-61182376D01*
G75*
G02*
X86025628Y-61122376I60000J0D01*
G01*
X86145628Y-61122376D01*
G75*
G02*
X86205628Y-61182376I0J-60000D01*
G01*
G37*
G36*
G01*
X85705628Y-61182376D02*
X85705628Y-62242376D01*
G75*
G02*
X85645628Y-62302376I-60000J0D01*
G01*
X85525628Y-62302376D01*
G75*
G02*
X85465628Y-62242376I0J60000D01*
G01*
X85465628Y-61182376D01*
G75*
G02*
X85525628Y-61122376I60000J0D01*
G01*
X85645628Y-61122376D01*
G75*
G02*
X85705628Y-61182376I0J-60000D01*
G01*
G37*
G36*
G01*
X85205628Y-61182376D02*
X85205628Y-62242376D01*
G75*
G02*
X85145628Y-62302376I-60000J0D01*
G01*
X85025628Y-62302376D01*
G75*
G02*
X84965628Y-62242376I0J60000D01*
G01*
X84965628Y-61182376D01*
G75*
G02*
X85025628Y-61122376I60000J0D01*
G01*
X85145628Y-61122376D01*
G75*
G02*
X85205628Y-61182376I0J-60000D01*
G01*
G37*
G36*
G01*
X84013128Y-59989876D02*
X84013128Y-60109876D01*
G75*
G02*
X83953128Y-60169876I-60000J0D01*
G01*
X82893128Y-60169876D01*
G75*
G02*
X82833128Y-60109876I0J60000D01*
G01*
X82833128Y-59989876D01*
G75*
G02*
X82893128Y-59929876I60000J0D01*
G01*
X83953128Y-59929876D01*
G75*
G02*
X84013128Y-59989876I0J-60000D01*
G01*
G37*
G36*
G01*
X84013128Y-59489876D02*
X84013128Y-59609876D01*
G75*
G02*
X83953128Y-59669876I-60000J0D01*
G01*
X82893128Y-59669876D01*
G75*
G02*
X82833128Y-59609876I0J60000D01*
G01*
X82833128Y-59489876D01*
G75*
G02*
X82893128Y-59429876I60000J0D01*
G01*
X83953128Y-59429876D01*
G75*
G02*
X84013128Y-59489876I0J-60000D01*
G01*
G37*
G36*
G01*
X84013128Y-58989876D02*
X84013128Y-59109876D01*
G75*
G02*
X83953128Y-59169876I-60000J0D01*
G01*
X82893128Y-59169876D01*
G75*
G02*
X82833128Y-59109876I0J60000D01*
G01*
X82833128Y-58989876D01*
G75*
G02*
X82893128Y-58929876I60000J0D01*
G01*
X83953128Y-58929876D01*
G75*
G02*
X84013128Y-58989876I0J-60000D01*
G01*
G37*
G36*
G01*
X84013128Y-58489876D02*
X84013128Y-58609876D01*
G75*
G02*
X83953128Y-58669876I-60000J0D01*
G01*
X82893128Y-58669876D01*
G75*
G02*
X82833128Y-58609876I0J60000D01*
G01*
X82833128Y-58489876D01*
G75*
G02*
X82893128Y-58429876I60000J0D01*
G01*
X83953128Y-58429876D01*
G75*
G02*
X84013128Y-58489876I0J-60000D01*
G01*
G37*
G36*
G01*
X84013128Y-57989876D02*
X84013128Y-58109876D01*
G75*
G02*
X83953128Y-58169876I-60000J0D01*
G01*
X82893128Y-58169876D01*
G75*
G02*
X82833128Y-58109876I0J60000D01*
G01*
X82833128Y-57989876D01*
G75*
G02*
X82893128Y-57929876I60000J0D01*
G01*
X83953128Y-57929876D01*
G75*
G02*
X84013128Y-57989876I0J-60000D01*
G01*
G37*
G36*
G01*
X84013128Y-57489876D02*
X84013128Y-57609876D01*
G75*
G02*
X83953128Y-57669876I-60000J0D01*
G01*
X82893128Y-57669876D01*
G75*
G02*
X82833128Y-57609876I0J60000D01*
G01*
X82833128Y-57489876D01*
G75*
G02*
X82893128Y-57429876I60000J0D01*
G01*
X83953128Y-57429876D01*
G75*
G02*
X84013128Y-57489876I0J-60000D01*
G01*
G37*
G36*
G01*
X84013128Y-56989876D02*
X84013128Y-57109876D01*
G75*
G02*
X83953128Y-57169876I-60000J0D01*
G01*
X82893128Y-57169876D01*
G75*
G02*
X82833128Y-57109876I0J60000D01*
G01*
X82833128Y-56989876D01*
G75*
G02*
X82893128Y-56929876I60000J0D01*
G01*
X83953128Y-56929876D01*
G75*
G02*
X84013128Y-56989876I0J-60000D01*
G01*
G37*
G36*
G01*
X84013128Y-56489876D02*
X84013128Y-56609876D01*
G75*
G02*
X83953128Y-56669876I-60000J0D01*
G01*
X82893128Y-56669876D01*
G75*
G02*
X82833128Y-56609876I0J60000D01*
G01*
X82833128Y-56489876D01*
G75*
G02*
X82893128Y-56429876I60000J0D01*
G01*
X83953128Y-56429876D01*
G75*
G02*
X84013128Y-56489876I0J-60000D01*
G01*
G37*
G36*
G01*
X84013128Y-55989876D02*
X84013128Y-56109876D01*
G75*
G02*
X83953128Y-56169876I-60000J0D01*
G01*
X82893128Y-56169876D01*
G75*
G02*
X82833128Y-56109876I0J60000D01*
G01*
X82833128Y-55989876D01*
G75*
G02*
X82893128Y-55929876I60000J0D01*
G01*
X83953128Y-55929876D01*
G75*
G02*
X84013128Y-55989876I0J-60000D01*
G01*
G37*
G36*
G01*
X84013128Y-55489876D02*
X84013128Y-55609876D01*
G75*
G02*
X83953128Y-55669876I-60000J0D01*
G01*
X82893128Y-55669876D01*
G75*
G02*
X82833128Y-55609876I0J60000D01*
G01*
X82833128Y-55489876D01*
G75*
G02*
X82893128Y-55429876I60000J0D01*
G01*
X83953128Y-55429876D01*
G75*
G02*
X84013128Y-55489876I0J-60000D01*
G01*
G37*
G36*
G01*
X84013128Y-54989876D02*
X84013128Y-55109876D01*
G75*
G02*
X83953128Y-55169876I-60000J0D01*
G01*
X82893128Y-55169876D01*
G75*
G02*
X82833128Y-55109876I0J60000D01*
G01*
X82833128Y-54989876D01*
G75*
G02*
X82893128Y-54929876I60000J0D01*
G01*
X83953128Y-54929876D01*
G75*
G02*
X84013128Y-54989876I0J-60000D01*
G01*
G37*
G36*
G01*
X84013128Y-54489876D02*
X84013128Y-54609876D01*
G75*
G02*
X83953128Y-54669876I-60000J0D01*
G01*
X82893128Y-54669876D01*
G75*
G02*
X82833128Y-54609876I0J60000D01*
G01*
X82833128Y-54489876D01*
G75*
G02*
X82893128Y-54429876I60000J0D01*
G01*
X83953128Y-54429876D01*
G75*
G02*
X84013128Y-54489876I0J-60000D01*
G01*
G37*
G36*
G01*
X84013128Y-53989876D02*
X84013128Y-54109876D01*
G75*
G02*
X83953128Y-54169876I-60000J0D01*
G01*
X82893128Y-54169876D01*
G75*
G02*
X82833128Y-54109876I0J60000D01*
G01*
X82833128Y-53989876D01*
G75*
G02*
X82893128Y-53929876I60000J0D01*
G01*
X83953128Y-53929876D01*
G75*
G02*
X84013128Y-53989876I0J-60000D01*
G01*
G37*
G36*
G01*
X84013128Y-53489876D02*
X84013128Y-53609876D01*
G75*
G02*
X83953128Y-53669876I-60000J0D01*
G01*
X82893128Y-53669876D01*
G75*
G02*
X82833128Y-53609876I0J60000D01*
G01*
X82833128Y-53489876D01*
G75*
G02*
X82893128Y-53429876I60000J0D01*
G01*
X83953128Y-53429876D01*
G75*
G02*
X84013128Y-53489876I0J-60000D01*
G01*
G37*
G36*
G01*
X84013128Y-52989876D02*
X84013128Y-53109876D01*
G75*
G02*
X83953128Y-53169876I-60000J0D01*
G01*
X82893128Y-53169876D01*
G75*
G02*
X82833128Y-53109876I0J60000D01*
G01*
X82833128Y-52989876D01*
G75*
G02*
X82893128Y-52929876I60000J0D01*
G01*
X83953128Y-52929876D01*
G75*
G02*
X84013128Y-52989876I0J-60000D01*
G01*
G37*
G36*
G01*
X84013128Y-52489876D02*
X84013128Y-52609876D01*
G75*
G02*
X83953128Y-52669876I-60000J0D01*
G01*
X82893128Y-52669876D01*
G75*
G02*
X82833128Y-52609876I0J60000D01*
G01*
X82833128Y-52489876D01*
G75*
G02*
X82893128Y-52429876I60000J0D01*
G01*
X83953128Y-52429876D01*
G75*
G02*
X84013128Y-52489876I0J-60000D01*
G01*
G37*
G36*
G01*
X84013128Y-51989876D02*
X84013128Y-52109876D01*
G75*
G02*
X83953128Y-52169876I-60000J0D01*
G01*
X82893128Y-52169876D01*
G75*
G02*
X82833128Y-52109876I0J60000D01*
G01*
X82833128Y-51989876D01*
G75*
G02*
X82893128Y-51929876I60000J0D01*
G01*
X83953128Y-51929876D01*
G75*
G02*
X84013128Y-51989876I0J-60000D01*
G01*
G37*
G36*
G01*
X84013128Y-51489876D02*
X84013128Y-51609876D01*
G75*
G02*
X83953128Y-51669876I-60000J0D01*
G01*
X82893128Y-51669876D01*
G75*
G02*
X82833128Y-51609876I0J60000D01*
G01*
X82833128Y-51489876D01*
G75*
G02*
X82893128Y-51429876I60000J0D01*
G01*
X83953128Y-51429876D01*
G75*
G02*
X84013128Y-51489876I0J-60000D01*
G01*
G37*
G36*
G01*
X84013128Y-50989876D02*
X84013128Y-51109876D01*
G75*
G02*
X83953128Y-51169876I-60000J0D01*
G01*
X82893128Y-51169876D01*
G75*
G02*
X82833128Y-51109876I0J60000D01*
G01*
X82833128Y-50989876D01*
G75*
G02*
X82893128Y-50929876I60000J0D01*
G01*
X83953128Y-50929876D01*
G75*
G02*
X84013128Y-50989876I0J-60000D01*
G01*
G37*
G36*
G01*
X84013128Y-50489876D02*
X84013128Y-50609876D01*
G75*
G02*
X83953128Y-50669876I-60000J0D01*
G01*
X82893128Y-50669876D01*
G75*
G02*
X82833128Y-50609876I0J60000D01*
G01*
X82833128Y-50489876D01*
G75*
G02*
X82893128Y-50429876I60000J0D01*
G01*
X83953128Y-50429876D01*
G75*
G02*
X84013128Y-50489876I0J-60000D01*
G01*
G37*
G36*
G01*
X84013128Y-49989876D02*
X84013128Y-50109876D01*
G75*
G02*
X83953128Y-50169876I-60000J0D01*
G01*
X82893128Y-50169876D01*
G75*
G02*
X82833128Y-50109876I0J60000D01*
G01*
X82833128Y-49989876D01*
G75*
G02*
X82893128Y-49929876I60000J0D01*
G01*
X83953128Y-49929876D01*
G75*
G02*
X84013128Y-49989876I0J-60000D01*
G01*
G37*
G36*
G01*
X84013128Y-49489876D02*
X84013128Y-49609876D01*
G75*
G02*
X83953128Y-49669876I-60000J0D01*
G01*
X82893128Y-49669876D01*
G75*
G02*
X82833128Y-49609876I0J60000D01*
G01*
X82833128Y-49489876D01*
G75*
G02*
X82893128Y-49429876I60000J0D01*
G01*
X83953128Y-49429876D01*
G75*
G02*
X84013128Y-49489876I0J-60000D01*
G01*
G37*
G36*
G01*
X84013128Y-48989876D02*
X84013128Y-49109876D01*
G75*
G02*
X83953128Y-49169876I-60000J0D01*
G01*
X82893128Y-49169876D01*
G75*
G02*
X82833128Y-49109876I0J60000D01*
G01*
X82833128Y-48989876D01*
G75*
G02*
X82893128Y-48929876I60000J0D01*
G01*
X83953128Y-48929876D01*
G75*
G02*
X84013128Y-48989876I0J-60000D01*
G01*
G37*
G36*
G01*
X84013128Y-48489876D02*
X84013128Y-48609876D01*
G75*
G02*
X83953128Y-48669876I-60000J0D01*
G01*
X82893128Y-48669876D01*
G75*
G02*
X82833128Y-48609876I0J60000D01*
G01*
X82833128Y-48489876D01*
G75*
G02*
X82893128Y-48429876I60000J0D01*
G01*
X83953128Y-48429876D01*
G75*
G02*
X84013128Y-48489876I0J-60000D01*
G01*
G37*
G36*
G01*
X84013128Y-47989876D02*
X84013128Y-48109876D01*
G75*
G02*
X83953128Y-48169876I-60000J0D01*
G01*
X82893128Y-48169876D01*
G75*
G02*
X82833128Y-48109876I0J60000D01*
G01*
X82833128Y-47989876D01*
G75*
G02*
X82893128Y-47929876I60000J0D01*
G01*
X83953128Y-47929876D01*
G75*
G02*
X84013128Y-47989876I0J-60000D01*
G01*
G37*
G36*
G01*
X85205628Y-45857376D02*
X85205628Y-46917376D01*
G75*
G02*
X85145628Y-46977376I-60000J0D01*
G01*
X85025628Y-46977376D01*
G75*
G02*
X84965628Y-46917376I0J60000D01*
G01*
X84965628Y-45857376D01*
G75*
G02*
X85025628Y-45797376I60000J0D01*
G01*
X85145628Y-45797376D01*
G75*
G02*
X85205628Y-45857376I0J-60000D01*
G01*
G37*
G36*
G01*
X85705628Y-45857376D02*
X85705628Y-46917376D01*
G75*
G02*
X85645628Y-46977376I-60000J0D01*
G01*
X85525628Y-46977376D01*
G75*
G02*
X85465628Y-46917376I0J60000D01*
G01*
X85465628Y-45857376D01*
G75*
G02*
X85525628Y-45797376I60000J0D01*
G01*
X85645628Y-45797376D01*
G75*
G02*
X85705628Y-45857376I0J-60000D01*
G01*
G37*
G36*
G01*
X86205628Y-45857376D02*
X86205628Y-46917376D01*
G75*
G02*
X86145628Y-46977376I-60000J0D01*
G01*
X86025628Y-46977376D01*
G75*
G02*
X85965628Y-46917376I0J60000D01*
G01*
X85965628Y-45857376D01*
G75*
G02*
X86025628Y-45797376I60000J0D01*
G01*
X86145628Y-45797376D01*
G75*
G02*
X86205628Y-45857376I0J-60000D01*
G01*
G37*
G36*
G01*
X86705628Y-45857376D02*
X86705628Y-46917376D01*
G75*
G02*
X86645628Y-46977376I-60000J0D01*
G01*
X86525628Y-46977376D01*
G75*
G02*
X86465628Y-46917376I0J60000D01*
G01*
X86465628Y-45857376D01*
G75*
G02*
X86525628Y-45797376I60000J0D01*
G01*
X86645628Y-45797376D01*
G75*
G02*
X86705628Y-45857376I0J-60000D01*
G01*
G37*
G36*
G01*
X87205628Y-45857376D02*
X87205628Y-46917376D01*
G75*
G02*
X87145628Y-46977376I-60000J0D01*
G01*
X87025628Y-46977376D01*
G75*
G02*
X86965628Y-46917376I0J60000D01*
G01*
X86965628Y-45857376D01*
G75*
G02*
X87025628Y-45797376I60000J0D01*
G01*
X87145628Y-45797376D01*
G75*
G02*
X87205628Y-45857376I0J-60000D01*
G01*
G37*
G36*
G01*
X87705628Y-45857376D02*
X87705628Y-46917376D01*
G75*
G02*
X87645628Y-46977376I-60000J0D01*
G01*
X87525628Y-46977376D01*
G75*
G02*
X87465628Y-46917376I0J60000D01*
G01*
X87465628Y-45857376D01*
G75*
G02*
X87525628Y-45797376I60000J0D01*
G01*
X87645628Y-45797376D01*
G75*
G02*
X87705628Y-45857376I0J-60000D01*
G01*
G37*
G36*
G01*
X88205628Y-45857376D02*
X88205628Y-46917376D01*
G75*
G02*
X88145628Y-46977376I-60000J0D01*
G01*
X88025628Y-46977376D01*
G75*
G02*
X87965628Y-46917376I0J60000D01*
G01*
X87965628Y-45857376D01*
G75*
G02*
X88025628Y-45797376I60000J0D01*
G01*
X88145628Y-45797376D01*
G75*
G02*
X88205628Y-45857376I0J-60000D01*
G01*
G37*
G36*
G01*
X88705628Y-45857376D02*
X88705628Y-46917376D01*
G75*
G02*
X88645628Y-46977376I-60000J0D01*
G01*
X88525628Y-46977376D01*
G75*
G02*
X88465628Y-46917376I0J60000D01*
G01*
X88465628Y-45857376D01*
G75*
G02*
X88525628Y-45797376I60000J0D01*
G01*
X88645628Y-45797376D01*
G75*
G02*
X88705628Y-45857376I0J-60000D01*
G01*
G37*
G36*
G01*
X89205628Y-45857376D02*
X89205628Y-46917376D01*
G75*
G02*
X89145628Y-46977376I-60000J0D01*
G01*
X89025628Y-46977376D01*
G75*
G02*
X88965628Y-46917376I0J60000D01*
G01*
X88965628Y-45857376D01*
G75*
G02*
X89025628Y-45797376I60000J0D01*
G01*
X89145628Y-45797376D01*
G75*
G02*
X89205628Y-45857376I0J-60000D01*
G01*
G37*
G36*
G01*
X89705628Y-45857376D02*
X89705628Y-46917376D01*
G75*
G02*
X89645628Y-46977376I-60000J0D01*
G01*
X89525628Y-46977376D01*
G75*
G02*
X89465628Y-46917376I0J60000D01*
G01*
X89465628Y-45857376D01*
G75*
G02*
X89525628Y-45797376I60000J0D01*
G01*
X89645628Y-45797376D01*
G75*
G02*
X89705628Y-45857376I0J-60000D01*
G01*
G37*
G36*
G01*
X90205628Y-45857376D02*
X90205628Y-46917376D01*
G75*
G02*
X90145628Y-46977376I-60000J0D01*
G01*
X90025628Y-46977376D01*
G75*
G02*
X89965628Y-46917376I0J60000D01*
G01*
X89965628Y-45857376D01*
G75*
G02*
X90025628Y-45797376I60000J0D01*
G01*
X90145628Y-45797376D01*
G75*
G02*
X90205628Y-45857376I0J-60000D01*
G01*
G37*
G36*
G01*
X90705628Y-45857376D02*
X90705628Y-46917376D01*
G75*
G02*
X90645628Y-46977376I-60000J0D01*
G01*
X90525628Y-46977376D01*
G75*
G02*
X90465628Y-46917376I0J60000D01*
G01*
X90465628Y-45857376D01*
G75*
G02*
X90525628Y-45797376I60000J0D01*
G01*
X90645628Y-45797376D01*
G75*
G02*
X90705628Y-45857376I0J-60000D01*
G01*
G37*
G36*
G01*
X91205628Y-45857376D02*
X91205628Y-46917376D01*
G75*
G02*
X91145628Y-46977376I-60000J0D01*
G01*
X91025628Y-46977376D01*
G75*
G02*
X90965628Y-46917376I0J60000D01*
G01*
X90965628Y-45857376D01*
G75*
G02*
X91025628Y-45797376I60000J0D01*
G01*
X91145628Y-45797376D01*
G75*
G02*
X91205628Y-45857376I0J-60000D01*
G01*
G37*
G36*
G01*
X91705628Y-45857376D02*
X91705628Y-46917376D01*
G75*
G02*
X91645628Y-46977376I-60000J0D01*
G01*
X91525628Y-46977376D01*
G75*
G02*
X91465628Y-46917376I0J60000D01*
G01*
X91465628Y-45857376D01*
G75*
G02*
X91525628Y-45797376I60000J0D01*
G01*
X91645628Y-45797376D01*
G75*
G02*
X91705628Y-45857376I0J-60000D01*
G01*
G37*
G36*
G01*
X92205628Y-45857376D02*
X92205628Y-46917376D01*
G75*
G02*
X92145628Y-46977376I-60000J0D01*
G01*
X92025628Y-46977376D01*
G75*
G02*
X91965628Y-46917376I0J60000D01*
G01*
X91965628Y-45857376D01*
G75*
G02*
X92025628Y-45797376I60000J0D01*
G01*
X92145628Y-45797376D01*
G75*
G02*
X92205628Y-45857376I0J-60000D01*
G01*
G37*
G36*
G01*
X92705628Y-45857376D02*
X92705628Y-46917376D01*
G75*
G02*
X92645628Y-46977376I-60000J0D01*
G01*
X92525628Y-46977376D01*
G75*
G02*
X92465628Y-46917376I0J60000D01*
G01*
X92465628Y-45857376D01*
G75*
G02*
X92525628Y-45797376I60000J0D01*
G01*
X92645628Y-45797376D01*
G75*
G02*
X92705628Y-45857376I0J-60000D01*
G01*
G37*
G36*
G01*
X93205628Y-45857376D02*
X93205628Y-46917376D01*
G75*
G02*
X93145628Y-46977376I-60000J0D01*
G01*
X93025628Y-46977376D01*
G75*
G02*
X92965628Y-46917376I0J60000D01*
G01*
X92965628Y-45857376D01*
G75*
G02*
X93025628Y-45797376I60000J0D01*
G01*
X93145628Y-45797376D01*
G75*
G02*
X93205628Y-45857376I0J-60000D01*
G01*
G37*
G36*
G01*
X93705628Y-45857376D02*
X93705628Y-46917376D01*
G75*
G02*
X93645628Y-46977376I-60000J0D01*
G01*
X93525628Y-46977376D01*
G75*
G02*
X93465628Y-46917376I0J60000D01*
G01*
X93465628Y-45857376D01*
G75*
G02*
X93525628Y-45797376I60000J0D01*
G01*
X93645628Y-45797376D01*
G75*
G02*
X93705628Y-45857376I0J-60000D01*
G01*
G37*
G36*
G01*
X94205628Y-45857376D02*
X94205628Y-46917376D01*
G75*
G02*
X94145628Y-46977376I-60000J0D01*
G01*
X94025628Y-46977376D01*
G75*
G02*
X93965628Y-46917376I0J60000D01*
G01*
X93965628Y-45857376D01*
G75*
G02*
X94025628Y-45797376I60000J0D01*
G01*
X94145628Y-45797376D01*
G75*
G02*
X94205628Y-45857376I0J-60000D01*
G01*
G37*
G36*
G01*
X94705628Y-45857376D02*
X94705628Y-46917376D01*
G75*
G02*
X94645628Y-46977376I-60000J0D01*
G01*
X94525628Y-46977376D01*
G75*
G02*
X94465628Y-46917376I0J60000D01*
G01*
X94465628Y-45857376D01*
G75*
G02*
X94525628Y-45797376I60000J0D01*
G01*
X94645628Y-45797376D01*
G75*
G02*
X94705628Y-45857376I0J-60000D01*
G01*
G37*
G36*
G01*
X95205628Y-45857376D02*
X95205628Y-46917376D01*
G75*
G02*
X95145628Y-46977376I-60000J0D01*
G01*
X95025628Y-46977376D01*
G75*
G02*
X94965628Y-46917376I0J60000D01*
G01*
X94965628Y-45857376D01*
G75*
G02*
X95025628Y-45797376I60000J0D01*
G01*
X95145628Y-45797376D01*
G75*
G02*
X95205628Y-45857376I0J-60000D01*
G01*
G37*
G36*
G01*
X95705628Y-45857376D02*
X95705628Y-46917376D01*
G75*
G02*
X95645628Y-46977376I-60000J0D01*
G01*
X95525628Y-46977376D01*
G75*
G02*
X95465628Y-46917376I0J60000D01*
G01*
X95465628Y-45857376D01*
G75*
G02*
X95525628Y-45797376I60000J0D01*
G01*
X95645628Y-45797376D01*
G75*
G02*
X95705628Y-45857376I0J-60000D01*
G01*
G37*
G36*
G01*
X96205628Y-45857376D02*
X96205628Y-46917376D01*
G75*
G02*
X96145628Y-46977376I-60000J0D01*
G01*
X96025628Y-46977376D01*
G75*
G02*
X95965628Y-46917376I0J60000D01*
G01*
X95965628Y-45857376D01*
G75*
G02*
X96025628Y-45797376I60000J0D01*
G01*
X96145628Y-45797376D01*
G75*
G02*
X96205628Y-45857376I0J-60000D01*
G01*
G37*
G36*
G01*
X96705628Y-45857376D02*
X96705628Y-46917376D01*
G75*
G02*
X96645628Y-46977376I-60000J0D01*
G01*
X96525628Y-46977376D01*
G75*
G02*
X96465628Y-46917376I0J60000D01*
G01*
X96465628Y-45857376D01*
G75*
G02*
X96525628Y-45797376I60000J0D01*
G01*
X96645628Y-45797376D01*
G75*
G02*
X96705628Y-45857376I0J-60000D01*
G01*
G37*
G36*
G01*
X97205628Y-45857376D02*
X97205628Y-46917376D01*
G75*
G02*
X97145628Y-46977376I-60000J0D01*
G01*
X97025628Y-46977376D01*
G75*
G02*
X96965628Y-46917376I0J60000D01*
G01*
X96965628Y-45857376D01*
G75*
G02*
X97025628Y-45797376I60000J0D01*
G01*
X97145628Y-45797376D01*
G75*
G02*
X97205628Y-45857376I0J-60000D01*
G01*
G37*
G36*
G01*
X99338128Y-47989876D02*
X99338128Y-48109876D01*
G75*
G02*
X99278128Y-48169876I-60000J0D01*
G01*
X98218128Y-48169876D01*
G75*
G02*
X98158128Y-48109876I0J60000D01*
G01*
X98158128Y-47989876D01*
G75*
G02*
X98218128Y-47929876I60000J0D01*
G01*
X99278128Y-47929876D01*
G75*
G02*
X99338128Y-47989876I0J-60000D01*
G01*
G37*
G36*
G01*
X99338128Y-48489876D02*
X99338128Y-48609876D01*
G75*
G02*
X99278128Y-48669876I-60000J0D01*
G01*
X98218128Y-48669876D01*
G75*
G02*
X98158128Y-48609876I0J60000D01*
G01*
X98158128Y-48489876D01*
G75*
G02*
X98218128Y-48429876I60000J0D01*
G01*
X99278128Y-48429876D01*
G75*
G02*
X99338128Y-48489876I0J-60000D01*
G01*
G37*
G36*
G01*
X99338128Y-48989876D02*
X99338128Y-49109876D01*
G75*
G02*
X99278128Y-49169876I-60000J0D01*
G01*
X98218128Y-49169876D01*
G75*
G02*
X98158128Y-49109876I0J60000D01*
G01*
X98158128Y-48989876D01*
G75*
G02*
X98218128Y-48929876I60000J0D01*
G01*
X99278128Y-48929876D01*
G75*
G02*
X99338128Y-48989876I0J-60000D01*
G01*
G37*
G36*
G01*
X99338128Y-49489876D02*
X99338128Y-49609876D01*
G75*
G02*
X99278128Y-49669876I-60000J0D01*
G01*
X98218128Y-49669876D01*
G75*
G02*
X98158128Y-49609876I0J60000D01*
G01*
X98158128Y-49489876D01*
G75*
G02*
X98218128Y-49429876I60000J0D01*
G01*
X99278128Y-49429876D01*
G75*
G02*
X99338128Y-49489876I0J-60000D01*
G01*
G37*
G36*
G01*
X99338128Y-49989876D02*
X99338128Y-50109876D01*
G75*
G02*
X99278128Y-50169876I-60000J0D01*
G01*
X98218128Y-50169876D01*
G75*
G02*
X98158128Y-50109876I0J60000D01*
G01*
X98158128Y-49989876D01*
G75*
G02*
X98218128Y-49929876I60000J0D01*
G01*
X99278128Y-49929876D01*
G75*
G02*
X99338128Y-49989876I0J-60000D01*
G01*
G37*
G36*
G01*
X99338128Y-50489876D02*
X99338128Y-50609876D01*
G75*
G02*
X99278128Y-50669876I-60000J0D01*
G01*
X98218128Y-50669876D01*
G75*
G02*
X98158128Y-50609876I0J60000D01*
G01*
X98158128Y-50489876D01*
G75*
G02*
X98218128Y-50429876I60000J0D01*
G01*
X99278128Y-50429876D01*
G75*
G02*
X99338128Y-50489876I0J-60000D01*
G01*
G37*
G36*
G01*
X99338128Y-50989876D02*
X99338128Y-51109876D01*
G75*
G02*
X99278128Y-51169876I-60000J0D01*
G01*
X98218128Y-51169876D01*
G75*
G02*
X98158128Y-51109876I0J60000D01*
G01*
X98158128Y-50989876D01*
G75*
G02*
X98218128Y-50929876I60000J0D01*
G01*
X99278128Y-50929876D01*
G75*
G02*
X99338128Y-50989876I0J-60000D01*
G01*
G37*
G36*
G01*
X99338128Y-51489876D02*
X99338128Y-51609876D01*
G75*
G02*
X99278128Y-51669876I-60000J0D01*
G01*
X98218128Y-51669876D01*
G75*
G02*
X98158128Y-51609876I0J60000D01*
G01*
X98158128Y-51489876D01*
G75*
G02*
X98218128Y-51429876I60000J0D01*
G01*
X99278128Y-51429876D01*
G75*
G02*
X99338128Y-51489876I0J-60000D01*
G01*
G37*
G36*
G01*
X99338128Y-51989876D02*
X99338128Y-52109876D01*
G75*
G02*
X99278128Y-52169876I-60000J0D01*
G01*
X98218128Y-52169876D01*
G75*
G02*
X98158128Y-52109876I0J60000D01*
G01*
X98158128Y-51989876D01*
G75*
G02*
X98218128Y-51929876I60000J0D01*
G01*
X99278128Y-51929876D01*
G75*
G02*
X99338128Y-51989876I0J-60000D01*
G01*
G37*
G36*
G01*
X99338128Y-52489876D02*
X99338128Y-52609876D01*
G75*
G02*
X99278128Y-52669876I-60000J0D01*
G01*
X98218128Y-52669876D01*
G75*
G02*
X98158128Y-52609876I0J60000D01*
G01*
X98158128Y-52489876D01*
G75*
G02*
X98218128Y-52429876I60000J0D01*
G01*
X99278128Y-52429876D01*
G75*
G02*
X99338128Y-52489876I0J-60000D01*
G01*
G37*
G36*
G01*
X99338128Y-52989876D02*
X99338128Y-53109876D01*
G75*
G02*
X99278128Y-53169876I-60000J0D01*
G01*
X98218128Y-53169876D01*
G75*
G02*
X98158128Y-53109876I0J60000D01*
G01*
X98158128Y-52989876D01*
G75*
G02*
X98218128Y-52929876I60000J0D01*
G01*
X99278128Y-52929876D01*
G75*
G02*
X99338128Y-52989876I0J-60000D01*
G01*
G37*
G36*
G01*
X99338128Y-53489876D02*
X99338128Y-53609876D01*
G75*
G02*
X99278128Y-53669876I-60000J0D01*
G01*
X98218128Y-53669876D01*
G75*
G02*
X98158128Y-53609876I0J60000D01*
G01*
X98158128Y-53489876D01*
G75*
G02*
X98218128Y-53429876I60000J0D01*
G01*
X99278128Y-53429876D01*
G75*
G02*
X99338128Y-53489876I0J-60000D01*
G01*
G37*
G36*
G01*
X99338128Y-53989876D02*
X99338128Y-54109876D01*
G75*
G02*
X99278128Y-54169876I-60000J0D01*
G01*
X98218128Y-54169876D01*
G75*
G02*
X98158128Y-54109876I0J60000D01*
G01*
X98158128Y-53989876D01*
G75*
G02*
X98218128Y-53929876I60000J0D01*
G01*
X99278128Y-53929876D01*
G75*
G02*
X99338128Y-53989876I0J-60000D01*
G01*
G37*
G36*
G01*
X99338128Y-54489876D02*
X99338128Y-54609876D01*
G75*
G02*
X99278128Y-54669876I-60000J0D01*
G01*
X98218128Y-54669876D01*
G75*
G02*
X98158128Y-54609876I0J60000D01*
G01*
X98158128Y-54489876D01*
G75*
G02*
X98218128Y-54429876I60000J0D01*
G01*
X99278128Y-54429876D01*
G75*
G02*
X99338128Y-54489876I0J-60000D01*
G01*
G37*
G36*
G01*
X99338128Y-54989876D02*
X99338128Y-55109876D01*
G75*
G02*
X99278128Y-55169876I-60000J0D01*
G01*
X98218128Y-55169876D01*
G75*
G02*
X98158128Y-55109876I0J60000D01*
G01*
X98158128Y-54989876D01*
G75*
G02*
X98218128Y-54929876I60000J0D01*
G01*
X99278128Y-54929876D01*
G75*
G02*
X99338128Y-54989876I0J-60000D01*
G01*
G37*
G36*
G01*
X99338128Y-55489876D02*
X99338128Y-55609876D01*
G75*
G02*
X99278128Y-55669876I-60000J0D01*
G01*
X98218128Y-55669876D01*
G75*
G02*
X98158128Y-55609876I0J60000D01*
G01*
X98158128Y-55489876D01*
G75*
G02*
X98218128Y-55429876I60000J0D01*
G01*
X99278128Y-55429876D01*
G75*
G02*
X99338128Y-55489876I0J-60000D01*
G01*
G37*
G36*
G01*
X99338128Y-55989876D02*
X99338128Y-56109876D01*
G75*
G02*
X99278128Y-56169876I-60000J0D01*
G01*
X98218128Y-56169876D01*
G75*
G02*
X98158128Y-56109876I0J60000D01*
G01*
X98158128Y-55989876D01*
G75*
G02*
X98218128Y-55929876I60000J0D01*
G01*
X99278128Y-55929876D01*
G75*
G02*
X99338128Y-55989876I0J-60000D01*
G01*
G37*
G36*
G01*
X99338128Y-56489876D02*
X99338128Y-56609876D01*
G75*
G02*
X99278128Y-56669876I-60000J0D01*
G01*
X98218128Y-56669876D01*
G75*
G02*
X98158128Y-56609876I0J60000D01*
G01*
X98158128Y-56489876D01*
G75*
G02*
X98218128Y-56429876I60000J0D01*
G01*
X99278128Y-56429876D01*
G75*
G02*
X99338128Y-56489876I0J-60000D01*
G01*
G37*
G36*
G01*
X99338128Y-56989876D02*
X99338128Y-57109876D01*
G75*
G02*
X99278128Y-57169876I-60000J0D01*
G01*
X98218128Y-57169876D01*
G75*
G02*
X98158128Y-57109876I0J60000D01*
G01*
X98158128Y-56989876D01*
G75*
G02*
X98218128Y-56929876I60000J0D01*
G01*
X99278128Y-56929876D01*
G75*
G02*
X99338128Y-56989876I0J-60000D01*
G01*
G37*
G36*
G01*
X99338128Y-57489876D02*
X99338128Y-57609876D01*
G75*
G02*
X99278128Y-57669876I-60000J0D01*
G01*
X98218128Y-57669876D01*
G75*
G02*
X98158128Y-57609876I0J60000D01*
G01*
X98158128Y-57489876D01*
G75*
G02*
X98218128Y-57429876I60000J0D01*
G01*
X99278128Y-57429876D01*
G75*
G02*
X99338128Y-57489876I0J-60000D01*
G01*
G37*
G36*
G01*
X99338128Y-57989876D02*
X99338128Y-58109876D01*
G75*
G02*
X99278128Y-58169876I-60000J0D01*
G01*
X98218128Y-58169876D01*
G75*
G02*
X98158128Y-58109876I0J60000D01*
G01*
X98158128Y-57989876D01*
G75*
G02*
X98218128Y-57929876I60000J0D01*
G01*
X99278128Y-57929876D01*
G75*
G02*
X99338128Y-57989876I0J-60000D01*
G01*
G37*
G36*
G01*
X99338128Y-58489876D02*
X99338128Y-58609876D01*
G75*
G02*
X99278128Y-58669876I-60000J0D01*
G01*
X98218128Y-58669876D01*
G75*
G02*
X98158128Y-58609876I0J60000D01*
G01*
X98158128Y-58489876D01*
G75*
G02*
X98218128Y-58429876I60000J0D01*
G01*
X99278128Y-58429876D01*
G75*
G02*
X99338128Y-58489876I0J-60000D01*
G01*
G37*
G36*
G01*
X99338128Y-58989876D02*
X99338128Y-59109876D01*
G75*
G02*
X99278128Y-59169876I-60000J0D01*
G01*
X98218128Y-59169876D01*
G75*
G02*
X98158128Y-59109876I0J60000D01*
G01*
X98158128Y-58989876D01*
G75*
G02*
X98218128Y-58929876I60000J0D01*
G01*
X99278128Y-58929876D01*
G75*
G02*
X99338128Y-58989876I0J-60000D01*
G01*
G37*
G36*
G01*
X99338128Y-59489876D02*
X99338128Y-59609876D01*
G75*
G02*
X99278128Y-59669876I-60000J0D01*
G01*
X98218128Y-59669876D01*
G75*
G02*
X98158128Y-59609876I0J60000D01*
G01*
X98158128Y-59489876D01*
G75*
G02*
X98218128Y-59429876I60000J0D01*
G01*
X99278128Y-59429876D01*
G75*
G02*
X99338128Y-59489876I0J-60000D01*
G01*
G37*
G36*
G01*
X99338128Y-59989876D02*
X99338128Y-60109876D01*
G75*
G02*
X99278128Y-60169876I-60000J0D01*
G01*
X98218128Y-60169876D01*
G75*
G02*
X98158128Y-60109876I0J60000D01*
G01*
X98158128Y-59989876D01*
G75*
G02*
X98218128Y-59929876I60000J0D01*
G01*
X99278128Y-59929876D01*
G75*
G02*
X99338128Y-59989876I0J-60000D01*
G01*
G37*
%TD*%
%TO.C,R18*%
G36*
G01*
X92097628Y-37263876D02*
X92393628Y-37263876D01*
G75*
G02*
X92501628Y-37371876I0J-108000D01*
G01*
X92501628Y-37587876D01*
G75*
G02*
X92393628Y-37695876I-108000J0D01*
G01*
X92097628Y-37695876D01*
G75*
G02*
X91989628Y-37587876I0J108000D01*
G01*
X91989628Y-37371876D01*
G75*
G02*
X92097628Y-37263876I108000J0D01*
G01*
G37*
G36*
G01*
X92097628Y-36243876D02*
X92393628Y-36243876D01*
G75*
G02*
X92501628Y-36351876I0J-108000D01*
G01*
X92501628Y-36567876D01*
G75*
G02*
X92393628Y-36675876I-108000J0D01*
G01*
X92097628Y-36675876D01*
G75*
G02*
X91989628Y-36567876I0J108000D01*
G01*
X91989628Y-36351876D01*
G75*
G02*
X92097628Y-36243876I108000J0D01*
G01*
G37*
%TD*%
%TO.C,R16*%
G36*
G01*
X104847628Y-37263876D02*
X105143628Y-37263876D01*
G75*
G02*
X105251628Y-37371876I0J-108000D01*
G01*
X105251628Y-37587876D01*
G75*
G02*
X105143628Y-37695876I-108000J0D01*
G01*
X104847628Y-37695876D01*
G75*
G02*
X104739628Y-37587876I0J108000D01*
G01*
X104739628Y-37371876D01*
G75*
G02*
X104847628Y-37263876I108000J0D01*
G01*
G37*
G36*
G01*
X104847628Y-36243876D02*
X105143628Y-36243876D01*
G75*
G02*
X105251628Y-36351876I0J-108000D01*
G01*
X105251628Y-36567876D01*
G75*
G02*
X105143628Y-36675876I-108000J0D01*
G01*
X104847628Y-36675876D01*
G75*
G02*
X104739628Y-36567876I0J108000D01*
G01*
X104739628Y-36351876D01*
G75*
G02*
X104847628Y-36243876I108000J0D01*
G01*
G37*
%TD*%
%TO.C,R3*%
G36*
G01*
X116539628Y-36617876D02*
X116539628Y-36321876D01*
G75*
G02*
X116647628Y-36213876I108000J0D01*
G01*
X116863628Y-36213876D01*
G75*
G02*
X116971628Y-36321876I0J-108000D01*
G01*
X116971628Y-36617876D01*
G75*
G02*
X116863628Y-36725876I-108000J0D01*
G01*
X116647628Y-36725876D01*
G75*
G02*
X116539628Y-36617876I0J108000D01*
G01*
G37*
G36*
G01*
X115519628Y-36617876D02*
X115519628Y-36321876D01*
G75*
G02*
X115627628Y-36213876I108000J0D01*
G01*
X115843628Y-36213876D01*
G75*
G02*
X115951628Y-36321876I0J-108000D01*
G01*
X115951628Y-36617876D01*
G75*
G02*
X115843628Y-36725876I-108000J0D01*
G01*
X115627628Y-36725876D01*
G75*
G02*
X115519628Y-36617876I0J108000D01*
G01*
G37*
%TD*%
%TO.C,D1*%
G36*
G01*
X120433128Y-36674876D02*
X120433128Y-36264876D01*
G75*
G02*
X120608128Y-36089876I175000J0D01*
G01*
X120958128Y-36089876D01*
G75*
G02*
X121133128Y-36264876I0J-175000D01*
G01*
X121133128Y-36674876D01*
G75*
G02*
X120958128Y-36849876I-175000J0D01*
G01*
X120608128Y-36849876D01*
G75*
G02*
X120433128Y-36674876I0J175000D01*
G01*
G37*
G36*
G01*
X118858128Y-36674876D02*
X118858128Y-36264876D01*
G75*
G02*
X119033128Y-36089876I175000J0D01*
G01*
X119383128Y-36089876D01*
G75*
G02*
X119558128Y-36264876I0J-175000D01*
G01*
X119558128Y-36674876D01*
G75*
G02*
X119383128Y-36849876I-175000J0D01*
G01*
X119033128Y-36849876D01*
G75*
G02*
X118858128Y-36674876I0J175000D01*
G01*
G37*
%TD*%
M02*
