M48
; DRILL file {KiCad 5.1.10} date Sat Aug  7 13:35:17 2021
; FORMAT={-:-/ absolute / metric / decimal}
; #@! TF.CreationDate,2021-08-07T13:35:17+02:00
; #@! TF.GenerationSoftware,Kicad,Pcbnew,5.1.10
; #@! TF.FileFunction,Plated,1,4,PTH
FMAT,2
METRIC
T1C0.200
T2C0.800
T3C1.000
T4C1.200
T5C1.300
T6C2.500
%
G90
G05
T1
X38.746Y-27.47
X38.746Y-30.01
X38.746Y-32.55
X38.746Y-35.09
X38.746Y-37.63
X38.746Y-40.17
X38.746Y-42.71
X38.746Y-45.25
X38.746Y-47.79
X38.746Y-50.33
X38.746Y-52.87
X38.746Y-55.41
X38.746Y-57.95
X38.746Y-60.49
X38.746Y-63.03
X38.746Y-65.57
X38.746Y-68.11
X38.746Y-70.65
X38.746Y-73.19
X38.746Y-75.73
X38.746Y-78.27
X38.746Y-80.81
X38.746Y-83.35
X38.746Y-85.89
X38.746Y-88.43
X38.746Y-90.97
X38.746Y-93.51
X38.746Y-96.05
X38.746Y-98.59
X38.746Y-101.13
X38.746Y-103.67
X38.746Y-106.21
X38.746Y-108.75
X38.746Y-111.29
X38.746Y-113.83
X38.746Y-116.37
X38.746Y-118.91
X38.746Y-121.45
X38.746Y-123.99
X40.246Y-25.97
X40.246Y-125.03
X40.246Y-125.03
X42.746Y-25.97
X42.746Y-125.03
X42.746Y-125.03
X45.246Y-25.97
X45.246Y-125.03
X45.246Y-125.03
X45.746Y-54.97
X47.746Y-25.97
X47.746Y-125.03
X47.746Y-125.03
X49.496Y-52.22
X50.246Y-25.97
X50.246Y-125.03
X50.246Y-125.03
X52.746Y-25.97
X52.746Y-125.03
X52.746Y-125.03
X53.496Y-47.97
X53.496Y-49.84
X53.496Y-51.74
X54.746Y-47.97
X55.246Y-25.97
X55.246Y-125.03
X55.246Y-125.03
X55.896Y-53.32
X57.221Y-47.995
X57.391Y-47.365
X57.496Y-50.32
X57.496Y-53.72
X57.546Y-44.22
X57.746Y-25.97
X57.746Y-125.03
X57.746Y-125.03
X58.296Y-47.92
X58.496Y-47.22
X58.496Y-50.32
X58.796Y-44.22
X59.096Y-53.72
X59.446Y-44.22
X59.446Y-45.17
X60.246Y-25.97
X60.246Y-125.03
X60.246Y-125.03
X62.746Y-25.97
X62.746Y-125.03
X62.746Y-125.03
X65.246Y-25.97
X65.246Y-125.03
X65.246Y-125.03
X67.746Y-25.97
X67.746Y-125.03
X67.746Y-125.03
X69.496Y-37.72
X70.246Y-25.97
X70.246Y-125.03
X70.246Y-125.03
X71.746Y-36.47
X72.746Y-25.97
X72.746Y-125.03
X72.746Y-125.03
X73.221Y-43.695
X73.246Y-36.47
X74.346Y-43.72
X74.496Y-36.47
X75.146Y-43.72
X75.246Y-25.97
X75.246Y-125.03
X75.246Y-125.03
X75.746Y-36.47
X75.796Y-43.72
X76.226Y-73.706
X76.446Y-43.72
X77.146Y-43.72
X77.746Y-25.97
X77.746Y-125.03
X77.746Y-125.03
X77.796Y-43.72
X77.846Y-68.72
X78.496Y-36.47
X78.496Y-43.72
X78.496Y-73.72
X78.996Y-68.72
X79.496Y-36.47
X79.746Y-49.12
X79.746Y-49.77
X79.746Y-50.347
X79.746Y-50.924
X79.746Y-68.72
X79.996Y-43.47
X80.246Y-25.97
X80.246Y-125.03
X80.246Y-125.03
X80.496Y-43.97
X80.496Y-68.72
X80.996Y-36.47
X80.996Y-44.47
X80.996Y-73.72
X81.246Y-68.72
X81.996Y-36.47
X81.996Y-68.72
X82.102Y-59.775
X82.209Y-60.341
X82.246Y-58.02
X82.246Y-58.639
X82.246Y-59.216
X82.746Y-25.97
X82.746Y-125.03
X82.746Y-125.03
X82.996Y-73.72
X83.496Y-36.47
X83.496Y-68.72
X84.452Y-52.971
X84.496Y-36.47
X84.496Y-53.72
X84.671Y-51.894
X84.746Y-61.97
X84.996Y-51.216
X85.246Y-25.97
X85.246Y-125.03
X85.246Y-125.03
X85.746Y-62.97
X85.996Y-51.97
X85.996Y-60.47
X86.096Y-73.77
X86.246Y-36.47
X86.496Y-43.22
X86.996Y-36.47
X86.996Y-51.72
X87.046Y-60.67
X87.236Y-62.96
X87.746Y-25.97
X87.746Y-125.03
X87.746Y-125.03
X87.796Y-60.67
X88.496Y-36.47
X89.746Y-36.47
X90.246Y-25.97
X90.246Y-125.03
X90.246Y-125.03
X92.105Y-67.22
X92.246Y-37.97
X92.496Y-67.72
X92.746Y-25.97
X92.746Y-125.03
X92.746Y-125.03
X92.896Y-35.82
X92.996Y-71.22
X93.746Y-41.22
X93.996Y-47.47
X93.996Y-57.47
X94.001Y-70.22
X94.496Y-41.22
X94.501Y-69.72
X94.701Y-47.448
X95.001Y-69.22
X95.246Y-25.97
X95.246Y-125.03
X95.246Y-125.03
X95.491Y-68.225
X96.496Y-60.72
X97.196Y-63.97
X97.246Y-60.72
X97.396Y-58.12
X97.596Y-55.82
X97.746Y-25.97
X97.746Y-43.97
X97.746Y-54.97
X97.746Y-125.03
X97.746Y-125.03
X98.246Y-63.97
X98.746Y-44.22
X99.746Y-37.97
X99.746Y-42.72
X99.996Y-58.72
X100.246Y-25.97
X100.246Y-46.22
X100.246Y-125.03
X100.246Y-125.03
X100.516Y-35.7
X100.996Y-54.72
X100.996Y-55.72
X101.096Y-56.304
X101.246Y-72.72
X102.746Y-25.97
X102.746Y-125.03
X102.746Y-125.03
X104.496Y-44.72
X104.496Y-50.97
X104.996Y-37.97
X104.996Y-56.72
X105.246Y-25.97
X105.246Y-125.03
X105.246Y-125.03
X105.596Y-35.62
X105.746Y-58.72
X107.746Y-25.97
X107.746Y-125.03
X107.746Y-125.03
X108.246Y-58.22
X109.496Y-56.72
X110.246Y-25.97
X110.246Y-125.03
X110.246Y-125.03
X110.746Y-57.72
X112.746Y-25.97
X112.746Y-125.03
X112.746Y-125.03
X113.246Y-57.22
X115.246Y-25.97
X115.246Y-125.03
X115.246Y-125.03
X115.746Y-44.72
X117.246Y-44.72
X117.746Y-25.97
X117.746Y-125.03
X117.746Y-125.03
X120.246Y-25.97
X120.246Y-125.03
X120.246Y-125.03
X120.746Y-37.22
X122.746Y-25.97
X122.746Y-125.03
X122.746Y-125.03
X124.496Y-58.97
X124.996Y-59.47
X125.246Y-25.97
X125.246Y-125.03
X125.246Y-125.03
X125.746Y-43.97
X125.746Y-44.72
X127.746Y-25.97
X127.746Y-125.03
X127.746Y-125.03
X127.996Y-33.22
X130.246Y-25.97
X130.246Y-125.03
X130.246Y-125.03
X130.396Y-33.22
X132.746Y-25.97
X132.746Y-125.03
X132.746Y-125.03
X132.996Y-41.97
X135.246Y-25.97
X135.246Y-125.03
X135.246Y-125.03
X137.746Y-25.97
X137.746Y-28.51
X137.746Y-31.05
X137.746Y-33.59
X137.746Y-36.13
X137.746Y-38.67
X137.746Y-41.21
X137.746Y-43.75
X137.746Y-46.29
X137.746Y-48.83
X137.746Y-51.37
X137.746Y-53.91
X137.746Y-56.45
X137.746Y-58.99
X137.746Y-61.53
X137.746Y-64.07
X137.746Y-66.61
X137.746Y-69.15
X137.746Y-71.69
X137.746Y-74.23
X137.746Y-76.77
X137.746Y-79.31
X137.746Y-81.85
X137.746Y-84.39
X137.746Y-86.93
X137.746Y-89.47
X137.746Y-92.01
X137.746Y-94.55
X137.746Y-97.09
X137.746Y-99.63
X137.746Y-102.17
X137.746Y-104.71
X137.746Y-107.25
X137.746Y-109.79
X137.746Y-112.33
X137.746Y-114.87
X137.746Y-117.41
X137.746Y-119.95
X137.746Y-122.49
T2
X60.666Y-71.97
X63.206Y-71.97
X65.746Y-71.97
T3
X45.746Y-56.47
X45.746Y-56.97
X45.746Y-57.47
X45.746Y-58.17
X45.746Y-58.97
X45.746Y-59.47
X45.746Y-59.97
X47.746Y-62.97
X48.246Y-62.97
X48.746Y-62.97
X49.246Y-62.97
X49.746Y-62.97
X50.246Y-62.97
X50.746Y-62.97
X51.746Y-56.47
X51.746Y-56.97
X51.746Y-57.47
X51.746Y-57.97
X51.746Y-58.17
X51.746Y-58.47
X51.746Y-58.97
X51.746Y-59.47
X51.746Y-59.97
X67.496Y-29.18
X67.496Y-31.72
X70.036Y-29.18
X70.036Y-31.72
X72.576Y-29.18
X72.576Y-31.72
X74.746Y-94.22
X75.116Y-29.18
X75.116Y-31.72
X77.286Y-94.22
X77.656Y-29.18
X77.656Y-31.72
X79.826Y-94.22
X80.196Y-29.18
X80.196Y-31.72
X82.366Y-94.22
X82.736Y-29.18
X82.736Y-31.72
X84.906Y-94.22
X85.276Y-29.18
X85.276Y-31.72
X87.446Y-94.22
X87.816Y-29.18
X87.816Y-31.72
X89.986Y-94.22
X90.356Y-29.18
X90.356Y-31.72
X92.526Y-94.22
X92.896Y-29.18
X92.896Y-31.72
X95.436Y-29.18
X95.436Y-31.72
X97.976Y-29.18
X97.976Y-31.72
X100.516Y-29.18
X100.516Y-31.72
X103.056Y-29.18
X103.056Y-31.72
X105.596Y-29.18
X105.596Y-31.72
X108.136Y-29.18
X108.136Y-31.72
X110.676Y-29.18
X110.676Y-31.72
X113.216Y-29.18
X113.216Y-31.72
X115.756Y-29.18
X115.756Y-31.72
X117.996Y-46.72
X117.996Y-49.26
X117.996Y-51.8
X120.536Y-46.72
X120.536Y-49.26
X120.536Y-51.8
X125.996Y-27.22
X128.126Y-37.72
X128.246Y-42.77
X128.246Y-45.31
X128.246Y-47.85
X128.246Y-50.39
X128.246Y-52.93
X128.246Y-55.47
X128.536Y-27.22
X130.666Y-37.72
X131.076Y-27.22
X133.206Y-37.72
X133.616Y-27.22
X135.746Y-37.72
T4
X43.496Y-44.72
X48.496Y-44.72
X65.746Y-77.97
X68.286Y-77.97
X70.826Y-77.97
X73.366Y-77.97
X75.906Y-77.97
X78.446Y-77.97
X80.986Y-77.97
X83.526Y-77.97
X86.066Y-77.97
X88.606Y-77.97
X91.146Y-77.97
X93.686Y-77.97
X96.226Y-77.97
X98.766Y-77.97
X101.306Y-77.97
X103.846Y-77.97
T5
X43.246Y-29.97
X48.246Y-29.97
X53.246Y-29.97
X58.246Y-29.97
T6
X60.247Y-77.97
X60.247Y-108.971
X135.245Y-108.971
X135.246Y-77.97
T3
G00X45.262Y-113.812
M15
G01X44.262Y-113.812
M16
G05
G00X45.262Y-119.312
M15
G01X44.262Y-119.312
M16
G05
G00X47.262Y-110.112
M15
G01X46.262Y-110.112
M16
G05
G00X47.262Y-115.612
M15
G01X46.262Y-115.612
M16
G05
G00X47.262Y-121.712
M15
G01X46.262Y-121.712
M16
G05
T0
M30
